M48
;Layer_Color=9474304
;FILE_FORMAT=2:4
INCH,TZ
;TYPE=PLATED
T1F00S00C0.0300
T2F00S00C0.0320
T3F00S00C0.0787
%
T01
X33809Y4005
X33424Y4807
X33425Y5696
X33812Y6498
X34507Y7052
X35375Y7250
X36942Y6492
X37326Y5690
X37323Y4800
X36935Y4000
X36239Y3446
X35375Y3250
X34504Y3449
X29060Y4000
X29448Y4800
X29451Y5690
X29067Y6492
X27500Y7250
X26632Y7052
X25937Y6498
X25550Y5696
X25549Y4807
X25934Y4005
X26629Y3449
X27500Y3250
X28364Y3446
X20871Y3717
X20070Y3331
X19173Y3333
X17821Y4419
X17625Y5281
X17825Y6153
X18381Y6848
X19175Y7231
X20073Y7230
X20874Y6843
X21428Y6147
X21625Y5281
X21426Y4412
X13698Y4800
X13701Y5690
X13317Y6492
X11750Y7250
X10882Y7052
X10187Y6498
X9800Y5696
X9799Y4807
X10184Y4005
X10879Y3449
X11750Y3250
X12614Y3446
X13310Y4000
X5435
X5823Y4800
X5826Y5690
X5442Y6492
X3875Y7250
X3007Y7052
X2312Y6498
X1925Y5696
X1924Y4807
X2309Y4005
X3004Y3449
X3875Y3250
X4739Y3446
T02
X31001Y10000
X30001
X29001
X28001
X27001
X26001
X25001
X24001
X23001
X22001
X21001
X20001
X19001
X18001
X17001Y10000
X16000Y10000
X15000
X14000
X13000
X12000
X11000
X10000
X9000
X8000
X7000
X6000
X5000
X4000
X3000
X2000
T03
X38780Y591
Y10039
X591
X591Y591
M30
