G04*
G04 #@! TF.GenerationSoftware,Altium Limited,Altium Designer,20.0.2 (26)*
G04*
G04 Layer_Physical_Order=2*
G04 Layer_Color=16711680*
%FSLAX25Y25*%
%MOIN*%
G70*
G01*
G75*
%ADD14C,0.01200*%
%ADD26C,0.07500*%
%ADD27R,0.07500X0.07500*%
%ADD28C,0.09843*%
%ADD29C,0.04500*%
%ADD30P,0.05412X8X22.5*%
%ADD31C,0.05000*%
%ADD32P,0.05412X8X191.3*%
D14*
X140000Y88750D02*
X150000Y78750D01*
Y68750D02*
Y78750D01*
Y68750D02*
X161250Y57500D01*
X140000Y88750D02*
Y100000D01*
X300011Y99999D02*
X300011Y91239D01*
X303750Y87500D01*
X290011Y92489D02*
Y99999D01*
Y92489D02*
X297500Y85000D01*
X280011Y94989D02*
Y99999D01*
Y94989D02*
X281250Y93750D01*
X285000D01*
X296250Y82500D01*
X295000Y80000D02*
X356875D01*
X283750Y91250D02*
X295000Y80000D01*
X272500Y91250D02*
X283750D01*
X293750Y77500D02*
X355625D01*
X282500Y88750D02*
X293750Y77500D01*
X263750Y88750D02*
X282500Y88750D01*
X297500Y70000D02*
X339375D01*
X281250Y86250D02*
X297500Y70000D01*
X246250Y86250D02*
X281250D01*
X270011Y93739D02*
Y99999D01*
Y93739D02*
X272500Y91250D01*
X260011Y92489D02*
X263750Y88750D01*
X260011Y99999D02*
X260011Y92489D01*
X240011Y92489D02*
X246250Y86250D01*
X240011Y92489D02*
Y99999D01*
X220011D02*
X220011Y91239D01*
X227500Y83750D01*
X200011Y94989D02*
Y99999D01*
Y94989D02*
X202500Y92500D01*
X213750Y92500D01*
X225000Y81250D01*
X190011Y92489D02*
Y99999D01*
Y92489D02*
X193750Y88750D01*
X212500D01*
X222500Y78750D02*
X276875D01*
X212500Y88750D02*
X222500Y78750D01*
X220625Y75625D02*
X268125D01*
X211250Y85000D02*
X220625Y75625D01*
X183750Y85000D02*
X211250D01*
X220625Y70625D02*
X260000D01*
X210000Y81250D02*
X220625Y70625D01*
X173750Y81250D02*
X210000D01*
X221272Y64978D02*
X259366D01*
X208750Y77500D02*
X221272Y64978D01*
X158750Y77500D02*
X208750D01*
X180011Y88739D02*
Y99999D01*
Y88739D02*
X183750Y85000D01*
X170011Y84989D02*
Y99999D01*
Y84989D02*
X173750Y81250D01*
X150000Y86250D02*
X158750Y77500D01*
X197809Y57500D02*
X208741Y68432D01*
X161250Y57500D02*
X197809D01*
X150000Y100000D02*
Y101250D01*
Y100000D02*
X150000Y86250D01*
X122500Y70175D02*
Y77500D01*
X120000Y80000D02*
X122500Y77500D01*
X83750Y80000D02*
X120000D01*
X126250Y70000D02*
Y78750D01*
X121250Y83750D02*
X126250Y78750D01*
X95000Y83750D02*
X121250D01*
X130000Y70112D02*
Y80000D01*
X122500Y87500D02*
X130000Y80000D01*
X103750Y87500D02*
X122500D01*
X142500Y55000D02*
Y72500D01*
X123750Y91250D02*
X142500Y72500D01*
X112500Y91250D02*
X123750D01*
X120000Y100000D02*
X146250Y73750D01*
X110000Y93750D02*
X112500Y91250D01*
X110000Y93750D02*
Y96250D01*
X100000Y91250D02*
X103750Y87500D01*
X90000Y88750D02*
X95000Y83750D01*
X80000D02*
X83750Y80000D01*
X111250Y76250D02*
X112969Y74531D01*
X73750Y76250D02*
X111250D01*
X70000Y80000D02*
X73750Y76250D01*
X80000Y83750D02*
Y100000D01*
X71250Y71250D02*
X101875D01*
X60000Y82500D02*
X71250Y71250D01*
X60000Y82500D02*
Y100000D01*
X101875Y71250D02*
X107500Y65625D01*
Y51250D02*
Y65625D01*
X104319Y48069D02*
X107500Y51250D01*
X76785Y56965D02*
X98001D01*
X50000Y83750D02*
X76785Y56965D01*
X50000Y83750D02*
Y100000D01*
X100000Y91250D02*
Y100000D01*
X90000Y88750D02*
Y100000D01*
X70000Y80000D02*
Y100000D01*
X30000Y90000D02*
Y100000D01*
X20000Y77500D02*
Y100000D01*
X23116Y64978D02*
Y74384D01*
X20000Y77500D02*
X23116Y74384D01*
X368125Y73125D02*
Y80000D01*
X360625Y87500D02*
X368125Y80000D01*
X303750Y87500D02*
X360625D01*
X365625Y55610D02*
Y78750D01*
X359375Y85000D02*
X365625Y78750D01*
X297500Y85000D02*
X359375Y85000D01*
X363125Y46225D02*
Y77500D01*
X358125Y82500D02*
X363125Y77500D01*
X296250Y82500D02*
X358125Y82500D01*
X360625Y44375D02*
Y76250D01*
X356875Y80000D02*
X360625Y76250D01*
X355625Y77500D02*
X358125Y75000D01*
X376250Y59890D02*
Y65000D01*
X368125Y73125D02*
X376250Y65000D01*
X373257Y56897D02*
X376250Y59890D01*
X358125Y45000D02*
Y75000D01*
X360625Y44375D02*
X362388Y42612D01*
X363125Y46225D02*
X369355Y39995D01*
X365625Y55610D02*
X373234Y48001D01*
X280000Y83750D02*
X306785Y56965D01*
X227500Y83750D02*
X280000D01*
X278750Y81250D02*
X285000Y75000D01*
X225000Y81250D02*
X278750D01*
X276875Y78750D02*
X281250Y74375D01*
X306785Y56965D02*
X334251D01*
X285000Y60000D02*
Y75000D01*
X339375Y70000D02*
X343750Y65625D01*
Y45706D02*
Y65625D01*
X338094Y40050D02*
X343750Y45706D01*
X281250Y49375D02*
Y74375D01*
X266369Y34494D02*
X281250Y49375D01*
X285000Y60000D02*
X288103Y56897D01*
X294507D01*
X270625Y51331D02*
Y73125D01*
X259344Y40050D02*
X270625Y51331D01*
X268125Y75625D02*
X270625Y73125D01*
X260000Y70625D02*
X264375Y66250D01*
Y51250D02*
Y66250D01*
X261194Y48069D02*
X264375Y51250D01*
X255493Y48069D02*
X261194D01*
X146250Y51250D02*
Y73750D01*
X143001Y48001D02*
X146250Y51250D01*
X136984Y48001D02*
X143001D01*
X140000Y52500D02*
X142500Y55000D01*
X132500Y52500D02*
X140000D01*
X126138Y66250D02*
X130000Y70112D01*
X121875Y65625D02*
X126250Y70000D01*
X117500Y65175D02*
X122500Y70175D01*
X112969Y51174D02*
Y74531D01*
X43750Y67500D02*
Y76250D01*
X30000Y90000D02*
X43750Y76250D01*
X33215Y56965D02*
X43750Y67500D01*
X19251Y56965D02*
X33215D01*
X117500Y43202D02*
Y65175D01*
X108792Y34494D02*
X117500Y43202D01*
X121875Y36879D02*
Y65625D01*
X117496Y32500D02*
X121875Y36879D01*
X126138Y34463D02*
Y66250D01*
X130000Y50000D02*
X132500Y52500D01*
X130000Y42500D02*
Y50000D01*
X266292Y34494D02*
X266369D01*
X353746Y40621D02*
X358125Y45000D01*
X353746Y32500D02*
Y40621D01*
X337522Y64978D02*
X338116D01*
X362388Y34463D02*
Y42612D01*
X208741Y68432D02*
X208750Y68441D01*
X101844Y40050D02*
X112969Y51174D01*
X130000Y42500D02*
X132505Y39995D01*
X133105D01*
X18439Y56965D02*
X19251D01*
X97993Y48069D02*
X104319D01*
D26*
X180011Y99999D02*
D03*
X310011D02*
D03*
X300011D02*
D03*
X290011D02*
D03*
X280011D02*
D03*
X270011D02*
D03*
X250011D02*
D03*
X260011D02*
D03*
X170011Y99999D02*
D03*
X190011Y99999D02*
D03*
X200011D02*
D03*
X210011D02*
D03*
X220011D02*
D03*
X230011D02*
D03*
X240011D02*
D03*
X160000Y100000D02*
D03*
X150000D02*
D03*
X140000D02*
D03*
X130000D02*
D03*
X120000D02*
D03*
X100000D02*
D03*
X110000D02*
D03*
X30000D02*
D03*
X40000D02*
D03*
X50000D02*
D03*
X60000D02*
D03*
X70000D02*
D03*
X80000D02*
D03*
X90000D02*
D03*
D27*
X20000D02*
D03*
D28*
X387795Y100394D02*
D03*
X5906D02*
D03*
X5906Y5906D02*
D03*
X387795D02*
D03*
D29*
X369420Y64923D02*
D03*
D30*
X353746Y72500D02*
D03*
X274996D02*
D03*
X117496D02*
D03*
X38746D02*
D03*
D31*
X345073Y70521D02*
D03*
X338116Y64978D02*
D03*
X334251Y56965D02*
D03*
X334243Y48069D02*
D03*
X338094Y40050D02*
D03*
X345042Y34494D02*
D03*
X353746Y32500D02*
D03*
X362388Y34463D02*
D03*
X369355Y39995D02*
D03*
X373234Y48001D02*
D03*
X373257Y56897D02*
D03*
X290670Y64923D02*
D03*
X266323Y70521D02*
D03*
X259366Y64978D02*
D03*
X255501Y56965D02*
D03*
X255493Y48069D02*
D03*
X259344Y40050D02*
D03*
X266292Y34494D02*
D03*
X274996Y32500D02*
D03*
X283638Y34463D02*
D03*
X290605Y39995D02*
D03*
X294484Y48001D02*
D03*
X294507Y56897D02*
D03*
X133170Y64923D02*
D03*
X108823Y70521D02*
D03*
X101866Y64978D02*
D03*
X98001Y56965D02*
D03*
X97993Y48069D02*
D03*
X101844Y40050D02*
D03*
X108792Y34494D02*
D03*
X117496Y32500D02*
D03*
X126138Y34463D02*
D03*
X133105Y39995D02*
D03*
X136984Y48001D02*
D03*
X137007Y56897D02*
D03*
X54420Y64923D02*
D03*
X30073Y70521D02*
D03*
X23116Y64978D02*
D03*
X19251Y56965D02*
D03*
X19243Y48069D02*
D03*
X23094Y40050D02*
D03*
X30042Y34494D02*
D03*
X38746Y32500D02*
D03*
X47388Y34463D02*
D03*
X54355Y39995D02*
D03*
X58234Y48001D02*
D03*
X58257Y56897D02*
D03*
X176250Y52812D02*
D03*
X178251Y61533D02*
D03*
X183813Y68476D02*
D03*
X191750Y72312D02*
D03*
X200732Y72304D02*
D03*
X208741Y68432D02*
D03*
X214279Y61470D02*
D03*
X214264Y44124D02*
D03*
X208714Y37171D02*
D03*
X200698Y33313D02*
D03*
X178206Y44186D02*
D03*
X216250Y52812D02*
D03*
D32*
X191734Y33329D02*
D03*
M02*
