G04*
G04 #@! TF.GenerationSoftware,Altium Limited,Altium Designer,20.0.2 (26)*
G04*
G04 Layer_Color=16711935*
%FSLAX25Y25*%
%MOIN*%
G70*
G01*
G75*
%ADD17C,0.08300*%
%ADD18R,0.08300X0.08300*%
%ADD19C,0.10642*%
%ADD20C,0.05300*%
%ADD21P,0.06278X8X22.5*%
%ADD22C,0.05800*%
%ADD23P,0.06278X8X191.3*%
D17*
X180011Y99999D02*
D03*
X310011D02*
D03*
X300011D02*
D03*
X290011D02*
D03*
X280011D02*
D03*
X270011D02*
D03*
X250011D02*
D03*
X260011D02*
D03*
X170011Y99999D02*
D03*
X190011Y99999D02*
D03*
X200011D02*
D03*
X210011D02*
D03*
X220011D02*
D03*
X230011D02*
D03*
X240011D02*
D03*
X160000Y100000D02*
D03*
X150000D02*
D03*
X140000D02*
D03*
X130000D02*
D03*
X120000D02*
D03*
X100000D02*
D03*
X110000D02*
D03*
X30000D02*
D03*
X40000D02*
D03*
X50000D02*
D03*
X60000D02*
D03*
X70000D02*
D03*
X80000D02*
D03*
X90000D02*
D03*
D18*
X20000D02*
D03*
D19*
X387795Y100394D02*
D03*
X5906D02*
D03*
X5906Y5906D02*
D03*
X387795D02*
D03*
D20*
X369420Y64923D02*
D03*
D21*
X353746Y72500D02*
D03*
X274996D02*
D03*
X117496D02*
D03*
X38746D02*
D03*
D22*
X345073Y70521D02*
D03*
X338116Y64978D02*
D03*
X334251Y56965D02*
D03*
X334243Y48069D02*
D03*
X338094Y40050D02*
D03*
X345042Y34494D02*
D03*
X353746Y32500D02*
D03*
X362388Y34463D02*
D03*
X369355Y39995D02*
D03*
X373234Y48001D02*
D03*
X373257Y56897D02*
D03*
X290670Y64923D02*
D03*
X266323Y70521D02*
D03*
X259366Y64978D02*
D03*
X255501Y56965D02*
D03*
X255493Y48069D02*
D03*
X259344Y40050D02*
D03*
X266292Y34494D02*
D03*
X274996Y32500D02*
D03*
X283638Y34463D02*
D03*
X290605Y39995D02*
D03*
X294484Y48001D02*
D03*
X294507Y56897D02*
D03*
X133170Y64923D02*
D03*
X108823Y70521D02*
D03*
X101866Y64978D02*
D03*
X98001Y56965D02*
D03*
X97993Y48069D02*
D03*
X101844Y40050D02*
D03*
X108792Y34494D02*
D03*
X117496Y32500D02*
D03*
X126138Y34463D02*
D03*
X133105Y39995D02*
D03*
X136984Y48001D02*
D03*
X137007Y56897D02*
D03*
X54420Y64923D02*
D03*
X30073Y70521D02*
D03*
X23116Y64978D02*
D03*
X19251Y56965D02*
D03*
X19243Y48069D02*
D03*
X23094Y40050D02*
D03*
X30042Y34494D02*
D03*
X38746Y32500D02*
D03*
X47388Y34463D02*
D03*
X54355Y39995D02*
D03*
X58234Y48001D02*
D03*
X58257Y56897D02*
D03*
X176250Y52812D02*
D03*
X178251Y61533D02*
D03*
X183813Y68476D02*
D03*
X191750Y72312D02*
D03*
X200732Y72304D02*
D03*
X208741Y68432D02*
D03*
X214279Y61470D02*
D03*
X214264Y44124D02*
D03*
X208714Y37171D02*
D03*
X200698Y33313D02*
D03*
X178206Y44186D02*
D03*
X216250Y52812D02*
D03*
D23*
X191734Y33329D02*
D03*
M02*
