G04*
G04 #@! TF.GenerationSoftware,Altium Limited,Altium Designer,20.0.2 (26)*
G04*
G04 Layer_Physical_Order=1*
G04 Layer_Color=255*
%FSLAX25Y25*%
%MOIN*%
G70*
G01*
G75*
%ADD14C,0.01200*%
%ADD24R,0.05500X0.04000*%
%ADD25C,0.02500*%
%ADD26C,0.07500*%
%ADD27R,0.07500X0.07500*%
%ADD28C,0.09843*%
%ADD29C,0.04500*%
%ADD30P,0.05412X8X22.5*%
%ADD31C,0.05000*%
%ADD32P,0.05412X8X191.3*%
D14*
X367500Y25000D02*
Y36250D01*
X361300Y18800D02*
X367500Y25000D01*
X322500Y18800D02*
X361300D01*
X353746Y50004D02*
X367500Y36250D01*
X353746Y50004D02*
Y72500D01*
X300000Y83750D02*
X308750Y75000D01*
X260000Y83750D02*
X300000Y83750D01*
X250011Y93739D02*
X260000Y83750D01*
X308750Y75000D02*
X347500D01*
X345042Y34494D02*
X349375Y38827D01*
X347500Y75000D02*
X349375Y73125D01*
X250011Y99999D02*
X250011Y93739D01*
X349375Y38827D02*
Y73125D01*
X230000Y99989D02*
X230011Y99999D01*
X230000Y88750D02*
Y99989D01*
X237500Y81250D02*
X297500D01*
X230000Y88750D02*
X237500Y81250D01*
X308750Y70000D02*
X340000D01*
X297500Y81250D02*
X308750Y70000D01*
X340000D02*
X343750Y66250D01*
X339319Y48069D02*
X343750Y52500D01*
Y66250D01*
X334243Y48069D02*
X339319D01*
X210011Y88739D02*
Y99999D01*
Y88739D02*
X220000Y78750D01*
X211250Y78750D02*
X233035Y56965D01*
X167500Y78750D02*
X211250D01*
X160000Y86250D02*
X167500Y78750D01*
X160000Y86250D02*
Y100000D01*
X140000Y59890D02*
Y68750D01*
X130000Y78750D02*
X140000Y68750D01*
X130000Y78750D02*
Y100000D01*
X40000Y85000D02*
Y100000D01*
Y85000D02*
X45000Y80000D01*
X61250D01*
X178750Y33750D02*
X200732Y55732D01*
X167500Y33750D02*
X178750D01*
X200732Y55732D02*
Y72304D01*
X220000Y78750D02*
X295000Y78750D01*
X308772Y64978D02*
X337522D01*
X295000Y78750D02*
X308772Y64978D01*
X307500Y18800D02*
Y57500D01*
X274996Y72500D02*
X292500D01*
X307500Y57500D01*
X233035Y56965D02*
X255501D01*
X163750Y18800D02*
Y30000D01*
X148750Y18800D02*
Y45000D01*
X137007Y56897D02*
X140000Y59890D01*
X77500Y18800D02*
Y53750D01*
X58750Y72500D02*
X77500Y53750D01*
X38746Y72500D02*
X58750D01*
X76250Y65000D02*
X101843D01*
X61250Y80000D02*
X76250Y65000D01*
X77500Y18750D02*
Y18800D01*
X141250Y52500D02*
X148750Y45000D01*
X125000Y52500D02*
X141250D01*
X117496Y72500D02*
X117500Y72496D01*
Y60000D02*
Y72496D01*
Y60000D02*
X125000Y52500D01*
X163750Y30000D02*
X167500Y33750D01*
X101843Y65000D02*
X101866Y64978D01*
D24*
X322500Y18800D02*
D03*
Y11200D02*
D03*
X77500Y18800D02*
D03*
Y11200D02*
D03*
X307500D02*
D03*
Y18800D02*
D03*
X163750Y11200D02*
D03*
Y18800D02*
D03*
X148750D02*
D03*
Y11200D02*
D03*
D25*
X381250Y26250D02*
Y86250D01*
X366200Y11200D02*
X381250Y26250D01*
X322500Y11200D02*
X366200D01*
X367501Y99999D02*
X381250Y86250D01*
X310011Y99999D02*
X367501D01*
X307500Y11200D02*
X322500D01*
X163750D02*
X307500D01*
X148750D02*
X163750D01*
X77500D02*
X148750D01*
D26*
X180011Y99999D02*
D03*
X310011D02*
D03*
X300011D02*
D03*
X290011D02*
D03*
X280011D02*
D03*
X270011D02*
D03*
X250011D02*
D03*
X260011D02*
D03*
X170011Y99999D02*
D03*
X190011Y99999D02*
D03*
X200011D02*
D03*
X210011D02*
D03*
X220011D02*
D03*
X230011D02*
D03*
X240011D02*
D03*
X160000Y100000D02*
D03*
X150000D02*
D03*
X140000D02*
D03*
X130000D02*
D03*
X120000D02*
D03*
X100000D02*
D03*
X110000D02*
D03*
X30000D02*
D03*
X40000D02*
D03*
X50000D02*
D03*
X60000D02*
D03*
X70000D02*
D03*
X80000D02*
D03*
X90000D02*
D03*
D27*
X20000D02*
D03*
D28*
X387795Y100394D02*
D03*
X5906D02*
D03*
X5906Y5906D02*
D03*
X387795D02*
D03*
D29*
X369420Y64923D02*
D03*
D30*
X353746Y72500D02*
D03*
X274996D02*
D03*
X117496D02*
D03*
X38746D02*
D03*
D31*
X345073Y70521D02*
D03*
X338116Y64978D02*
D03*
X334251Y56965D02*
D03*
X334243Y48069D02*
D03*
X338094Y40050D02*
D03*
X345042Y34494D02*
D03*
X353746Y32500D02*
D03*
X362388Y34463D02*
D03*
X369355Y39995D02*
D03*
X373234Y48001D02*
D03*
X373257Y56897D02*
D03*
X290670Y64923D02*
D03*
X266323Y70521D02*
D03*
X259366Y64978D02*
D03*
X255501Y56965D02*
D03*
X255493Y48069D02*
D03*
X259344Y40050D02*
D03*
X266292Y34494D02*
D03*
X274996Y32500D02*
D03*
X283638Y34463D02*
D03*
X290605Y39995D02*
D03*
X294484Y48001D02*
D03*
X294507Y56897D02*
D03*
X133170Y64923D02*
D03*
X108823Y70521D02*
D03*
X101866Y64978D02*
D03*
X98001Y56965D02*
D03*
X97993Y48069D02*
D03*
X101844Y40050D02*
D03*
X108792Y34494D02*
D03*
X117496Y32500D02*
D03*
X126138Y34463D02*
D03*
X133105Y39995D02*
D03*
X136984Y48001D02*
D03*
X137007Y56897D02*
D03*
X54420Y64923D02*
D03*
X30073Y70521D02*
D03*
X23116Y64978D02*
D03*
X19251Y56965D02*
D03*
X19243Y48069D02*
D03*
X23094Y40050D02*
D03*
X30042Y34494D02*
D03*
X38746Y32500D02*
D03*
X47388Y34463D02*
D03*
X54355Y39995D02*
D03*
X58234Y48001D02*
D03*
X58257Y56897D02*
D03*
X176250Y52812D02*
D03*
X178251Y61533D02*
D03*
X183813Y68476D02*
D03*
X191750Y72312D02*
D03*
X200732Y72304D02*
D03*
X208741Y68432D02*
D03*
X214279Y61470D02*
D03*
X214264Y44124D02*
D03*
X208714Y37171D02*
D03*
X200698Y33313D02*
D03*
X178206Y44186D02*
D03*
X216250Y52812D02*
D03*
D32*
X191734Y33329D02*
D03*
M02*
