G04*
G04 #@! TF.GenerationSoftware,Altium Limited,Altium Designer,20.0.2 (26)*
G04*
G04 Layer_Color=65535*
%FSLAX25Y25*%
%MOIN*%
G70*
G01*
G75*
%ADD10C,0.01000*%
%ADD11C,0.02000*%
%ADD12C,0.03000*%
%ADD13C,0.02250*%
%ADD14C,0.01200*%
%ADD15C,0.00800*%
D10*
X391246Y52500D02*
X391233Y53498D01*
X391193Y54496D01*
X391127Y55492D01*
X391034Y56486D01*
X390914Y57477D01*
X390769Y58465D01*
X390597Y59448D01*
X390399Y60427D01*
X390175Y61400D01*
X389925Y62366D01*
X389650Y63326D01*
X389349Y64278D01*
X389022Y65222D01*
X388671Y66156D01*
X388295Y67081D01*
X387895Y67996D01*
X387470Y68899D01*
X387022Y69791D01*
X386550Y70671D01*
X386054Y71538D01*
X385536Y72391D01*
X384995Y73230D01*
X384433Y74054D01*
X383848Y74864D01*
X383242Y75657D01*
X382615Y76434D01*
X381967Y77194D01*
X381300Y77937D01*
X380613Y78661D01*
X379907Y79367D01*
X379183Y80054D01*
X378440Y80721D01*
X377680Y81369D01*
X376903Y81996D01*
X376110Y82602D01*
X375301Y83186D01*
X374476Y83749D01*
X373637Y84290D01*
X372784Y84808D01*
X371917Y85304D01*
X371037Y85776D01*
X370145Y86224D01*
X369242Y86649D01*
X368327Y87049D01*
X367402Y87425D01*
X366468Y87776D01*
X365524Y88102D01*
X364572Y88403D01*
X363613Y88679D01*
X362646Y88929D01*
X361673Y89153D01*
X360695Y89351D01*
X359711Y89523D01*
X358723Y89668D01*
X357732Y89788D01*
X356738Y89880D01*
X355742Y89947D01*
X354744Y89987D01*
X353746Y90000D01*
X352748Y89987D01*
X351750Y89947D01*
X350754Y89880D01*
X349760Y89788D01*
X348769Y89668D01*
X347781Y89523D01*
X346798Y89351D01*
X345819Y89153D01*
X344846Y88929D01*
X343880Y88679D01*
X342920Y88403D01*
X341968Y88102D01*
X341025Y87776D01*
X340090Y87425D01*
X339165Y87049D01*
X338251Y86649D01*
X337347Y86224D01*
X336455Y85776D01*
X335576Y85304D01*
X334709Y84808D01*
X333855Y84290D01*
X333016Y83749D01*
X332192Y83186D01*
X331382Y82602D01*
X330589Y81996D01*
X329812Y81369D01*
X329052Y80721D01*
X328309Y80054D01*
X327585Y79367D01*
X326879Y78661D01*
X326192Y77937D01*
X325525Y77194D01*
X324877Y76434D01*
X324251Y75657D01*
X323644Y74864D01*
X323060Y74055D01*
X322497Y73230D01*
X321956Y72391D01*
X321438Y71538D01*
X320943Y70671D01*
X320470Y69791D01*
X320022Y68899D01*
X319597Y67996D01*
X319197Y67081D01*
X318821Y66156D01*
X318470Y65222D01*
X318144Y64278D01*
X317843Y63326D01*
X317567Y62366D01*
X317318Y61400D01*
X317093Y60427D01*
X316896Y59448D01*
X316724Y58465D01*
X316578Y57477D01*
X316459Y56486D01*
X316366Y55492D01*
X316299Y54496D01*
X316259Y53498D01*
X316246Y52500D01*
X316259Y51502D01*
X316299Y50504D01*
X316366Y49508D01*
X316459Y48514D01*
X316578Y47523D01*
X316724Y46535D01*
X316896Y45552D01*
X317093Y44573D01*
X317318Y43600D01*
X317567Y42634D01*
X317843Y41674D01*
X318144Y40722D01*
X318470Y39779D01*
X318821Y38844D01*
X319197Y37919D01*
X319597Y37005D01*
X320022Y36101D01*
X320470Y35209D01*
X320942Y34330D01*
X321438Y33463D01*
X321956Y32609D01*
X322497Y31770D01*
X323060Y30946D01*
X323644Y30136D01*
X324250Y29343D01*
X324877Y28566D01*
X325525Y27806D01*
X326192Y27063D01*
X326879Y26339D01*
X327585Y25633D01*
X328309Y24946D01*
X329052Y24279D01*
X329812Y23631D01*
X330589Y23004D01*
X331382Y22398D01*
X332191Y21814D01*
X333016Y21251D01*
X333855Y20710D01*
X334708Y20192D01*
X335575Y19696D01*
X336455Y19224D01*
X337347Y18776D01*
X338250Y18351D01*
X339165Y17951D01*
X340090Y17575D01*
X341024Y17224D01*
X341968Y16898D01*
X342920Y16597D01*
X343880Y16321D01*
X344846Y16071D01*
X345819Y15847D01*
X346798Y15649D01*
X347781Y15477D01*
X348769Y15332D01*
X349760Y15213D01*
X350754Y15120D01*
X351750Y15053D01*
X352748Y15013D01*
X353746Y15000D01*
X354744Y15013D01*
X355742Y15053D01*
X356738Y15120D01*
X357732Y15212D01*
X358723Y15332D01*
X359711Y15477D01*
X360694Y15649D01*
X361673Y15847D01*
X362646Y16071D01*
X363612Y16321D01*
X364572Y16597D01*
X365524Y16897D01*
X366467Y17224D01*
X367402Y17575D01*
X368327Y17951D01*
X369241Y18351D01*
X370145Y18776D01*
X371037Y19224D01*
X371917Y19696D01*
X372783Y20192D01*
X373637Y20710D01*
X374476Y21251D01*
X375301Y21813D01*
X376110Y22398D01*
X376903Y23004D01*
X377680Y23631D01*
X378440Y24278D01*
X379183Y24946D01*
X379907Y25633D01*
X380613Y26339D01*
X381300Y27063D01*
X381967Y27806D01*
X382615Y28566D01*
X383242Y29343D01*
X383848Y30136D01*
X384432Y30945D01*
X384995Y31770D01*
X385536Y32609D01*
X386054Y33462D01*
X386550Y34329D01*
X387022Y35209D01*
X387470Y36101D01*
X387895Y37004D01*
X388295Y37919D01*
X388671Y38844D01*
X389022Y39778D01*
X389349Y40722D01*
X389649Y41674D01*
X389925Y42633D01*
X390175Y43600D01*
X390399Y44573D01*
X390597Y45551D01*
X390769Y46535D01*
X390914Y47523D01*
X391034Y48514D01*
X391127Y49508D01*
X391193Y50504D01*
X391233Y51501D01*
X391246Y52500D01*
X312496Y52500D02*
X312483Y53498D01*
X312443Y54496D01*
X312377Y55492D01*
X312284Y56486D01*
X312164Y57477D01*
X312019Y58465D01*
X311847Y59448D01*
X311649Y60427D01*
X311425Y61400D01*
X311175Y62366D01*
X310899Y63326D01*
X310599Y64278D01*
X310272Y65222D01*
X309921Y66156D01*
X309545Y67081D01*
X309145Y67996D01*
X308720Y68899D01*
X308272Y69791D01*
X307800Y70671D01*
X307304Y71538D01*
X306786Y72391D01*
X306245Y73230D01*
X305682Y74054D01*
X305098Y74864D01*
X304492Y75657D01*
X303865Y76434D01*
X303218Y77194D01*
X302550Y77937D01*
X301863Y78661D01*
X301157Y79367D01*
X300433Y80054D01*
X299690Y80721D01*
X298930Y81369D01*
X298153Y81996D01*
X297360Y82602D01*
X296551Y83186D01*
X295726Y83749D01*
X294887Y84290D01*
X294034Y84808D01*
X293167Y85304D01*
X292287Y85776D01*
X291395Y86224D01*
X290492Y86649D01*
X289577Y87049D01*
X288652Y87425D01*
X287718Y87776D01*
X286774Y88102D01*
X285822Y88403D01*
X284862Y88679D01*
X283896Y88929D01*
X282923Y89153D01*
X281944Y89351D01*
X280961Y89523D01*
X279973Y89668D01*
X278982Y89788D01*
X277988Y89880D01*
X276992Y89947D01*
X275994Y89987D01*
X274996Y90000D01*
X273998Y89987D01*
X273000Y89947D01*
X272004Y89880D01*
X271010Y89788D01*
X270019Y89668D01*
X269031Y89523D01*
X268048Y89351D01*
X267069Y89153D01*
X266096Y88929D01*
X265130Y88679D01*
X264170Y88403D01*
X263218Y88102D01*
X262275Y87776D01*
X261340Y87425D01*
X260415Y87049D01*
X259501Y86649D01*
X258597Y86224D01*
X257705Y85776D01*
X256825Y85304D01*
X255959Y84808D01*
X255105Y84290D01*
X254266Y83749D01*
X253442Y83186D01*
X252632Y82602D01*
X251839Y81996D01*
X251062Y81369D01*
X250302Y80721D01*
X249559Y80054D01*
X248835Y79367D01*
X248129Y78661D01*
X247442Y77937D01*
X246775Y77194D01*
X246127Y76434D01*
X245500Y75657D01*
X244895Y74864D01*
X244310Y74055D01*
X243747Y73230D01*
X243206Y72391D01*
X242688Y71538D01*
X242193Y70671D01*
X241721Y69791D01*
X241272Y68899D01*
X240847Y67996D01*
X240447Y67081D01*
X240071Y66156D01*
X239720Y65222D01*
X239394Y64278D01*
X239093Y63326D01*
X238817Y62366D01*
X238567Y61400D01*
X238344Y60427D01*
X238145Y59448D01*
X237974Y58465D01*
X237828Y57477D01*
X237709Y56486D01*
X237616Y55492D01*
X237549Y54496D01*
X237509Y53498D01*
X237496Y52500D01*
X237509Y51502D01*
X237549Y50504D01*
X237616Y49508D01*
X237709Y48514D01*
X237828Y47523D01*
X237974Y46535D01*
X238145Y45552D01*
X238344Y44573D01*
X238567Y43600D01*
X238817Y42634D01*
X239093Y41674D01*
X239394Y40722D01*
X239720Y39779D01*
X240071Y38844D01*
X240447Y37919D01*
X240847Y37005D01*
X241272Y36101D01*
X241720Y35209D01*
X242193Y34330D01*
X242688Y33463D01*
X243206Y32609D01*
X243747Y31770D01*
X244310Y30946D01*
X244894Y30136D01*
X245500Y29343D01*
X246127Y28566D01*
X246775Y27806D01*
X247442Y27063D01*
X248129Y26339D01*
X248835Y25633D01*
X249559Y24946D01*
X250302Y24279D01*
X251062Y23631D01*
X251839Y23004D01*
X252632Y22398D01*
X253442Y21814D01*
X254266Y21251D01*
X255105Y20710D01*
X255959Y20192D01*
X256825Y19696D01*
X257705Y19224D01*
X258597Y18776D01*
X259501Y18351D01*
X260415Y17951D01*
X261340Y17575D01*
X262275Y17224D01*
X263218Y16898D01*
X264170Y16597D01*
X265130Y16321D01*
X266096Y16071D01*
X267069Y15847D01*
X268048Y15649D01*
X269031Y15477D01*
X270019Y15332D01*
X271010Y15213D01*
X272004Y15120D01*
X273000Y15053D01*
X273998Y15013D01*
X274996Y15000D01*
X275994Y15013D01*
X276992Y15053D01*
X277988Y15120D01*
X278982Y15212D01*
X279973Y15332D01*
X280961Y15477D01*
X281944Y15649D01*
X282923Y15847D01*
X283896Y16071D01*
X284862Y16321D01*
X285822Y16597D01*
X286774Y16897D01*
X287717Y17224D01*
X288652Y17575D01*
X289577Y17951D01*
X290491Y18351D01*
X291395Y18776D01*
X292287Y19224D01*
X293167Y19696D01*
X294033Y20192D01*
X294887Y20710D01*
X295726Y21251D01*
X296550Y21813D01*
X297360Y22398D01*
X298153Y23004D01*
X298930Y23631D01*
X299690Y24278D01*
X300433Y24946D01*
X301157Y25633D01*
X301863Y26339D01*
X302550Y27063D01*
X303217Y27806D01*
X303865Y28566D01*
X304492Y29343D01*
X305098Y30136D01*
X305682Y30945D01*
X306245Y31770D01*
X306786Y32609D01*
X307304Y33462D01*
X307800Y34329D01*
X308272Y35209D01*
X308720Y36101D01*
X309145Y37004D01*
X309545Y37919D01*
X309921Y38844D01*
X310272Y39778D01*
X310598Y40722D01*
X310899Y41674D01*
X311175Y42633D01*
X311425Y43600D01*
X311649Y44573D01*
X311847Y45551D01*
X312019Y46535D01*
X312164Y47523D01*
X312284Y48514D01*
X312377Y49508D01*
X312443Y50504D01*
X312483Y51501D01*
X312496Y52500D01*
X154996Y52500D02*
X154983Y53498D01*
X154943Y54496D01*
X154877Y55492D01*
X154784Y56486D01*
X154664Y57477D01*
X154519Y58465D01*
X154347Y59448D01*
X154149Y60427D01*
X153925Y61400D01*
X153675Y62366D01*
X153400Y63326D01*
X153099Y64278D01*
X152772Y65222D01*
X152421Y66156D01*
X152045Y67081D01*
X151645Y67996D01*
X151220Y68899D01*
X150772Y69791D01*
X150300Y70671D01*
X149804Y71538D01*
X149286Y72391D01*
X148745Y73230D01*
X148182Y74054D01*
X147598Y74864D01*
X146992Y75657D01*
X146365Y76434D01*
X145718Y77194D01*
X145050Y77937D01*
X144363Y78661D01*
X143657Y79367D01*
X142933Y80054D01*
X142190Y80721D01*
X141430Y81369D01*
X140653Y81996D01*
X139860Y82602D01*
X139051Y83186D01*
X138226Y83749D01*
X137387Y84290D01*
X136534Y84808D01*
X135667Y85304D01*
X134787Y85776D01*
X133895Y86224D01*
X132992Y86649D01*
X132077Y87049D01*
X131152Y87425D01*
X130218Y87776D01*
X129274Y88102D01*
X128322Y88403D01*
X127363Y88679D01*
X126396Y88929D01*
X125423Y89153D01*
X124444Y89351D01*
X123461Y89523D01*
X122473Y89668D01*
X121482Y89788D01*
X120488Y89880D01*
X119492Y89947D01*
X118494Y89987D01*
X117496Y90000D01*
X116498Y89987D01*
X115500Y89947D01*
X114504Y89880D01*
X113510Y89788D01*
X112519Y89668D01*
X111531Y89523D01*
X110548Y89351D01*
X109569Y89153D01*
X108596Y88929D01*
X107630Y88679D01*
X106670Y88403D01*
X105718Y88102D01*
X104775Y87776D01*
X103840Y87425D01*
X102915Y87049D01*
X102001Y86649D01*
X101097Y86224D01*
X100205Y85776D01*
X99326Y85304D01*
X98459Y84808D01*
X97605Y84290D01*
X96766Y83749D01*
X95942Y83186D01*
X95132Y82602D01*
X94339Y81996D01*
X93562Y81369D01*
X92802Y80721D01*
X92059Y80054D01*
X91335Y79367D01*
X90629Y78661D01*
X89942Y77937D01*
X89275Y77194D01*
X88627Y76434D01*
X88001Y75657D01*
X87394Y74864D01*
X86810Y74055D01*
X86247Y73230D01*
X85706Y72391D01*
X85188Y71538D01*
X84693Y70671D01*
X84220Y69791D01*
X83772Y68899D01*
X83347Y67996D01*
X82947Y67081D01*
X82571Y66156D01*
X82220Y65222D01*
X81894Y64278D01*
X81593Y63326D01*
X81317Y62366D01*
X81068Y61400D01*
X80844Y60427D01*
X80646Y59448D01*
X80474Y58465D01*
X80328Y57477D01*
X80209Y56486D01*
X80116Y55492D01*
X80049Y54496D01*
X80009Y53498D01*
X79996Y52500D01*
X80009Y51502D01*
X80049Y50504D01*
X80116Y49508D01*
X80209Y48514D01*
X80328Y47523D01*
X80474Y46535D01*
X80646Y45552D01*
X80844Y44573D01*
X81068Y43600D01*
X81317Y42634D01*
X81593Y41674D01*
X81894Y40722D01*
X82220Y39779D01*
X82571Y38844D01*
X82947Y37919D01*
X83347Y37005D01*
X83772Y36101D01*
X84220Y35209D01*
X84693Y34330D01*
X85188Y33463D01*
X85706Y32609D01*
X86247Y31770D01*
X86810Y30946D01*
X87394Y30136D01*
X88000Y29343D01*
X88627Y28566D01*
X89275Y27806D01*
X89942Y27063D01*
X90629Y26339D01*
X91335Y25633D01*
X92059Y24946D01*
X92802Y24279D01*
X93562Y23631D01*
X94339Y23004D01*
X95132Y22398D01*
X95942Y21814D01*
X96766Y21251D01*
X97605Y20710D01*
X98458Y20192D01*
X99325Y19696D01*
X100205Y19224D01*
X101097Y18776D01*
X102000Y18351D01*
X102915Y17951D01*
X103840Y17575D01*
X104774Y17224D01*
X105718Y16898D01*
X106670Y16597D01*
X107630Y16321D01*
X108596Y16071D01*
X109569Y15847D01*
X110548Y15649D01*
X111531Y15477D01*
X112519Y15332D01*
X113510Y15213D01*
X114504Y15120D01*
X115500Y15053D01*
X116498Y15013D01*
X117496Y15000D01*
X118494Y15013D01*
X119492Y15053D01*
X120488Y15120D01*
X121482Y15212D01*
X122473Y15332D01*
X123461Y15477D01*
X124444Y15649D01*
X125423Y15847D01*
X126396Y16071D01*
X127362Y16321D01*
X128322Y16597D01*
X129274Y16897D01*
X130217Y17224D01*
X131152Y17575D01*
X132077Y17951D01*
X132991Y18351D01*
X133895Y18776D01*
X134787Y19224D01*
X135667Y19696D01*
X136533Y20192D01*
X137387Y20710D01*
X138226Y21251D01*
X139050Y21813D01*
X139860Y22398D01*
X140653Y23004D01*
X141430Y23631D01*
X142190Y24278D01*
X142933Y24946D01*
X143657Y25633D01*
X144363Y26339D01*
X145050Y27063D01*
X145717Y27806D01*
X146365Y28566D01*
X146992Y29343D01*
X147598Y30136D01*
X148182Y30945D01*
X148745Y31770D01*
X149286Y32609D01*
X149804Y33462D01*
X150300Y34329D01*
X150772Y35209D01*
X151220Y36101D01*
X151645Y37004D01*
X152045Y37919D01*
X152421Y38844D01*
X152772Y39778D01*
X153098Y40722D01*
X153399Y41674D01*
X153675Y42633D01*
X153925Y43600D01*
X154149Y44573D01*
X154347Y45551D01*
X154519Y46535D01*
X154664Y47523D01*
X154784Y48514D01*
X154877Y49508D01*
X154943Y50504D01*
X154983Y51501D01*
X154996Y52500D01*
X76246Y52500D02*
X76233Y53498D01*
X76193Y54496D01*
X76127Y55492D01*
X76034Y56486D01*
X75914Y57477D01*
X75769Y58465D01*
X75597Y59448D01*
X75399Y60427D01*
X75175Y61400D01*
X74925Y62366D01*
X74650Y63326D01*
X74349Y64278D01*
X74022Y65222D01*
X73671Y66156D01*
X73295Y67081D01*
X72895Y67996D01*
X72470Y68899D01*
X72022Y69791D01*
X71550Y70671D01*
X71054Y71538D01*
X70536Y72391D01*
X69995Y73230D01*
X69432Y74054D01*
X68848Y74864D01*
X68242Y75657D01*
X67615Y76434D01*
X66968Y77194D01*
X66300Y77937D01*
X65613Y78661D01*
X64907Y79367D01*
X64183Y80054D01*
X63440Y80721D01*
X62680Y81369D01*
X61903Y81996D01*
X61110Y82602D01*
X60301Y83186D01*
X59476Y83749D01*
X58637Y84290D01*
X57784Y84808D01*
X56917Y85304D01*
X56037Y85776D01*
X55145Y86224D01*
X54242Y86649D01*
X53327Y87049D01*
X52402Y87425D01*
X51468Y87776D01*
X50524Y88102D01*
X49572Y88403D01*
X48612Y88679D01*
X47646Y88929D01*
X46673Y89153D01*
X45695Y89351D01*
X44711Y89523D01*
X43723Y89668D01*
X42732Y89788D01*
X41738Y89880D01*
X40742Y89947D01*
X39744Y89987D01*
X38746Y90000D01*
X37748Y89987D01*
X36750Y89947D01*
X35754Y89880D01*
X34760Y89788D01*
X33769Y89668D01*
X32781Y89523D01*
X31798Y89351D01*
X30819Y89153D01*
X29846Y88929D01*
X28880Y88679D01*
X27920Y88403D01*
X26968Y88102D01*
X26025Y87776D01*
X25090Y87425D01*
X24165Y87049D01*
X23251Y86649D01*
X22347Y86224D01*
X21455Y85776D01*
X20575Y85304D01*
X19709Y84808D01*
X18855Y84290D01*
X18016Y83749D01*
X17192Y83186D01*
X16382Y82602D01*
X15589Y81996D01*
X14812Y81369D01*
X14052Y80721D01*
X13309Y80054D01*
X12585Y79367D01*
X11879Y78661D01*
X11192Y77937D01*
X10525Y77194D01*
X9877Y76434D01*
X9251Y75657D01*
X8644Y74864D01*
X8060Y74055D01*
X7497Y73230D01*
X6956Y72391D01*
X6438Y71538D01*
X5943Y70671D01*
X5471Y69791D01*
X5022Y68899D01*
X4597Y67996D01*
X4197Y67081D01*
X3821Y66156D01*
X3470Y65222D01*
X3144Y64278D01*
X2843Y63326D01*
X2567Y62366D01*
X2317Y61400D01*
X2094Y60427D01*
X1895Y59448D01*
X1724Y58465D01*
X1578Y57477D01*
X1459Y56486D01*
X1366Y55492D01*
X1299Y54496D01*
X1259Y53498D01*
X1246Y52500D01*
X1259Y51502D01*
X1299Y50504D01*
X1366Y49508D01*
X1459Y48514D01*
X1578Y47523D01*
X1724Y46535D01*
X1895Y45552D01*
X2094Y44573D01*
X2317Y43600D01*
X2567Y42634D01*
X2843Y41674D01*
X3144Y40722D01*
X3470Y39779D01*
X3821Y38844D01*
X4197Y37919D01*
X4597Y37005D01*
X5022Y36101D01*
X5470Y35209D01*
X5943Y34330D01*
X6438Y33463D01*
X6956Y32609D01*
X7497Y31770D01*
X8060Y30946D01*
X8644Y30136D01*
X9250Y29343D01*
X9877Y28566D01*
X10525Y27806D01*
X11192Y27063D01*
X11879Y26339D01*
X12585Y25633D01*
X13309Y24946D01*
X14052Y24279D01*
X14812Y23631D01*
X15589Y23004D01*
X16382Y22398D01*
X17191Y21814D01*
X18016Y21251D01*
X18855Y20710D01*
X19708Y20192D01*
X20575Y19696D01*
X21455Y19224D01*
X22347Y18776D01*
X23250Y18351D01*
X24165Y17951D01*
X25090Y17575D01*
X26024Y17224D01*
X26968Y16898D01*
X27920Y16597D01*
X28880Y16321D01*
X29846Y16071D01*
X30819Y15847D01*
X31798Y15649D01*
X32781Y15477D01*
X33769Y15332D01*
X34760Y15213D01*
X35754Y15120D01*
X36750Y15053D01*
X37748Y15013D01*
X38746Y15000D01*
X39744Y15013D01*
X40742Y15053D01*
X41738Y15120D01*
X42732Y15212D01*
X43723Y15332D01*
X44711Y15477D01*
X45694Y15649D01*
X46673Y15847D01*
X47646Y16071D01*
X48612Y16321D01*
X49572Y16597D01*
X50524Y16897D01*
X51467Y17224D01*
X52402Y17575D01*
X53327Y17951D01*
X54241Y18351D01*
X55145Y18776D01*
X56037Y19224D01*
X56917Y19696D01*
X57783Y20192D01*
X58637Y20710D01*
X59476Y21251D01*
X60300Y21813D01*
X61110Y22398D01*
X61903Y23004D01*
X62680Y23631D01*
X63440Y24278D01*
X64183Y24946D01*
X64907Y25633D01*
X65613Y26339D01*
X66300Y27063D01*
X66967Y27806D01*
X67615Y28566D01*
X68242Y29343D01*
X68848Y30136D01*
X69432Y30945D01*
X69995Y31770D01*
X70536Y32609D01*
X71054Y33462D01*
X71550Y34329D01*
X72022Y35209D01*
X72470Y36101D01*
X72895Y37004D01*
X73295Y37919D01*
X73671Y38844D01*
X74022Y39778D01*
X74348Y40722D01*
X74649Y41674D01*
X74925Y42633D01*
X75175Y43600D01*
X75399Y44573D01*
X75597Y45551D01*
X75769Y46535D01*
X75914Y47523D01*
X76034Y48514D01*
X76127Y49508D01*
X76193Y50504D01*
X76233Y51501D01*
X76246Y52500D01*
X233750Y52812D02*
X233737Y53811D01*
X233697Y54808D01*
X233630Y55805D01*
X233538Y56798D01*
X233418Y57790D01*
X233273Y58777D01*
X233101Y59761D01*
X232903Y60739D01*
X232679Y61712D01*
X232429Y62679D01*
X232153Y63639D01*
X231852Y64590D01*
X231526Y65534D01*
X231175Y66469D01*
X230799Y67393D01*
X230399Y68308D01*
X229974Y69212D01*
X229526Y70104D01*
X229054Y70983D01*
X228558Y71850D01*
X228040Y72703D01*
X227499Y73542D01*
X226936Y74367D01*
X226352Y75176D01*
X225746Y75970D01*
X225119Y76747D01*
X224471Y77507D01*
X223804Y78249D01*
X223117Y78974D01*
X222411Y79680D01*
X221687Y80366D01*
X220944Y81034D01*
X220184Y81681D01*
X219407Y82308D01*
X218614Y82914D01*
X217805Y83499D01*
X216980Y84062D01*
X216141Y84602D01*
X215287Y85121D01*
X214421Y85616D01*
X213541Y86088D01*
X212649Y86537D01*
X211745Y86961D01*
X210831Y87362D01*
X209906Y87738D01*
X208972Y88089D01*
X208028Y88415D01*
X207076Y88716D01*
X206116Y88991D01*
X205150Y89241D01*
X204177Y89465D01*
X203198Y89663D01*
X202215Y89835D01*
X201227Y89981D01*
X200236Y90100D01*
X199242Y90193D01*
X198246Y90259D01*
X197248Y90299D01*
X196250Y90312D01*
X195252Y90299D01*
X194254Y90259D01*
X193258Y90193D01*
X192264Y90100D01*
X191273Y89981D01*
X190285Y89835D01*
X189302Y89663D01*
X188323Y89465D01*
X187350Y89241D01*
X186384Y88991D01*
X185424Y88716D01*
X184472Y88415D01*
X183529Y88089D01*
X182594Y87738D01*
X181669Y87362D01*
X180755Y86961D01*
X179851Y86537D01*
X178959Y86088D01*
X178079Y85616D01*
X177213Y85121D01*
X176359Y84603D01*
X175520Y84062D01*
X174696Y83499D01*
X173886Y82914D01*
X173093Y82308D01*
X172316Y81681D01*
X171556Y81034D01*
X170813Y80367D01*
X170089Y79680D01*
X169383Y78974D01*
X168696Y78249D01*
X168029Y77507D01*
X167381Y76747D01*
X166754Y75970D01*
X166148Y75176D01*
X165564Y74367D01*
X165001Y73543D01*
X164460Y72703D01*
X163942Y71850D01*
X163446Y70983D01*
X162974Y70104D01*
X162526Y69212D01*
X162101Y68308D01*
X161701Y67393D01*
X161325Y66469D01*
X160974Y65534D01*
X160648Y64591D01*
X160347Y63639D01*
X160071Y62679D01*
X159821Y61712D01*
X159597Y60739D01*
X159399Y59761D01*
X159227Y58777D01*
X159082Y57790D01*
X158963Y56799D01*
X158870Y55805D01*
X158803Y54808D01*
X158763Y53811D01*
X158750Y52813D01*
X158763Y51814D01*
X158803Y50817D01*
X158870Y49821D01*
X158962Y48827D01*
X159082Y47835D01*
X159227Y46848D01*
X159399Y45864D01*
X159597Y44886D01*
X159821Y43913D01*
X160071Y42946D01*
X160347Y41987D01*
X160648Y41035D01*
X160974Y40091D01*
X161325Y39157D01*
X161701Y38232D01*
X162101Y37317D01*
X162526Y36414D01*
X162974Y35522D01*
X163446Y34642D01*
X163942Y33775D01*
X164460Y32922D01*
X165001Y32083D01*
X165564Y31258D01*
X166148Y30449D01*
X166754Y29656D01*
X167381Y28879D01*
X168028Y28118D01*
X168696Y27376D01*
X169383Y26651D01*
X170089Y25945D01*
X170813Y25259D01*
X171556Y24591D01*
X172316Y23944D01*
X173093Y23317D01*
X173886Y22711D01*
X174695Y22126D01*
X175520Y21563D01*
X176359Y21023D01*
X177212Y20504D01*
X178079Y20009D01*
X178959Y19537D01*
X179851Y19088D01*
X180754Y18664D01*
X181669Y18263D01*
X182594Y17887D01*
X183528Y17536D01*
X184472Y17210D01*
X185424Y16909D01*
X186383Y16634D01*
X187350Y16384D01*
X188323Y16160D01*
X189302Y15962D01*
X190285Y15790D01*
X191273Y15644D01*
X192264Y15525D01*
X193258Y15432D01*
X194254Y15366D01*
X195252Y15326D01*
X196250Y15313D01*
X197248Y15326D01*
X198246Y15366D01*
X199242Y15432D01*
X200236Y15525D01*
X201227Y15644D01*
X202215Y15790D01*
X203198Y15962D01*
X204177Y16160D01*
X205150Y16384D01*
X206116Y16634D01*
X207076Y16909D01*
X208028Y17210D01*
X208971Y17536D01*
X209906Y17887D01*
X210831Y18263D01*
X211745Y18664D01*
X212649Y19088D01*
X213541Y19537D01*
X214420Y20009D01*
X215287Y20504D01*
X216141Y21022D01*
X216980Y21563D01*
X217804Y22126D01*
X218614Y22711D01*
X219407Y23317D01*
X220184Y23944D01*
X220944Y24591D01*
X221687Y25258D01*
X222411Y25945D01*
X223117Y26651D01*
X223804Y27376D01*
X224471Y28118D01*
X225119Y28878D01*
X225746Y29655D01*
X226351Y30448D01*
X226936Y31258D01*
X227499Y32082D01*
X228040Y32921D01*
X228558Y33775D01*
X229053Y34642D01*
X229526Y35521D01*
X229974Y36413D01*
X230399Y37317D01*
X230799Y38231D01*
X231175Y39156D01*
X231526Y40091D01*
X231852Y41034D01*
X232153Y41986D01*
X232429Y42946D01*
X232679Y43913D01*
X232903Y44885D01*
X233101Y45864D01*
X233273Y46847D01*
X233418Y47835D01*
X233538Y48826D01*
X233630Y49820D01*
X233697Y50816D01*
X233737Y51814D01*
X233750Y52812D01*
X254750Y2500D02*
Y17500D01*
X215750Y2500D02*
X254750D01*
X215750D02*
Y17500D01*
X254750D01*
X177161Y2500D02*
X173750D01*
X177161Y5911D01*
Y6764D01*
X176308Y7616D01*
X174603D01*
X173750Y6764D01*
X178867D02*
X179719Y7616D01*
X181425D01*
X182277Y6764D01*
Y3353D01*
X181425Y2500D01*
X179719D01*
X178867Y3353D01*
Y6764D01*
X187394Y2500D02*
X183983D01*
X187394Y5911D01*
Y6764D01*
X186541Y7616D01*
X184836D01*
X183983Y6764D01*
X191658Y2500D02*
Y7616D01*
X189099Y5058D01*
X192510D01*
X194216Y6764D02*
X195069Y7616D01*
X196774D01*
X197627Y6764D01*
Y3353D01*
X196774Y2500D01*
X195069D01*
X194216Y3353D01*
Y6764D01*
X202743Y7616D02*
X201038Y6764D01*
X199332Y5058D01*
Y3353D01*
X200185Y2500D01*
X201890D01*
X202743Y3353D01*
Y4205D01*
X201890Y5058D01*
X199332D01*
X204449Y6764D02*
X205301Y7616D01*
X207007D01*
X207860Y6764D01*
Y5911D01*
X207007Y5058D01*
X206154D01*
X207007D01*
X207860Y4205D01*
Y3353D01*
X207007Y2500D01*
X205301D01*
X204449Y3353D01*
X209565Y6764D02*
X210418Y7616D01*
X212123D01*
X212976Y6764D01*
Y3353D01*
X212123Y2500D01*
X210418D01*
X209565Y3353D01*
Y6764D01*
D11*
X328746Y32500D02*
X329387Y31724D01*
X330052Y30968D01*
X330741Y30234D01*
X331452Y29522D01*
X332186Y28833D01*
X332940Y28167D01*
X333716Y27525D01*
X334510Y26907D01*
X335325Y26315D01*
X336157Y25749D01*
X337006Y25209D01*
X337873Y24697D01*
X338754Y24211D01*
X339651Y23754D01*
X340562Y23325D01*
X341485Y22925D01*
X342421Y22554D01*
X343368Y22213D01*
X344325Y21902D01*
X345292Y21621D01*
X346267Y21370D01*
X347249Y21151D01*
X348237Y20962D01*
X349232Y20804D01*
X350230Y20678D01*
X351232Y20583D01*
X352237Y20520D01*
X353243Y20488D01*
X354249D01*
X355255Y20520D01*
X356260Y20583D01*
X357262Y20678D01*
X358261Y20804D01*
X359255Y20962D01*
X360243Y21151D01*
X361226Y21370D01*
X362201Y21621D01*
X363167Y21902D01*
X364124Y22213D01*
X365071Y22554D01*
X366007Y22925D01*
X366931Y23325D01*
X367841Y23754D01*
X368738Y24211D01*
X369620Y24697D01*
X370486Y25209D01*
X371335Y25749D01*
X372168Y26315D01*
X372982Y26907D01*
X373777Y27525D01*
X374552Y28166D01*
X375307Y28833D01*
X376040Y29522D01*
X376751Y30234D01*
X377440Y30968D01*
X378105Y31724D01*
X378746Y32500D01*
X249996Y32500D02*
X250637Y31724D01*
X251302Y30968D01*
X251991Y30234D01*
X252702Y29522D01*
X253436Y28833D01*
X254190Y28167D01*
X254965Y27525D01*
X255761Y26907D01*
X256575Y26315D01*
X257407Y25749D01*
X258256Y25209D01*
X259122Y24697D01*
X260004Y24211D01*
X260901Y23754D01*
X261812Y23325D01*
X262735Y22925D01*
X263671Y22554D01*
X264618Y22213D01*
X265575Y21902D01*
X266542Y21621D01*
X267517Y21370D01*
X268499Y21151D01*
X269488Y20962D01*
X270482Y20804D01*
X271480Y20678D01*
X272482Y20583D01*
X273487Y20520D01*
X274493Y20488D01*
X275499D01*
X276505Y20520D01*
X277510Y20583D01*
X278512Y20678D01*
X279511Y20804D01*
X280505Y20962D01*
X281493Y21151D01*
X282476Y21370D01*
X283451Y21621D01*
X284417Y21902D01*
X285374Y22213D01*
X286321Y22554D01*
X287257Y22925D01*
X288181Y23325D01*
X289091Y23754D01*
X289988Y24211D01*
X290870Y24697D01*
X291736Y25209D01*
X292585Y25749D01*
X293418Y26315D01*
X294232Y26907D01*
X295027Y27525D01*
X295802Y28166D01*
X296557Y28833D01*
X297290Y29522D01*
X298001Y30234D01*
X298690Y30968D01*
X299355Y31724D01*
X299996Y32500D01*
X92496Y32500D02*
X93137Y31724D01*
X93802Y30968D01*
X94491Y30234D01*
X95202Y29522D01*
X95936Y28833D01*
X96690Y28167D01*
X97465Y27525D01*
X98260Y26907D01*
X99075Y26315D01*
X99907Y25749D01*
X100756Y25209D01*
X101622Y24697D01*
X102504Y24211D01*
X103401Y23754D01*
X104312Y23325D01*
X105235Y22925D01*
X106171Y22554D01*
X107118Y22213D01*
X108075Y21902D01*
X109042Y21621D01*
X110017Y21370D01*
X110999Y21151D01*
X111987Y20962D01*
X112982Y20804D01*
X113980Y20678D01*
X114982Y20583D01*
X115987Y20520D01*
X116993Y20488D01*
X117999D01*
X119005Y20520D01*
X120010Y20583D01*
X121012Y20678D01*
X122011Y20804D01*
X123005Y20962D01*
X123993Y21151D01*
X124976Y21370D01*
X125951Y21621D01*
X126917Y21902D01*
X127874Y22213D01*
X128821Y22554D01*
X129757Y22925D01*
X130681Y23325D01*
X131591Y23754D01*
X132488Y24211D01*
X133370Y24697D01*
X134236Y25209D01*
X135085Y25749D01*
X135918Y26315D01*
X136732Y26907D01*
X137527Y27525D01*
X138302Y28166D01*
X139057Y28833D01*
X139790Y29522D01*
X140501Y30234D01*
X141190Y30968D01*
X141855Y31724D01*
X142496Y32500D01*
X13746Y32500D02*
X14387Y31724D01*
X15052Y30968D01*
X15741Y30234D01*
X16452Y29522D01*
X17186Y28833D01*
X17940Y28167D01*
X18715Y27525D01*
X19511Y26907D01*
X20324Y26315D01*
X21157Y25749D01*
X22006Y25209D01*
X22873Y24697D01*
X23754Y24211D01*
X24651Y23754D01*
X25562Y23325D01*
X26485Y22925D01*
X27421Y22554D01*
X28368Y22213D01*
X29325Y21902D01*
X30292Y21621D01*
X31267Y21370D01*
X32249Y21151D01*
X33237Y20962D01*
X34232Y20804D01*
X35230Y20678D01*
X36232Y20583D01*
X37237Y20520D01*
X38243Y20488D01*
X39249D01*
X40255Y20520D01*
X41260Y20583D01*
X42262Y20678D01*
X43261Y20804D01*
X44255Y20962D01*
X45243Y21151D01*
X46226Y21370D01*
X47201Y21621D01*
X48167Y21902D01*
X49124Y22213D01*
X50071Y22554D01*
X51007Y22925D01*
X51931Y23325D01*
X52841Y23754D01*
X53738Y24211D01*
X54620Y24697D01*
X55486Y25209D01*
X56336Y25749D01*
X57168Y26315D01*
X57982Y26907D01*
X58777Y27525D01*
X59552Y28166D01*
X60307Y28833D01*
X61040Y29522D01*
X61751Y30234D01*
X62440Y30968D01*
X63105Y31724D01*
X63746Y32500D01*
X173750Y32812D02*
X174424Y32079D01*
X175123Y31367D01*
X175844Y30680D01*
X176588Y30017D01*
X177353Y29379D01*
X178139Y28766D01*
X178945Y28180D01*
X179770Y27620D01*
X180612Y27089D01*
X181472Y26585D01*
X182349Y26110D01*
X183240Y25665D01*
X184146Y25249D01*
X185064Y24864D01*
X185996Y24509D01*
X186938Y24185D01*
X187891Y23892D01*
X188852Y23632D01*
X189822Y23403D01*
X190799Y23206D01*
X191782Y23042D01*
X192770Y22910D01*
X193762Y22812D01*
X194756Y22746D01*
X195752Y22713D01*
X196748D01*
X197744Y22746D01*
X198739Y22812D01*
X199730Y22910D01*
X200718Y23042D01*
X201701Y23206D01*
X202678Y23403D01*
X203648Y23632D01*
X204609Y23892D01*
X205562Y24185D01*
X206504Y24509D01*
X207436Y24864D01*
X208354Y25249D01*
X209260Y25665D01*
X210152Y26111D01*
X211028Y26585D01*
X211888Y27089D01*
X212731Y27620D01*
X213555Y28180D01*
X214361Y28766D01*
X215147Y29379D01*
X215912Y30017D01*
X216656Y30680D01*
X217377Y31367D01*
X218075Y32078D01*
X218750Y32812D01*
D12*
X251250Y6000D02*
Y14000D01*
X243250Y6000D02*
Y14000D01*
X231250Y6000D02*
X238750D01*
X231250Y14000D02*
X238750D01*
X219250Y6000D02*
X226750D01*
X219250D02*
Y14000D01*
D13*
X247250Y10000D02*
Y13500D01*
X231250Y10000D02*
X235250D01*
D14*
X318750Y8000D02*
Y22000D01*
Y8000D02*
X326250D01*
Y22000D01*
X318750D02*
X326250D01*
X73750Y8000D02*
Y22000D01*
Y8000D02*
X81250D01*
Y22000D01*
X73750D02*
X81250D01*
X303750D02*
X311250D01*
Y8000D02*
Y22000D01*
X303750Y8000D02*
X311250D01*
X303750D02*
Y22000D01*
X160000D02*
X167500D01*
Y8000D02*
Y22000D01*
X160000Y8000D02*
X167500D01*
X160000D02*
Y22000D01*
X145000Y8000D02*
Y22000D01*
Y8000D02*
X152500D01*
Y22000D01*
X145000D02*
X152500D01*
D15*
X320000Y80000D02*
Y82999D01*
X321999Y80000D01*
Y82999D01*
X324998D02*
X322999D01*
Y81499D01*
X323999Y81999D01*
X324499D01*
X324998Y81499D01*
Y80500D01*
X324499Y80000D01*
X323499D01*
X322999Y80500D01*
X240000Y80000D02*
Y82999D01*
X241999Y80000D01*
Y82999D01*
X244498Y80000D02*
Y82999D01*
X242999Y81499D01*
X244998D01*
X161250Y80000D02*
Y82999D01*
X163249Y80000D01*
Y82999D01*
X164249Y82499D02*
X164749Y82999D01*
X165749D01*
X166248Y82499D01*
Y81999D01*
X165749Y81499D01*
X165249D01*
X165749D01*
X166248Y81000D01*
Y80500D01*
X165749Y80000D01*
X164749D01*
X164249Y80500D01*
X82500Y80000D02*
Y82999D01*
X84499Y80000D01*
Y82999D01*
X87498Y80000D02*
X85499D01*
X87498Y81999D01*
Y82499D01*
X86999Y82999D01*
X85999D01*
X85499Y82499D01*
X6250Y80000D02*
Y82999D01*
X8249Y80000D01*
Y82999D01*
X9249Y80000D02*
X10249D01*
X9749D01*
Y82999D01*
X9249Y82499D01*
X67500Y13750D02*
Y16749D01*
X68999D01*
X69499Y16249D01*
Y15249D01*
X68999Y14750D01*
X67500D01*
X68500D02*
X69499Y13750D01*
X70499D02*
X71499D01*
X70999D01*
Y16749D01*
X70499Y16249D01*
X137500Y13750D02*
Y16749D01*
X138999D01*
X139499Y16249D01*
Y15249D01*
X138999Y14750D01*
X137500D01*
X138500D02*
X139499Y13750D01*
X142498D02*
X140499D01*
X142498Y15749D01*
Y16249D01*
X141999Y16749D01*
X140999D01*
X140499Y16249D01*
X170000Y13750D02*
Y16749D01*
X171500D01*
X171999Y16249D01*
Y15249D01*
X171500Y14750D01*
X170000D01*
X171000D02*
X171999Y13750D01*
X172999Y16249D02*
X173499Y16749D01*
X174499D01*
X174998Y16249D01*
Y15749D01*
X174499Y15249D01*
X173999D01*
X174499D01*
X174998Y14750D01*
Y14250D01*
X174499Y13750D01*
X173499D01*
X172999Y14250D01*
X296250Y13750D02*
Y16749D01*
X297749D01*
X298249Y16249D01*
Y15249D01*
X297749Y14750D01*
X296250D01*
X297250D02*
X298249Y13750D01*
X300748D02*
Y16749D01*
X299249Y15249D01*
X301248D01*
X328750Y13750D02*
Y16749D01*
X330250D01*
X330749Y16249D01*
Y15249D01*
X330250Y14750D01*
X328750D01*
X329750D02*
X330749Y13750D01*
X333748Y16749D02*
X331749D01*
Y15249D01*
X332749Y15749D01*
X333248D01*
X333748Y15249D01*
Y14250D01*
X333248Y13750D01*
X332249D01*
X331749Y14250D01*
M02*
