G04*
G04 #@! TF.GenerationSoftware,Altium Limited,Altium Designer,20.0.2 (26)*
G04*
G04 Layer_Color=65535*
%FSLAX24Y24*%
%MOIN*%
G70*
G01*
G75*
%ADD10C,0.0138*%
%ADD11C,0.0080*%
%ADD12C,0.0070*%
%ADD13C,0.0050*%
%ADD14C,0.0079*%
%ADD15C,0.0100*%
%ADD16C,0.0300*%
%ADD17C,0.0225*%
%ADD18R,0.0197X0.1575*%
D10*
X33254Y6875D02*
X33199Y6950D01*
X33111Y6921D01*
Y6829D01*
X33199Y6800D01*
X33254Y6875D01*
D11*
X10284Y5359D02*
X10304Y5261D01*
X10327Y5165D01*
X10356Y5069D01*
X10388Y4975D01*
X10424Y4882D01*
X10465Y4791D01*
X10509Y4701D01*
X10558Y4614D01*
X10610Y4529D01*
X10666Y4447D01*
X10725Y4367D01*
X10788Y4289D01*
X10855Y4215D01*
X10925Y4144D01*
X10997Y4075D01*
X11073Y4010D01*
X11151Y3949D01*
X11233Y3891D01*
X11316Y3837D01*
X11402Y3786D01*
X11490Y3739D01*
X11580Y3697D01*
X11672Y3658D01*
X11766Y3623D01*
X11861Y3593D01*
X11957Y3567D01*
X12054Y3545D01*
X12152Y3527D01*
X12251Y3514D01*
X12351Y3505D01*
X12450Y3501D01*
X12550Y3501D01*
X12649Y3505D01*
X12749Y3514D01*
X12848Y3527D01*
X12946Y3545D01*
X13043Y3567D01*
X13139Y3593D01*
X13234Y3623D01*
X13328Y3658D01*
X13420Y3697D01*
X13510Y3739D01*
X13598Y3786D01*
X13684Y3837D01*
X13767Y3891D01*
X13849Y3949D01*
X13927Y4010D01*
X14003Y4075D01*
X14075Y4144D01*
X14145Y4215D01*
X14212Y4289D01*
X14275Y4367D01*
X14334Y4447D01*
X14390Y4529D01*
X14442Y4614D01*
X14491Y4701D01*
X14535Y4791D01*
X14576Y4882D01*
X14612Y4975D01*
X14644Y5069D01*
X14673Y5165D01*
X14696Y5261D01*
X14716Y5359D01*
X14716Y6141D02*
X14696Y6241D01*
X14671Y6340D01*
X14642Y6437D01*
X14609Y6534D01*
X14572Y6628D01*
X14530Y6721D01*
X14484Y6812D01*
X14433Y6901D01*
X14379Y6987D01*
X14321Y7071D01*
X14260Y7152D01*
X14194Y7230D01*
X14126Y7305D01*
X14054Y7378D01*
X13978Y7446D01*
X13900Y7511D01*
X13819Y7573D01*
X13735Y7631D01*
X13649Y7685D01*
X13560Y7735D01*
X13469Y7781D01*
X13376Y7823D01*
X13281Y7860D01*
X13185Y7893D01*
X13087Y7922D01*
X12988Y7946D01*
X10250Y5750D02*
X10240Y5851D01*
X10209Y5947D01*
X10160Y6036D01*
X10094Y6112D01*
X10014Y6174D01*
X9924Y6219D01*
X9826Y6244D01*
X9725Y6249D01*
X9625Y6234D01*
X9530Y6199D01*
X9444Y6145D01*
X9371Y6076D01*
X9313Y5993D01*
X9273Y5900D01*
X9253Y5801D01*
Y5699D01*
X9273Y5600D01*
X9313Y5507D01*
X9371Y5424D01*
X9444Y5355D01*
X9530Y5301D01*
X9625Y5266D01*
X9725Y5251D01*
X9826Y5256D01*
X9924Y5281D01*
X10014Y5326D01*
X10094Y5388D01*
X10160Y5464D01*
X10209Y5553D01*
X10240Y5649D01*
X10250Y5750D01*
X15750D02*
X15740Y5851D01*
X15709Y5947D01*
X15660Y6036D01*
X15594Y6112D01*
X15514Y6174D01*
X15424Y6219D01*
X15326Y6244D01*
X15225Y6249D01*
X15125Y6234D01*
X15030Y6199D01*
X14944Y6145D01*
X14871Y6076D01*
X14813Y5993D01*
X14773Y5900D01*
X14753Y5801D01*
Y5699D01*
X14773Y5600D01*
X14813Y5507D01*
X14871Y5424D01*
X14944Y5355D01*
X15030Y5301D01*
X15125Y5266D01*
X15225Y5251D01*
X15326Y5256D01*
X15424Y5281D01*
X15514Y5326D01*
X15594Y5388D01*
X15660Y5464D01*
X15709Y5553D01*
X15740Y5649D01*
X15750Y5750D01*
X12012Y7946D02*
X11913Y7922D01*
X11815Y7893D01*
X11719Y7860D01*
X11624Y7823D01*
X11531Y7781D01*
X11440Y7735D01*
X11351Y7685D01*
X11265Y7631D01*
X11181Y7573D01*
X11100Y7511D01*
X11022Y7446D01*
X10946Y7377D01*
X10874Y7305D01*
X10806Y7230D01*
X10740Y7152D01*
X10679Y7071D01*
X10621Y6987D01*
X10567Y6901D01*
X10516Y6812D01*
X10470Y6721D01*
X10428Y6628D01*
X10391Y6534D01*
X10358Y6437D01*
X10329Y6340D01*
X10304Y6241D01*
X10284Y6141D01*
X18577Y5588D02*
Y7162D01*
X21923Y5588D02*
Y7162D01*
X21726D02*
X21923D01*
X21726Y5588D02*
Y7162D01*
Y5588D02*
X21923D01*
X19561D02*
X20939D01*
X19561Y7162D02*
X20939D01*
X18577D02*
X18774D01*
X18577Y5588D02*
X18774D01*
D12*
X25721Y621D02*
X25765Y532D01*
X25818Y447D01*
X25879Y368D01*
X25947Y296D01*
X26023Y231D01*
X26105Y174D01*
X26192Y126D01*
X26283Y87D01*
X26378Y57D01*
X26476Y37D01*
X26575Y27D01*
X26675D01*
X26774Y37D01*
X26872Y57D01*
X26967Y87D01*
X27058Y126D01*
X27145Y174D01*
X27227Y231D01*
X27303Y296D01*
X27371Y368D01*
X27432Y447D01*
X27485Y532D01*
X27529Y621D01*
X38000Y9250D02*
X39375D01*
X38000D02*
Y10625D01*
Y0D02*
Y1375D01*
X39375D01*
X1375Y0D02*
Y1375D01*
X0D02*
X1375D01*
X0Y9250D02*
X1375D01*
Y10625D01*
X2500Y9500D02*
Y10500D01*
X1500Y9500D02*
Y10500D01*
Y9500D02*
X31502D01*
X1500Y10500D02*
X31502D01*
Y9500D02*
Y10501D01*
X33925Y11875D02*
X34175Y12125D01*
X33675D02*
X33925Y11875D01*
X33675Y12125D02*
Y12625D01*
X34175Y12125D02*
Y12625D01*
X37525Y7125D02*
Y8375D01*
X36425Y7125D02*
X37525D01*
X32325D02*
X33425D01*
X32325D02*
Y8375D01*
X37525Y10625D02*
Y12725D01*
X32325Y10625D02*
Y12725D01*
X37525D01*
X3250Y1750D02*
X4313D01*
Y8750D01*
X125Y8250D02*
X375Y8500D01*
X125Y8250D02*
X375Y8000D01*
X125Y7250D02*
X375Y7500D01*
X125Y7250D02*
X375Y7000D01*
Y6500D02*
X3250D01*
X125Y6250D02*
X375Y6500D01*
Y5500D02*
X3250D01*
X125Y5250D02*
X375Y5500D01*
X125Y5250D02*
X375Y5000D01*
Y4000D02*
X3250D01*
X375Y4500D02*
X3250D01*
X125Y4250D02*
X375Y4500D01*
X125Y4250D02*
X375Y4000D01*
Y3000D02*
X3250D01*
X375Y3500D02*
X3250D01*
X125Y3250D02*
X375Y3500D01*
X125Y3250D02*
X375Y3000D01*
X125Y2250D02*
X375Y2000D01*
X125Y2250D02*
X375Y2500D01*
Y2000D02*
X3250D01*
X4313Y8000D02*
X4750D01*
Y8500D01*
X4313D02*
X4750D01*
X3250Y8750D02*
X4313D01*
X3250Y1750D02*
Y8750D01*
X4313Y7500D02*
X4750D01*
Y7000D02*
Y7500D01*
X4313Y7000D02*
X4750D01*
X4313Y6500D02*
X4750D01*
Y6000D02*
Y6500D01*
X4313Y6000D02*
X4750D01*
X4313Y5500D02*
X4750D01*
Y5000D02*
Y5500D01*
X4313Y5000D02*
X4750D01*
X4313Y4500D02*
X4750D01*
Y4000D02*
Y4500D01*
X4313Y4000D02*
X4750D01*
X4313Y3500D02*
X4750D01*
Y3000D02*
Y3500D01*
X4313Y3000D02*
X4750D01*
X4313Y2500D02*
X4750D01*
Y2000D02*
Y2500D01*
X4313Y2000D02*
X4750D01*
X375Y2500D02*
X3250D01*
X375Y5000D02*
X3250D01*
X125Y6250D02*
X375Y6000D01*
X3250D01*
X375Y7500D02*
X3250D01*
X375Y7000D02*
X3250D01*
X375Y8000D02*
X3250D01*
X375Y8500D02*
X3250D01*
X17625Y750D02*
Y1250D01*
Y750D02*
X19625D01*
Y1250D01*
X17625D02*
X19625D01*
X25444Y2235D02*
X27806D01*
Y2125D02*
Y2235D01*
X25444Y621D02*
X27806D01*
X25444Y2125D02*
Y2235D01*
Y621D02*
Y1125D01*
X27806Y621D02*
Y1125D01*
X26745Y3505D02*
Y7245D01*
X23005Y3505D02*
X26745D01*
X23005D02*
Y7048D01*
X23202Y7245D01*
X26745D01*
X33541Y3201D02*
X34959D01*
Y5799D01*
X33541D02*
X34959D01*
X33541Y3201D02*
Y5799D01*
X15675Y7400D02*
Y8100D01*
X16925D01*
Y7400D02*
Y8100D01*
X15675Y7400D02*
X16925D01*
X19625Y7525D02*
X20875D01*
Y8225D01*
X19625D02*
X20875D01*
X19625Y7525D02*
Y8225D01*
Y4525D02*
X20875D01*
Y5225D01*
X19625D02*
X20875D01*
X19625Y4525D02*
Y5225D01*
X32936Y2064D02*
X36282D01*
Y686D02*
Y2064D01*
X32936Y686D02*
X36282D01*
X32936D02*
Y2064D01*
X34216Y686D02*
Y2064D01*
X38564Y2702D02*
Y6048D01*
X37186Y2702D02*
X38564D01*
X37186D02*
Y6048D01*
X38564D01*
X37186Y4769D02*
X38564D01*
X32750Y5675D02*
Y5425D01*
X32800Y5375D01*
X32900D01*
X32950Y5425D01*
Y5675D01*
X33050Y5625D02*
X33100Y5675D01*
X33200D01*
X33250Y5625D01*
Y5575D01*
X33200Y5525D01*
X33150D01*
X33200D01*
X33250Y5475D01*
Y5425D01*
X33200Y5375D01*
X33100D01*
X33050Y5425D01*
X24625Y1800D02*
Y1550D01*
X24675Y1500D01*
X24775D01*
X24825Y1550D01*
Y1800D01*
X25125Y1500D02*
X24925D01*
X25125Y1700D01*
Y1750D01*
X25075Y1800D01*
X24975D01*
X24925Y1750D01*
X22125Y7675D02*
Y7425D01*
X22175Y7375D01*
X22275D01*
X22325Y7425D01*
Y7675D01*
X22425Y7375D02*
X22525D01*
X22475D01*
Y7675D01*
X22425Y7625D01*
X16625Y875D02*
Y1175D01*
X16775D01*
X16825Y1125D01*
Y1025D01*
X16775Y975D01*
X16625D01*
X16725D02*
X16825Y875D01*
X16925Y1125D02*
X16975Y1175D01*
X17075D01*
X17125Y1125D01*
Y1075D01*
X17075Y1025D01*
X17025D01*
X17075D01*
X17125Y975D01*
Y925D01*
X17075Y875D01*
X16975D01*
X16925Y925D01*
X17425Y875D02*
X17225D01*
X17425Y1075D01*
Y1125D01*
X17375Y1175D01*
X17275D01*
X17225Y1125D01*
X17500Y2500D02*
Y2800D01*
X17650D01*
X17700Y2750D01*
Y2650D01*
X17650Y2600D01*
X17500D01*
X17600D02*
X17700Y2500D01*
X17800Y2750D02*
X17850Y2800D01*
X17950D01*
X18000Y2750D01*
Y2700D01*
X17950Y2650D01*
X17900D01*
X17950D01*
X18000Y2600D01*
Y2550D01*
X17950Y2500D01*
X17850D01*
X17800Y2550D01*
X18100Y2500D02*
X18200D01*
X18150D01*
Y2800D01*
X18100Y2750D01*
X17375Y3750D02*
Y4050D01*
X17525D01*
X17575Y4000D01*
Y3900D01*
X17525Y3850D01*
X17375D01*
X17475D02*
X17575Y3750D01*
X17675Y4000D02*
X17725Y4050D01*
X17825D01*
X17875Y4000D01*
Y3950D01*
X17825Y3900D01*
X17775D01*
X17825D01*
X17875Y3850D01*
Y3800D01*
X17825Y3750D01*
X17725D01*
X17675Y3800D01*
X17975Y4000D02*
X18025Y4050D01*
X18125D01*
X18175Y4000D01*
Y3800D01*
X18125Y3750D01*
X18025D01*
X17975Y3800D01*
Y4000D01*
X18200Y6425D02*
Y6625D01*
X18150Y6675D01*
X18050D01*
X18000Y6625D01*
Y6425D01*
X18050Y6375D01*
X18150D01*
X18100Y6475D02*
X18200Y6375D01*
X18150D02*
X18200Y6425D01*
X18300Y6375D02*
X18400D01*
X18350D01*
Y6675D01*
X18300Y6625D01*
X38075Y7675D02*
X37975D01*
X38025D01*
Y7425D01*
X37975Y7375D01*
X37925D01*
X37875Y7425D01*
X38175Y7625D02*
X38225Y7675D01*
X38325D01*
X38375Y7625D01*
Y7575D01*
X38325Y7525D01*
X38275D01*
X38325D01*
X38375Y7475D01*
Y7425D01*
X38325Y7375D01*
X38225D01*
X38175Y7425D01*
X3700Y1550D02*
X3600D01*
X3650D01*
Y1300D01*
X3600Y1250D01*
X3550D01*
X3500Y1300D01*
X4000Y1250D02*
X3800D01*
X4000Y1450D01*
Y1500D01*
X3950Y1550D01*
X3850D01*
X3800Y1500D01*
X37700Y2500D02*
X37650Y2550D01*
X37550D01*
X37500Y2500D01*
Y2300D01*
X37550Y2250D01*
X37650D01*
X37700Y2300D01*
X37800Y2250D02*
X37900D01*
X37850D01*
Y2550D01*
X37800Y2500D01*
X38050Y2550D02*
X38250D01*
Y2500D01*
X38050Y2300D01*
Y2250D01*
X36450Y3625D02*
X36400Y3675D01*
X36300D01*
X36250Y3625D01*
Y3425D01*
X36300Y3375D01*
X36400D01*
X36450Y3425D01*
X36550Y3375D02*
X36650D01*
X36600D01*
Y3675D01*
X36550Y3625D01*
X37000Y3675D02*
X36900Y3625D01*
X36800Y3525D01*
Y3425D01*
X36850Y3375D01*
X36950D01*
X37000Y3425D01*
Y3475D01*
X36950Y3525D01*
X36800D01*
X33825Y2875D02*
X33775Y2925D01*
X33675D01*
X33625Y2875D01*
Y2675D01*
X33675Y2625D01*
X33775D01*
X33825Y2675D01*
X33925Y2625D02*
X34025D01*
X33975D01*
Y2925D01*
X33925Y2875D01*
X34375Y2925D02*
X34175D01*
Y2775D01*
X34275Y2825D01*
X34325D01*
X34375Y2775D01*
Y2675D01*
X34325Y2625D01*
X34225D01*
X34175Y2675D01*
X36700Y1500D02*
X36650Y1550D01*
X36550D01*
X36500Y1500D01*
Y1300D01*
X36550Y1250D01*
X36650D01*
X36700Y1300D01*
X36800Y1250D02*
X36900D01*
X36850D01*
Y1550D01*
X36800Y1500D01*
X37200Y1250D02*
Y1550D01*
X37050Y1400D01*
X37250D01*
X28575Y6800D02*
X28525Y6850D01*
X28425D01*
X28375Y6800D01*
Y6600D01*
X28425Y6550D01*
X28525D01*
X28575Y6600D01*
X28675D02*
X28725Y6550D01*
X28825D01*
X28875Y6600D01*
Y6800D01*
X28825Y6850D01*
X28725D01*
X28675Y6800D01*
Y6750D01*
X28725Y6700D01*
X28875D01*
X27606Y2750D02*
X27556Y2800D01*
X27456D01*
X27406Y2750D01*
Y2550D01*
X27456Y2500D01*
X27556D01*
X27606Y2550D01*
X27706Y2750D02*
X27756Y2800D01*
X27856D01*
X27906Y2750D01*
Y2700D01*
X27856Y2650D01*
X27906Y2600D01*
Y2550D01*
X27856Y2500D01*
X27756D01*
X27706Y2550D01*
Y2600D01*
X27756Y2650D01*
X27706Y2700D01*
Y2750D01*
X27756Y2650D02*
X27856D01*
X22450Y2375D02*
X22400Y2425D01*
X22300D01*
X22250Y2375D01*
Y2175D01*
X22300Y2125D01*
X22400D01*
X22450Y2175D01*
X22550Y2425D02*
X22750D01*
Y2375D01*
X22550Y2175D01*
Y2125D01*
X22680Y8500D02*
X22630Y8550D01*
X22530D01*
X22480Y8500D01*
Y8300D01*
X22530Y8250D01*
X22630D01*
X22680Y8300D01*
X22980Y8550D02*
X22880Y8500D01*
X22780Y8400D01*
Y8300D01*
X22830Y8250D01*
X22930D01*
X22980Y8300D01*
Y8350D01*
X22930Y8400D01*
X22780D01*
X21075Y4125D02*
X21025Y4175D01*
X20925D01*
X20875Y4125D01*
Y3925D01*
X20925Y3875D01*
X21025D01*
X21075Y3925D01*
X21325Y3875D02*
Y4175D01*
X21175Y4025D01*
X21375D01*
X19075Y5000D02*
X19025Y5050D01*
X18925D01*
X18875Y5000D01*
Y4800D01*
X18925Y4750D01*
X19025D01*
X19075Y4800D01*
X19175Y5000D02*
X19225Y5050D01*
X19325D01*
X19375Y5000D01*
Y4950D01*
X19325Y4900D01*
X19275D01*
X19325D01*
X19375Y4850D01*
Y4800D01*
X19325Y4750D01*
X19225D01*
X19175Y4800D01*
X19200Y8000D02*
X19150Y8050D01*
X19050D01*
X19000Y8000D01*
Y7800D01*
X19050Y7750D01*
X19150D01*
X19200Y7800D01*
X19500Y7750D02*
X19300D01*
X19500Y7950D01*
Y8000D01*
X19450Y8050D01*
X19350D01*
X19300Y8000D01*
X17250Y7875D02*
X17200Y7925D01*
X17100D01*
X17050Y7875D01*
Y7675D01*
X17100Y7625D01*
X17200D01*
X17250Y7675D01*
X17350Y7625D02*
X17450D01*
X17400D01*
Y7925D01*
X17350Y7875D01*
X15625Y3925D02*
Y3625D01*
X15775D01*
X15825Y3675D01*
Y3725D01*
X15775Y3775D01*
X15625D01*
X15775D01*
X15825Y3825D01*
Y3875D01*
X15775Y3925D01*
X15625D01*
X15925Y3625D02*
Y3825D01*
X16025Y3925D01*
X16125Y3825D01*
Y3625D01*
Y3775D01*
X15925D01*
X16225Y3925D02*
X16425D01*
X16325D01*
Y3625D01*
X16525D02*
X16625D01*
X16575D01*
Y3925D01*
X16525Y3875D01*
X15625Y3125D02*
X15725D01*
X15675D01*
Y3425D01*
X15625Y3375D01*
X16075Y3125D02*
X15875D01*
X16075Y3325D01*
Y3375D01*
X16025Y3425D01*
X15925D01*
X15875Y3375D01*
X16375Y3125D02*
X16175D01*
X16375Y3325D01*
Y3375D01*
X16325Y3425D01*
X16225D01*
X16175Y3375D01*
X16675Y3425D02*
X16475D01*
Y3275D01*
X16575Y3325D01*
X16625D01*
X16675Y3275D01*
Y3175D01*
X16625Y3125D01*
X16525D01*
X16475Y3175D01*
D13*
X23064Y7344D02*
X23034Y7436D01*
X22955Y7493D01*
X22858D01*
X22779Y7436D01*
X22749Y7344D01*
X22779Y7251D01*
X22858Y7194D01*
X22955D01*
X23034Y7251D01*
X23064Y7344D01*
D14*
X26106Y2237D02*
X27206D01*
X26106D02*
Y2763D01*
X27206D01*
Y2237D02*
Y2763D01*
X24250Y8112D02*
Y8637D01*
X23150D02*
X24250D01*
X23150Y8112D02*
Y8637D01*
Y8112D02*
X24250D01*
X18362Y3450D02*
Y4550D01*
X18887D01*
Y3450D02*
Y4550D01*
X18362Y3450D02*
X18887D01*
Y2075D02*
Y3175D01*
X18362Y2075D02*
X18887D01*
X18362D02*
Y3175D01*
X18887D01*
X35675Y2488D02*
Y3013D01*
X34575D02*
X35675D01*
X34575Y2488D02*
Y3013D01*
Y2488D02*
X35675D01*
X36237Y3950D02*
X36762D01*
Y5050D01*
X36237D02*
X36762D01*
X36237Y3950D02*
Y5050D01*
X21613Y4745D02*
X22137D01*
X21613Y3645D02*
Y4745D01*
Y3645D02*
X22137D01*
Y4745D01*
X27613Y7100D02*
X28138D01*
X27613Y6000D02*
Y7100D01*
Y6000D02*
X28138D01*
Y7100D01*
X22940Y1988D02*
Y2512D01*
Y1988D02*
X24040D01*
Y2512D01*
X22940D02*
X24040D01*
D15*
X8675Y2625D02*
X12575D01*
X8675Y1125D02*
Y2625D01*
Y1125D02*
X12575D01*
Y2625D01*
X9500Y5750D02*
X10000D01*
X15000D02*
X15500D01*
X15250Y5500D02*
Y6000D01*
X8500Y6875D02*
Y7250D01*
Y4250D02*
Y4625D01*
X16500Y6875D02*
Y7250D01*
Y4250D02*
Y4625D01*
X10500Y8250D02*
X12000D01*
X9500Y7250D02*
X10500Y8250D01*
X14500D02*
X15500Y7250D01*
X14500Y3250D02*
X15500Y4250D01*
X8500Y7250D02*
X9500D01*
X8500Y4250D02*
X9500D01*
X15500Y7250D02*
X16500D01*
X15500Y4250D02*
X16500D01*
X9750Y4000D02*
X10500Y3250D01*
X9500Y4250D02*
X9750Y4000D01*
X13000Y3250D02*
X14500D01*
X13000D02*
Y3500D01*
X10500Y3250D02*
X12000D01*
Y3500D01*
X13000Y7750D02*
Y8250D01*
X12000Y7750D02*
X13000D01*
X12000D02*
Y8250D01*
X13000D02*
X14500D01*
X8500Y4625D02*
X9250D01*
Y5250D01*
X8500Y6875D02*
X9250D01*
Y6250D02*
Y6875D01*
X15750Y4625D02*
X16500D01*
X15750D02*
Y5250D01*
Y6875D02*
X16500D01*
X15750Y6250D02*
Y6875D01*
X12500Y4750D02*
Y6750D01*
X11500Y5750D02*
X13500D01*
X8900Y250D02*
X8500D01*
X8900Y650D01*
Y750D01*
X8800Y850D01*
X8600D01*
X8500Y750D01*
X9100D02*
X9200Y850D01*
X9400D01*
X9500Y750D01*
Y350D01*
X9400Y250D01*
X9200D01*
X9100Y350D01*
Y750D01*
X10099Y250D02*
X9700D01*
X10099Y650D01*
Y750D01*
X10000Y850D01*
X9800D01*
X9700Y750D01*
X10599Y250D02*
Y850D01*
X10299Y550D01*
X10699D01*
X10899Y750D02*
X10999Y850D01*
X11199D01*
X11299Y750D01*
Y350D01*
X11199Y250D01*
X10999D01*
X10899Y350D01*
Y750D01*
X11899Y850D02*
X11699Y750D01*
X11499Y550D01*
Y350D01*
X11599Y250D01*
X11799D01*
X11899Y350D01*
Y450D01*
X11799Y550D01*
X11499D01*
X12099Y750D02*
X12199Y850D01*
X12399D01*
X12499Y750D01*
Y650D01*
X12399Y550D01*
X12299D01*
X12399D01*
X12499Y450D01*
Y350D01*
X12399Y250D01*
X12199D01*
X12099Y350D01*
X12699Y750D02*
X12799Y850D01*
X12999D01*
X13099Y750D01*
Y350D01*
X12999Y250D01*
X12799D01*
X12699Y350D01*
Y750D01*
X30892Y9275D02*
X30758D01*
X30825D01*
Y8942D01*
X30758Y8875D01*
X30692D01*
X30625Y8942D01*
X31025Y8875D02*
X31158D01*
X31092D01*
Y9275D01*
X31025Y9208D01*
D16*
X9025Y1475D02*
Y2275D01*
Y1475D02*
X9775D01*
X10225Y2275D02*
X10975D01*
X10225Y1475D02*
X10975D01*
X11425D02*
Y2275D01*
X12225Y1475D02*
Y2275D01*
D17*
X10225Y1875D02*
X10625D01*
X11825D02*
Y2225D01*
D18*
X21825Y6375D02*
D03*
M02*
