G04*
G04 #@! TF.GenerationSoftware,Altium Limited,Altium Designer,20.0.2 (26)*
G04*
G04 Layer_Physical_Order=2*
G04 Layer_Color=16711680*
%FSLAX24Y24*%
%MOIN*%
G70*
G01*
G75*
%ADD15C,0.0100*%
%ADD42R,0.0310X0.0340*%
%ADD56R,0.0340X0.0310*%
%ADD59C,0.0200*%
%ADD60C,0.0250*%
%ADD61C,0.0150*%
%ADD62O,0.0550X0.0700*%
%ADD63R,0.0550X0.0700*%
%ADD65C,0.0700*%
%ADD66O,0.0600X0.0750*%
%ADD67C,0.0984*%
%ADD68C,0.0200*%
%ADD69C,0.0300*%
%ADD70R,0.0270X0.0600*%
%ADD71R,0.0217X0.0394*%
%ADD72C,0.1000*%
G36*
X38000Y9250D02*
X39250D01*
Y1375D01*
X38000D01*
Y125D01*
X31885D01*
X31866Y171D01*
X31907Y212D01*
X33625D01*
X33687Y224D01*
X33740Y260D01*
X33776Y313D01*
X33788Y375D01*
X33776Y437D01*
X33740Y490D01*
X33687Y526D01*
X33625Y538D01*
X31987D01*
Y1345D01*
X32070D01*
Y2065D01*
X31680D01*
Y1345D01*
X31763D01*
Y492D01*
X31760Y490D01*
X31724Y437D01*
X31720Y414D01*
X31602Y297D01*
X31566Y300D01*
X31533Y348D01*
X31538Y375D01*
X31526Y437D01*
X31490Y490D01*
X31487Y492D01*
Y1345D01*
X31570D01*
Y2065D01*
X31180D01*
Y1345D01*
X31263D01*
Y492D01*
X31260Y490D01*
X31224Y437D01*
X31212Y375D01*
X31221Y328D01*
X31192Y278D01*
X28987D01*
Y770D01*
X29090D01*
Y1230D01*
X28987D01*
Y1345D01*
X29070D01*
Y2065D01*
X28680D01*
Y1345D01*
X28763D01*
Y1230D01*
X28660D01*
Y770D01*
X28763D01*
Y278D01*
X23987D01*
Y1345D01*
X24070D01*
Y2065D01*
X23680D01*
Y1345D01*
X23763D01*
Y278D01*
X23257D01*
X23236Y328D01*
X23454Y546D01*
X23454Y546D01*
X23479Y582D01*
X23487Y625D01*
Y1345D01*
X23570D01*
Y2065D01*
X23180D01*
Y1345D01*
X23263D01*
Y671D01*
X23082Y490D01*
X23032Y494D01*
X23009Y537D01*
X23026Y563D01*
X23038Y625D01*
X23026Y687D01*
X22990Y740D01*
X22987Y742D01*
Y1008D01*
X22990Y1010D01*
X23026Y1063D01*
X23038Y1125D01*
X23026Y1187D01*
X22990Y1240D01*
X22987Y1242D01*
Y1345D01*
X23070D01*
Y2065D01*
X22680D01*
Y1345D01*
X22763D01*
Y1242D01*
X22760Y1240D01*
X22724Y1187D01*
X22712Y1125D01*
X22724Y1063D01*
X22760Y1010D01*
X22763Y1008D01*
Y742D01*
X22760Y740D01*
X22724Y687D01*
X22712Y625D01*
X22724Y563D01*
X22741Y537D01*
X22715Y487D01*
X21992D01*
X21990Y490D01*
X21937Y526D01*
X21875Y538D01*
X21813Y526D01*
X21760Y490D01*
X21724Y437D01*
X21712Y375D01*
X21721Y328D01*
X21692Y278D01*
X20987D01*
Y770D01*
X21090D01*
Y1230D01*
X20987D01*
Y1345D01*
X21070D01*
Y2065D01*
X20680D01*
Y1345D01*
X20763D01*
Y1230D01*
X20660D01*
Y770D01*
X20763D01*
Y278D01*
X19933D01*
X19904Y328D01*
X19913Y375D01*
X19901Y437D01*
X19865Y490D01*
X19862Y492D01*
Y1204D01*
X20121Y1463D01*
X20125Y1462D01*
X20187Y1474D01*
X20240Y1510D01*
X20276Y1563D01*
X20288Y1625D01*
X20276Y1687D01*
X20240Y1740D01*
X20187Y1776D01*
X20125Y1788D01*
X20063Y1776D01*
X20010Y1740D01*
X19974Y1687D01*
X19962Y1625D01*
X19963Y1621D01*
X19671Y1329D01*
X19646Y1293D01*
X19638Y1250D01*
X19638Y1250D01*
Y492D01*
X19635Y490D01*
X19599Y437D01*
X19587Y375D01*
X19596Y328D01*
X19567Y278D01*
X15987D01*
Y1345D01*
X16070D01*
Y2065D01*
X15987D01*
Y2383D01*
X15990Y2385D01*
X16026Y2438D01*
X16038Y2500D01*
X16026Y2562D01*
X15990Y2615D01*
X15937Y2651D01*
X15875Y2663D01*
X15813Y2651D01*
X15760Y2615D01*
X15724Y2562D01*
X15712Y2500D01*
X15724Y2438D01*
X15760Y2385D01*
X15763Y2383D01*
Y2065D01*
X15680D01*
Y1345D01*
X15763D01*
Y278D01*
X15558D01*
X15529Y328D01*
X15538Y375D01*
X15526Y437D01*
X15490Y490D01*
X15487Y492D01*
Y1345D01*
X15570D01*
Y2065D01*
X15180D01*
Y1345D01*
X15263D01*
Y492D01*
X15260Y490D01*
X15224Y437D01*
X15212Y375D01*
X15221Y328D01*
X15192Y278D01*
X12987D01*
Y770D01*
X13090D01*
Y1230D01*
X12987D01*
Y1345D01*
X13070D01*
Y2065D01*
X12680D01*
Y1345D01*
X12763D01*
Y1230D01*
X12660D01*
Y770D01*
X12763D01*
Y278D01*
X7987D01*
Y1345D01*
X8070D01*
Y2065D01*
X7680D01*
Y1345D01*
X7763D01*
Y278D01*
X7558D01*
X7529Y328D01*
X7538Y375D01*
X7526Y437D01*
X7490Y490D01*
X7486Y493D01*
X7487Y500D01*
Y1345D01*
X7570D01*
Y2065D01*
X7180D01*
Y1345D01*
X7263D01*
Y500D01*
X7264Y493D01*
X7260Y490D01*
X7224Y437D01*
X7212Y375D01*
X7221Y328D01*
X7192Y278D01*
X5167D01*
X5018Y426D01*
X5026Y438D01*
X5038Y500D01*
X5026Y562D01*
X5013Y582D01*
Y770D01*
X5090D01*
Y1230D01*
X4987D01*
Y1345D01*
X5070D01*
Y2065D01*
X4680D01*
Y1345D01*
X4763D01*
Y1230D01*
X4660D01*
Y770D01*
X4737D01*
Y582D01*
X4724Y562D01*
X4712Y500D01*
X4724Y438D01*
X4737Y418D01*
Y375D01*
X4748Y322D01*
X4778Y278D01*
X4884Y171D01*
X4865Y125D01*
X1375D01*
Y1375D01*
X125D01*
Y9250D01*
X1375D01*
Y10500D01*
X30697D01*
X30713Y10453D01*
X30691Y10435D01*
X30621Y10344D01*
X30577Y10239D01*
X30562Y10125D01*
Y9875D01*
X30577Y9762D01*
X30621Y9656D01*
X30691Y9565D01*
X30782Y9495D01*
X30887Y9451D01*
X31001Y9436D01*
X31115Y9451D01*
X31220Y9495D01*
X31311Y9565D01*
X31381Y9656D01*
X31394Y9687D01*
X34995D01*
X35621Y9062D01*
X35612Y9000D01*
Y8500D01*
X35623Y8419D01*
X35654Y8344D01*
X35704Y8279D01*
X35769Y8229D01*
X35844Y8198D01*
X35925Y8187D01*
X36006Y8198D01*
X36081Y8229D01*
X36146Y8279D01*
X36196Y8344D01*
X36227Y8419D01*
X36238Y8500D01*
Y9000D01*
X36227Y9081D01*
X36219Y9100D01*
X36227Y9119D01*
X36238Y9200D01*
X36227Y9281D01*
X36196Y9356D01*
X36146Y9421D01*
X35346Y10221D01*
X35281Y10271D01*
X35206Y10302D01*
X35125Y10313D01*
X35125Y10313D01*
X31394D01*
X31381Y10344D01*
X31311Y10435D01*
X31289Y10453D01*
X31305Y10500D01*
X38000D01*
Y9250D01*
D02*
G37*
%LPC*%
G36*
X29001Y10438D02*
X28907Y10426D01*
X28819Y10390D01*
X28744Y10332D01*
X28687Y10257D01*
X28650Y10169D01*
X28638Y10075D01*
Y9925D01*
X28650Y9831D01*
X28687Y9744D01*
X28744Y9668D01*
X28819Y9611D01*
X28888Y9582D01*
Y9223D01*
X28832D01*
Y8710D01*
X29168D01*
Y9223D01*
X29113D01*
Y9582D01*
X29183Y9611D01*
X29258Y9668D01*
X29316Y9744D01*
X29352Y9831D01*
X29364Y9925D01*
Y10075D01*
X29352Y10169D01*
X29316Y10257D01*
X29258Y10332D01*
X29183Y10390D01*
X29095Y10426D01*
X29001Y10438D01*
D02*
G37*
G36*
X27001D02*
X26907Y10426D01*
X26820Y10390D01*
X26744Y10332D01*
X26687Y10257D01*
X26650Y10169D01*
X26638Y10075D01*
Y9925D01*
X26650Y9831D01*
X26687Y9744D01*
X26744Y9668D01*
X26820Y9611D01*
X26888Y9582D01*
Y9223D01*
X26832D01*
Y8710D01*
X27168D01*
Y9223D01*
X27113D01*
Y9582D01*
X27183Y9611D01*
X27258Y9668D01*
X27316Y9744D01*
X27352Y9831D01*
X27364Y9925D01*
Y10075D01*
X27352Y10169D01*
X27316Y10257D01*
X27258Y10332D01*
X27183Y10390D01*
X27095Y10426D01*
X27001Y10438D01*
D02*
G37*
G36*
X25001D02*
X24907Y10426D01*
X24820Y10390D01*
X24744Y10332D01*
X24687Y10257D01*
X24650Y10169D01*
X24638Y10075D01*
Y9925D01*
X24650Y9831D01*
X24687Y9744D01*
X24744Y9668D01*
X24820Y9611D01*
X24888Y9582D01*
Y9223D01*
X24832D01*
Y8710D01*
X25168D01*
Y9223D01*
X25113D01*
Y9582D01*
X25183Y9611D01*
X25258Y9668D01*
X25316Y9744D01*
X25352Y9831D01*
X25364Y9925D01*
Y10075D01*
X25352Y10169D01*
X25316Y10257D01*
X25258Y10332D01*
X25183Y10390D01*
X25095Y10426D01*
X25001Y10438D01*
D02*
G37*
G36*
X23001D02*
X22907Y10426D01*
X22819Y10390D01*
X22744Y10332D01*
X22687Y10257D01*
X22650Y10169D01*
X22638Y10075D01*
Y9925D01*
X22650Y9831D01*
X22687Y9744D01*
X22744Y9668D01*
X22819Y9611D01*
X22888Y9582D01*
Y9223D01*
X22832D01*
Y8710D01*
X23168D01*
Y9223D01*
X23113D01*
Y9582D01*
X23183Y9611D01*
X23258Y9668D01*
X23316Y9744D01*
X23352Y9831D01*
X23364Y9925D01*
Y10075D01*
X23352Y10169D01*
X23316Y10257D01*
X23258Y10332D01*
X23183Y10390D01*
X23095Y10426D01*
X23001Y10438D01*
D02*
G37*
G36*
X21001D02*
X20907Y10426D01*
X20819Y10390D01*
X20744Y10332D01*
X20687Y10257D01*
X20650Y10169D01*
X20638Y10075D01*
Y9925D01*
X20650Y9831D01*
X20687Y9744D01*
X20744Y9668D01*
X20819Y9611D01*
X20888Y9582D01*
Y9223D01*
X20832D01*
Y8710D01*
X21168D01*
Y9223D01*
X21113D01*
Y9582D01*
X21183Y9611D01*
X21258Y9668D01*
X21316Y9744D01*
X21352Y9831D01*
X21364Y9925D01*
Y10075D01*
X21352Y10169D01*
X21316Y10257D01*
X21258Y10332D01*
X21183Y10390D01*
X21095Y10426D01*
X21001Y10438D01*
D02*
G37*
G36*
X19001D02*
X18907Y10426D01*
X18820Y10390D01*
X18744Y10332D01*
X18687Y10257D01*
X18650Y10169D01*
X18638Y10075D01*
Y9925D01*
X18650Y9831D01*
X18687Y9744D01*
X18744Y9668D01*
X18820Y9611D01*
X18888Y9582D01*
Y9223D01*
X18832D01*
Y8710D01*
X19168D01*
Y9223D01*
X19113D01*
Y9582D01*
X19183Y9611D01*
X19258Y9668D01*
X19316Y9744D01*
X19352Y9831D01*
X19364Y9925D01*
Y10075D01*
X19352Y10169D01*
X19316Y10257D01*
X19258Y10332D01*
X19183Y10390D01*
X19095Y10426D01*
X19001Y10438D01*
D02*
G37*
G36*
X17001Y10438D02*
X16907Y10426D01*
X16819Y10390D01*
X16744Y10332D01*
X16687Y10257D01*
X16650Y10169D01*
X16638Y10075D01*
Y9925D01*
X16650Y9831D01*
X16687Y9744D01*
X16744Y9668D01*
X16819Y9611D01*
X16888Y9582D01*
Y9223D01*
X16832D01*
Y8710D01*
X17168D01*
Y9223D01*
X17113D01*
Y9582D01*
X17183Y9611D01*
X17258Y9668D01*
X17316Y9744D01*
X17352Y9831D01*
X17364Y9925D01*
Y10075D01*
X17352Y10169D01*
X17316Y10257D01*
X17258Y10332D01*
X17183Y10390D01*
X17095Y10426D01*
X17001Y10438D01*
D02*
G37*
G36*
X15000Y10438D02*
X14906Y10426D01*
X14818Y10389D01*
X14743Y10332D01*
X14686Y10257D01*
X14649Y10169D01*
X14637Y10075D01*
Y9925D01*
X14649Y9831D01*
X14686Y9743D01*
X14743Y9668D01*
X14818Y9611D01*
X14888Y9582D01*
Y9223D01*
X14832D01*
Y8710D01*
X15168D01*
Y9223D01*
X15112D01*
Y9582D01*
X15182Y9611D01*
X15257Y9668D01*
X15314Y9743D01*
X15351Y9831D01*
X15363Y9925D01*
Y10075D01*
X15351Y10169D01*
X15314Y10257D01*
X15257Y10332D01*
X15182Y10389D01*
X15094Y10426D01*
X15000Y10438D01*
D02*
G37*
G36*
X13000D02*
X12906Y10426D01*
X12818Y10389D01*
X12743Y10332D01*
X12686Y10257D01*
X12649Y10169D01*
X12637Y10075D01*
Y9925D01*
X12649Y9831D01*
X12686Y9743D01*
X12743Y9668D01*
X12818Y9611D01*
X12888Y9582D01*
Y9223D01*
X12832D01*
Y8710D01*
X13168D01*
Y9223D01*
X13112D01*
Y9582D01*
X13182Y9611D01*
X13257Y9668D01*
X13314Y9743D01*
X13351Y9831D01*
X13363Y9925D01*
Y10075D01*
X13351Y10169D01*
X13314Y10257D01*
X13257Y10332D01*
X13182Y10389D01*
X13094Y10426D01*
X13000Y10438D01*
D02*
G37*
G36*
X11000D02*
X10906Y10426D01*
X10818Y10389D01*
X10743Y10332D01*
X10686Y10257D01*
X10649Y10169D01*
X10637Y10075D01*
Y9925D01*
X10649Y9831D01*
X10686Y9743D01*
X10743Y9668D01*
X10818Y9611D01*
X10888Y9582D01*
Y9223D01*
X10832D01*
Y8710D01*
X11168D01*
Y9223D01*
X11112D01*
Y9582D01*
X11182Y9611D01*
X11257Y9668D01*
X11314Y9743D01*
X11351Y9831D01*
X11363Y9925D01*
Y10075D01*
X11351Y10169D01*
X11314Y10257D01*
X11257Y10332D01*
X11182Y10389D01*
X11094Y10426D01*
X11000Y10438D01*
D02*
G37*
G36*
X9000D02*
X8906Y10426D01*
X8818Y10389D01*
X8743Y10332D01*
X8686Y10257D01*
X8649Y10169D01*
X8637Y10075D01*
Y9925D01*
X8649Y9831D01*
X8686Y9743D01*
X8743Y9668D01*
X8818Y9611D01*
X8888Y9582D01*
Y9223D01*
X8832D01*
Y8710D01*
X9168D01*
Y9223D01*
X9112D01*
Y9582D01*
X9182Y9611D01*
X9257Y9668D01*
X9314Y9743D01*
X9351Y9831D01*
X9363Y9925D01*
Y10075D01*
X9351Y10169D01*
X9314Y10257D01*
X9257Y10332D01*
X9182Y10389D01*
X9094Y10426D01*
X9000Y10438D01*
D02*
G37*
G36*
X7000D02*
X6906Y10426D01*
X6818Y10389D01*
X6743Y10332D01*
X6686Y10257D01*
X6649Y10169D01*
X6637Y10075D01*
Y9925D01*
X6649Y9831D01*
X6686Y9743D01*
X6743Y9668D01*
X6818Y9611D01*
X6888Y9582D01*
Y9223D01*
X6832D01*
Y8710D01*
X7168D01*
Y9223D01*
X7112D01*
Y9582D01*
X7182Y9611D01*
X7257Y9668D01*
X7314Y9743D01*
X7351Y9831D01*
X7363Y9925D01*
Y10075D01*
X7351Y10169D01*
X7314Y10257D01*
X7257Y10332D01*
X7182Y10389D01*
X7094Y10426D01*
X7000Y10438D01*
D02*
G37*
G36*
X5000D02*
X4906Y10426D01*
X4818Y10389D01*
X4743Y10332D01*
X4686Y10257D01*
X4649Y10169D01*
X4637Y10075D01*
Y9925D01*
X4649Y9831D01*
X4686Y9743D01*
X4743Y9668D01*
X4818Y9611D01*
X4888Y9582D01*
Y9223D01*
X4832D01*
Y8710D01*
X5168D01*
Y9223D01*
X5112D01*
Y9582D01*
X5182Y9611D01*
X5257Y9668D01*
X5314Y9743D01*
X5351Y9831D01*
X5363Y9925D01*
Y10075D01*
X5351Y10169D01*
X5314Y10257D01*
X5257Y10332D01*
X5182Y10389D01*
X5094Y10426D01*
X5000Y10438D01*
D02*
G37*
G36*
X3000D02*
X2906Y10426D01*
X2818Y10389D01*
X2743Y10332D01*
X2686Y10257D01*
X2649Y10169D01*
X2637Y10075D01*
Y9925D01*
X2649Y9831D01*
X2686Y9743D01*
X2743Y9668D01*
X2818Y9611D01*
X2888Y9582D01*
Y9223D01*
X2832D01*
Y8710D01*
X3168D01*
Y9223D01*
X3112D01*
Y9582D01*
X3182Y9611D01*
X3257Y9668D01*
X3314Y9743D01*
X3351Y9831D01*
X3363Y9925D01*
Y10075D01*
X3351Y10169D01*
X3314Y10257D01*
X3257Y10332D01*
X3182Y10389D01*
X3094Y10426D01*
X3000Y10438D01*
D02*
G37*
G36*
X28834Y8330D02*
X28676D01*
Y8083D01*
X28834D01*
Y8330D01*
D02*
G37*
G36*
X18834D02*
X18676D01*
Y8083D01*
X18834D01*
Y8330D01*
D02*
G37*
G36*
X12834D02*
X12676D01*
Y8083D01*
X12834D01*
Y8330D01*
D02*
G37*
G36*
X2834D02*
X2676D01*
Y8083D01*
X2834D01*
Y8330D01*
D02*
G37*
G36*
X26834D02*
X26676D01*
Y8083D01*
X26834D01*
Y8330D01*
D02*
G37*
G36*
X24834D02*
X24676D01*
Y8083D01*
X24834D01*
Y8330D01*
D02*
G37*
G36*
X22834D02*
X22676D01*
Y8083D01*
X22834D01*
Y8330D01*
D02*
G37*
G36*
X16834D02*
X16676D01*
Y8083D01*
X16834D01*
Y8330D01*
D02*
G37*
G36*
X14834D02*
X14676D01*
Y8083D01*
X14834D01*
Y8330D01*
D02*
G37*
G36*
X8834D02*
X8676D01*
Y8083D01*
X8834D01*
Y8330D01*
D02*
G37*
G36*
X6834D02*
X6676D01*
Y8083D01*
X6834D01*
Y8330D01*
D02*
G37*
G36*
X4834D02*
X4676D01*
Y8083D01*
X4834D01*
Y8330D01*
D02*
G37*
G36*
X20834D02*
X20676D01*
Y8083D01*
X20834D01*
Y8330D01*
D02*
G37*
G36*
X10834D02*
X10676D01*
Y8083D01*
X10834D01*
Y8330D01*
D02*
G37*
G36*
X18576D02*
X18418D01*
Y8083D01*
X18576D01*
Y8330D01*
D02*
G37*
G36*
X28576D02*
X28418D01*
Y8083D01*
X28576D01*
Y8330D01*
D02*
G37*
G36*
X12576D02*
X12418D01*
Y8083D01*
X12576D01*
Y8330D01*
D02*
G37*
G36*
X2576D02*
X2418D01*
Y8083D01*
X2576D01*
Y8330D01*
D02*
G37*
G36*
X22576D02*
X22418D01*
Y8083D01*
X22576D01*
Y8330D01*
D02*
G37*
G36*
X14576D02*
X14418D01*
Y8083D01*
X14576D01*
Y8330D01*
D02*
G37*
G36*
X4576D02*
X4418D01*
Y8083D01*
X4576D01*
Y8330D01*
D02*
G37*
G36*
X26576D02*
X26418D01*
Y8083D01*
X26576D01*
Y8330D01*
D02*
G37*
G36*
X24576D02*
X24418D01*
Y8083D01*
X24576D01*
Y8330D01*
D02*
G37*
G36*
X16576D02*
X16418D01*
Y8083D01*
X16576D01*
Y8330D01*
D02*
G37*
G36*
X8576D02*
X8418D01*
Y8083D01*
X8576D01*
Y8330D01*
D02*
G37*
G36*
X6576D02*
X6418D01*
Y8083D01*
X6576D01*
Y8330D01*
D02*
G37*
G36*
X20576D02*
X20418D01*
Y8083D01*
X20576D01*
Y8330D01*
D02*
G37*
G36*
X10576D02*
X10418D01*
Y8083D01*
X10576D01*
Y8330D01*
D02*
G37*
G36*
X28834Y7983D02*
X28676D01*
Y7737D01*
X28834D01*
Y7983D01*
D02*
G37*
G36*
X28576D02*
X28418D01*
Y7737D01*
X28576D01*
Y7983D01*
D02*
G37*
G36*
X26834D02*
X26676D01*
Y7737D01*
X26834D01*
Y7983D01*
D02*
G37*
G36*
X26576D02*
X26418D01*
Y7737D01*
X26576D01*
Y7983D01*
D02*
G37*
G36*
X24834D02*
X24676D01*
Y7737D01*
X24834D01*
Y7983D01*
D02*
G37*
G36*
X24576D02*
X24418D01*
Y7737D01*
X24576D01*
Y7983D01*
D02*
G37*
G36*
X22834D02*
X22676D01*
Y7737D01*
X22834D01*
Y7983D01*
D02*
G37*
G36*
X22576D02*
X22418D01*
Y7737D01*
X22576D01*
Y7983D01*
D02*
G37*
G36*
X20834D02*
X20676D01*
Y7737D01*
X20834D01*
Y7983D01*
D02*
G37*
G36*
X20576D02*
X20418D01*
Y7737D01*
X20576D01*
Y7983D01*
D02*
G37*
G36*
X18834D02*
X18676D01*
Y7737D01*
X18834D01*
Y7983D01*
D02*
G37*
G36*
X18576D02*
X18418D01*
Y7737D01*
X18576D01*
Y7983D01*
D02*
G37*
G36*
X16834D02*
X16676D01*
Y7737D01*
X16834D01*
Y7983D01*
D02*
G37*
G36*
X16576D02*
X16418D01*
Y7737D01*
X16576D01*
Y7983D01*
D02*
G37*
G36*
X14834D02*
X14676D01*
Y7737D01*
X14834D01*
Y7983D01*
D02*
G37*
G36*
X14576D02*
X14418D01*
Y7737D01*
X14576D01*
Y7983D01*
D02*
G37*
G36*
X12834D02*
X12676D01*
Y7737D01*
X12834D01*
Y7983D01*
D02*
G37*
G36*
X12576D02*
X12418D01*
Y7737D01*
X12576D01*
Y7983D01*
D02*
G37*
G36*
X10834D02*
X10676D01*
Y7737D01*
X10834D01*
Y7983D01*
D02*
G37*
G36*
X10576D02*
X10418D01*
Y7737D01*
X10576D01*
Y7983D01*
D02*
G37*
G36*
X8834D02*
X8676D01*
Y7737D01*
X8834D01*
Y7983D01*
D02*
G37*
G36*
X8576D02*
X8418D01*
Y7737D01*
X8576D01*
Y7983D01*
D02*
G37*
G36*
X6834D02*
X6676D01*
Y7737D01*
X6834D01*
Y7983D01*
D02*
G37*
G36*
X6576D02*
X6418D01*
Y7737D01*
X6576D01*
Y7983D01*
D02*
G37*
G36*
X4834D02*
X4676D01*
Y7737D01*
X4834D01*
Y7983D01*
D02*
G37*
G36*
X4576D02*
X4418D01*
Y7737D01*
X4576D01*
Y7983D01*
D02*
G37*
G36*
X2834D02*
X2676D01*
Y7737D01*
X2834D01*
Y7983D01*
D02*
G37*
G36*
X2576D02*
X2418D01*
Y7737D01*
X2576D01*
Y7983D01*
D02*
G37*
G36*
X36875Y8690D02*
X36729Y8671D01*
X36593Y8614D01*
X36476Y8524D01*
X36386Y8407D01*
X36329Y8271D01*
X36310Y8125D01*
X36329Y7979D01*
X36386Y7843D01*
X36476Y7726D01*
X36593Y7636D01*
X36729Y7579D01*
X36875Y7560D01*
X37021Y7579D01*
X37157Y7636D01*
X37274Y7726D01*
X37364Y7843D01*
X37421Y7979D01*
X37440Y8125D01*
X37421Y8271D01*
X37364Y8407D01*
X37274Y8524D01*
X37157Y8614D01*
X37021Y8671D01*
X36875Y8690D01*
D02*
G37*
G36*
X32975D02*
X32829Y8671D01*
X32693Y8614D01*
X32576Y8524D01*
X32486Y8407D01*
X32429Y8271D01*
X32410Y8125D01*
X32429Y7979D01*
X32486Y7843D01*
X32576Y7726D01*
X32693Y7636D01*
X32829Y7579D01*
X32975Y7560D01*
X33121Y7579D01*
X33257Y7636D01*
X33374Y7726D01*
X33464Y7843D01*
X33521Y7979D01*
X33540Y8125D01*
X33521Y8271D01*
X33464Y8407D01*
X33374Y8524D01*
X33257Y8614D01*
X33121Y8671D01*
X32975Y8690D01*
D02*
G37*
G36*
X30001Y10438D02*
X29907Y10426D01*
X29820Y10390D01*
X29744Y10332D01*
X29687Y10257D01*
X29650Y10169D01*
X29638Y10075D01*
Y9925D01*
X29650Y9831D01*
X29687Y9744D01*
X29744Y9668D01*
X29820Y9611D01*
X29888Y9582D01*
Y7848D01*
X29832D01*
Y7335D01*
X30168D01*
Y7848D01*
X30113D01*
Y9582D01*
X30183Y9611D01*
X30258Y9668D01*
X30316Y9744D01*
X30352Y9831D01*
X30364Y9925D01*
Y10075D01*
X30352Y10169D01*
X30316Y10257D01*
X30258Y10332D01*
X30183Y10390D01*
X30095Y10426D01*
X30001Y10438D01*
D02*
G37*
G36*
X28001D02*
X27907Y10426D01*
X27819Y10390D01*
X27744Y10332D01*
X27687Y10257D01*
X27650Y10169D01*
X27638Y10075D01*
Y9925D01*
X27650Y9831D01*
X27687Y9744D01*
X27744Y9668D01*
X27819Y9611D01*
X27888Y9582D01*
Y7848D01*
X27832D01*
Y7335D01*
X28168D01*
Y7848D01*
X28113D01*
Y9582D01*
X28183Y9611D01*
X28258Y9668D01*
X28316Y9744D01*
X28352Y9831D01*
X28364Y9925D01*
Y10075D01*
X28352Y10169D01*
X28316Y10257D01*
X28258Y10332D01*
X28183Y10390D01*
X28095Y10426D01*
X28001Y10438D01*
D02*
G37*
G36*
X26001D02*
X25907Y10426D01*
X25819Y10390D01*
X25744Y10332D01*
X25687Y10257D01*
X25650Y10169D01*
X25638Y10075D01*
Y9925D01*
X25650Y9831D01*
X25687Y9744D01*
X25744Y9668D01*
X25819Y9611D01*
X25888Y9582D01*
Y7848D01*
X25832D01*
Y7335D01*
X26168D01*
Y7848D01*
X26113D01*
Y9582D01*
X26183Y9611D01*
X26258Y9668D01*
X26316Y9744D01*
X26352Y9831D01*
X26364Y9925D01*
Y10075D01*
X26352Y10169D01*
X26316Y10257D01*
X26258Y10332D01*
X26183Y10390D01*
X26095Y10426D01*
X26001Y10438D01*
D02*
G37*
G36*
X24001D02*
X23907Y10426D01*
X23819Y10390D01*
X23744Y10332D01*
X23687Y10257D01*
X23650Y10169D01*
X23638Y10075D01*
Y9925D01*
X23650Y9831D01*
X23687Y9744D01*
X23744Y9668D01*
X23819Y9611D01*
X23888Y9582D01*
Y7848D01*
X23832D01*
Y7335D01*
X24168D01*
Y7848D01*
X24113D01*
Y9582D01*
X24183Y9611D01*
X24258Y9668D01*
X24316Y9744D01*
X24352Y9831D01*
X24364Y9925D01*
Y10075D01*
X24352Y10169D01*
X24316Y10257D01*
X24258Y10332D01*
X24183Y10390D01*
X24095Y10426D01*
X24001Y10438D01*
D02*
G37*
G36*
X22001D02*
X21907Y10426D01*
X21820Y10390D01*
X21744Y10332D01*
X21687Y10257D01*
X21650Y10169D01*
X21638Y10075D01*
Y9925D01*
X21650Y9831D01*
X21687Y9744D01*
X21744Y9668D01*
X21820Y9611D01*
X21888Y9582D01*
Y7848D01*
X21832D01*
Y7335D01*
X22168D01*
Y7848D01*
X22113D01*
Y9582D01*
X22183Y9611D01*
X22258Y9668D01*
X22316Y9744D01*
X22352Y9831D01*
X22364Y9925D01*
Y10075D01*
X22352Y10169D01*
X22316Y10257D01*
X22258Y10332D01*
X22183Y10390D01*
X22095Y10426D01*
X22001Y10438D01*
D02*
G37*
G36*
X20001D02*
X19907Y10426D01*
X19820Y10390D01*
X19744Y10332D01*
X19687Y10257D01*
X19650Y10169D01*
X19638Y10075D01*
Y9925D01*
X19650Y9831D01*
X19687Y9744D01*
X19744Y9668D01*
X19820Y9611D01*
X19888Y9582D01*
Y7848D01*
X19832D01*
Y7335D01*
X20168D01*
Y7848D01*
X20113D01*
Y9582D01*
X20183Y9611D01*
X20258Y9668D01*
X20316Y9744D01*
X20352Y9831D01*
X20364Y9925D01*
Y10075D01*
X20352Y10169D01*
X20316Y10257D01*
X20258Y10332D01*
X20183Y10390D01*
X20095Y10426D01*
X20001Y10438D01*
D02*
G37*
G36*
X18001D02*
X17907Y10426D01*
X17819Y10390D01*
X17744Y10332D01*
X17687Y10257D01*
X17650Y10169D01*
X17638Y10075D01*
Y9925D01*
X17650Y9831D01*
X17687Y9744D01*
X17744Y9668D01*
X17819Y9611D01*
X17888Y9582D01*
Y7848D01*
X17832D01*
Y7335D01*
X18168D01*
Y7848D01*
X18113D01*
Y9582D01*
X18183Y9611D01*
X18258Y9668D01*
X18316Y9744D01*
X18352Y9831D01*
X18364Y9925D01*
Y10075D01*
X18352Y10169D01*
X18316Y10257D01*
X18258Y10332D01*
X18183Y10390D01*
X18095Y10426D01*
X18001Y10438D01*
D02*
G37*
G36*
X16000Y10438D02*
X15906Y10426D01*
X15818Y10389D01*
X15743Y10332D01*
X15686Y10257D01*
X15649Y10169D01*
X15637Y10075D01*
Y9925D01*
X15649Y9831D01*
X15686Y9743D01*
X15743Y9668D01*
X15818Y9611D01*
X15888Y9582D01*
Y7848D01*
X15832D01*
Y7335D01*
X16168D01*
Y7848D01*
X16112D01*
Y9582D01*
X16182Y9611D01*
X16257Y9668D01*
X16314Y9743D01*
X16351Y9831D01*
X16363Y9925D01*
Y10075D01*
X16351Y10169D01*
X16314Y10257D01*
X16257Y10332D01*
X16182Y10389D01*
X16094Y10426D01*
X16000Y10438D01*
D02*
G37*
G36*
X14000D02*
X13906Y10426D01*
X13818Y10389D01*
X13743Y10332D01*
X13686Y10257D01*
X13649Y10169D01*
X13637Y10075D01*
Y9925D01*
X13649Y9831D01*
X13686Y9743D01*
X13743Y9668D01*
X13818Y9611D01*
X13888Y9582D01*
Y7848D01*
X13832D01*
Y7335D01*
X14168D01*
Y7848D01*
X14112D01*
Y9582D01*
X14182Y9611D01*
X14257Y9668D01*
X14314Y9743D01*
X14351Y9831D01*
X14363Y9925D01*
Y10075D01*
X14351Y10169D01*
X14314Y10257D01*
X14257Y10332D01*
X14182Y10389D01*
X14094Y10426D01*
X14000Y10438D01*
D02*
G37*
G36*
X12000D02*
X11906Y10426D01*
X11818Y10389D01*
X11743Y10332D01*
X11686Y10257D01*
X11649Y10169D01*
X11637Y10075D01*
Y9925D01*
X11649Y9831D01*
X11686Y9743D01*
X11743Y9668D01*
X11818Y9611D01*
X11888Y9582D01*
Y7848D01*
X11832D01*
Y7335D01*
X12168D01*
Y7848D01*
X12112D01*
Y9582D01*
X12182Y9611D01*
X12257Y9668D01*
X12314Y9743D01*
X12351Y9831D01*
X12363Y9925D01*
Y10075D01*
X12351Y10169D01*
X12314Y10257D01*
X12257Y10332D01*
X12182Y10389D01*
X12094Y10426D01*
X12000Y10438D01*
D02*
G37*
G36*
X10000D02*
X9906Y10426D01*
X9818Y10389D01*
X9743Y10332D01*
X9686Y10257D01*
X9649Y10169D01*
X9637Y10075D01*
Y9925D01*
X9649Y9831D01*
X9686Y9743D01*
X9743Y9668D01*
X9818Y9611D01*
X9888Y9582D01*
Y7848D01*
X9832D01*
Y7335D01*
X10168D01*
Y7848D01*
X10112D01*
Y9582D01*
X10182Y9611D01*
X10257Y9668D01*
X10314Y9743D01*
X10351Y9831D01*
X10363Y9925D01*
Y10075D01*
X10351Y10169D01*
X10314Y10257D01*
X10257Y10332D01*
X10182Y10389D01*
X10094Y10426D01*
X10000Y10438D01*
D02*
G37*
G36*
X8000D02*
X7906Y10426D01*
X7818Y10389D01*
X7743Y10332D01*
X7686Y10257D01*
X7649Y10169D01*
X7637Y10075D01*
Y9925D01*
X7649Y9831D01*
X7686Y9743D01*
X7743Y9668D01*
X7818Y9611D01*
X7888Y9582D01*
Y7848D01*
X7832D01*
Y7335D01*
X8168D01*
Y7848D01*
X8112D01*
Y9582D01*
X8182Y9611D01*
X8257Y9668D01*
X8314Y9743D01*
X8351Y9831D01*
X8363Y9925D01*
Y10075D01*
X8351Y10169D01*
X8314Y10257D01*
X8257Y10332D01*
X8182Y10389D01*
X8094Y10426D01*
X8000Y10438D01*
D02*
G37*
G36*
X6000D02*
X5906Y10426D01*
X5818Y10389D01*
X5743Y10332D01*
X5686Y10257D01*
X5649Y10169D01*
X5637Y10075D01*
Y9925D01*
X5649Y9831D01*
X5686Y9743D01*
X5743Y9668D01*
X5818Y9611D01*
X5888Y9582D01*
Y7848D01*
X5832D01*
Y7335D01*
X6168D01*
Y7848D01*
X6112D01*
Y9582D01*
X6182Y9611D01*
X6257Y9668D01*
X6314Y9743D01*
X6351Y9831D01*
X6363Y9925D01*
Y10075D01*
X6351Y10169D01*
X6314Y10257D01*
X6257Y10332D01*
X6182Y10389D01*
X6094Y10426D01*
X6000Y10438D01*
D02*
G37*
G36*
X4000D02*
X3906Y10426D01*
X3818Y10389D01*
X3743Y10332D01*
X3686Y10257D01*
X3649Y10169D01*
X3637Y10075D01*
Y9925D01*
X3649Y9831D01*
X3686Y9743D01*
X3743Y9668D01*
X3818Y9611D01*
X3888Y9582D01*
Y7848D01*
X3832D01*
Y7335D01*
X4168D01*
Y7848D01*
X4112D01*
Y9582D01*
X4182Y9611D01*
X4257Y9668D01*
X4314Y9743D01*
X4351Y9831D01*
X4363Y9925D01*
Y10075D01*
X4351Y10169D01*
X4314Y10257D01*
X4257Y10332D01*
X4182Y10389D01*
X4094Y10426D01*
X4000Y10438D01*
D02*
G37*
G36*
X2360Y10435D02*
X1640D01*
Y9565D01*
X1888D01*
Y7848D01*
X1832D01*
Y7335D01*
X2168D01*
Y7848D01*
X2112D01*
Y9565D01*
X2360D01*
Y10435D01*
D02*
G37*
G36*
X23834Y6955D02*
X23676D01*
Y6708D01*
X23834D01*
Y6955D01*
D02*
G37*
G36*
X17834D02*
X17676D01*
Y6708D01*
X17834D01*
Y6955D01*
D02*
G37*
G36*
X13834D02*
X13676D01*
Y6708D01*
X13834D01*
Y6955D01*
D02*
G37*
G36*
X7834D02*
X7676D01*
Y6708D01*
X7834D01*
Y6955D01*
D02*
G37*
G36*
X29834D02*
X29676D01*
Y6708D01*
X29834D01*
Y6955D01*
D02*
G37*
G36*
X27834D02*
X27676D01*
Y6708D01*
X27834D01*
Y6955D01*
D02*
G37*
G36*
X21834D02*
X21676D01*
Y6708D01*
X21834D01*
Y6955D01*
D02*
G37*
G36*
X19834D02*
X19676D01*
Y6708D01*
X19834D01*
Y6955D01*
D02*
G37*
G36*
X11834D02*
X11676D01*
Y6708D01*
X11834D01*
Y6955D01*
D02*
G37*
G36*
X9834D02*
X9676D01*
Y6708D01*
X9834D01*
Y6955D01*
D02*
G37*
G36*
X3834D02*
X3676D01*
Y6708D01*
X3834D01*
Y6955D01*
D02*
G37*
G36*
X1834D02*
X1676D01*
Y6708D01*
X1834D01*
Y6955D01*
D02*
G37*
G36*
X25834D02*
X25676D01*
Y6708D01*
X25834D01*
Y6955D01*
D02*
G37*
G36*
X15834D02*
X15676D01*
Y6708D01*
X15834D01*
Y6955D01*
D02*
G37*
G36*
X5834D02*
X5676D01*
Y6708D01*
X5834D01*
Y6955D01*
D02*
G37*
G36*
X1576D02*
X1418D01*
Y6708D01*
X1576D01*
Y6955D01*
D02*
G37*
G36*
X29834Y6608D02*
X29676D01*
Y6362D01*
X29834D01*
Y6608D01*
D02*
G37*
G36*
X27834D02*
X27676D01*
Y6362D01*
X27834D01*
Y6608D01*
D02*
G37*
G36*
X25834D02*
X25676D01*
Y6362D01*
X25834D01*
Y6608D01*
D02*
G37*
G36*
X23834D02*
X23676D01*
Y6362D01*
X23834D01*
Y6608D01*
D02*
G37*
G36*
X21834D02*
X21676D01*
Y6362D01*
X21834D01*
Y6608D01*
D02*
G37*
G36*
X19834D02*
X19676D01*
Y6362D01*
X19834D01*
Y6608D01*
D02*
G37*
G36*
X17834D02*
X17676D01*
Y6362D01*
X17834D01*
Y6608D01*
D02*
G37*
G36*
X15834D02*
X15676D01*
Y6362D01*
X15834D01*
Y6608D01*
D02*
G37*
G36*
X13834D02*
X13676D01*
Y6362D01*
X13834D01*
Y6608D01*
D02*
G37*
G36*
X11834D02*
X11676D01*
Y6362D01*
X11834D01*
Y6608D01*
D02*
G37*
G36*
X9834D02*
X9676D01*
Y6362D01*
X9834D01*
Y6608D01*
D02*
G37*
G36*
X7834D02*
X7676D01*
Y6362D01*
X7834D01*
Y6608D01*
D02*
G37*
G36*
X5834D02*
X5676D01*
Y6362D01*
X5834D01*
Y6608D01*
D02*
G37*
G36*
X3834D02*
X3676D01*
Y6362D01*
X3834D01*
Y6608D01*
D02*
G37*
G36*
X1834D02*
X1676D01*
Y6362D01*
X1834D01*
Y6608D01*
D02*
G37*
G36*
X1576D02*
X1418D01*
Y6362D01*
X1576D01*
Y6608D01*
D02*
G37*
G36*
X30542Y6915D02*
X30206D01*
Y6402D01*
X30237D01*
Y6020D01*
X30145D01*
Y5590D01*
X30605D01*
Y6020D01*
X30512D01*
Y6402D01*
X30542D01*
Y6915D01*
D02*
G37*
G36*
X29542Y8290D02*
X29206D01*
Y7777D01*
X29262D01*
Y6020D01*
X29145D01*
Y5590D01*
X29605D01*
Y6020D01*
X29486D01*
Y6362D01*
X29576D01*
Y6658D01*
Y6955D01*
X29486D01*
Y7777D01*
X29542D01*
Y8290D01*
D02*
G37*
G36*
X28542Y6915D02*
X28206D01*
Y6402D01*
X28262D01*
Y6020D01*
X28145D01*
Y5590D01*
X28605D01*
Y6020D01*
X28486D01*
Y6402D01*
X28542D01*
Y6915D01*
D02*
G37*
G36*
X27542Y8290D02*
X27206D01*
Y7777D01*
X27262D01*
Y6020D01*
X27145D01*
Y5590D01*
X27605D01*
Y6020D01*
X27486D01*
Y6362D01*
X27576D01*
Y6658D01*
Y6955D01*
X27486D01*
Y7777D01*
X27542D01*
Y8290D01*
D02*
G37*
G36*
X26542Y6915D02*
X26206D01*
Y6402D01*
X26262D01*
Y6020D01*
X26145D01*
Y5590D01*
X26605D01*
Y6020D01*
X26486D01*
Y6402D01*
X26542D01*
Y6915D01*
D02*
G37*
G36*
X25542Y8290D02*
X25206D01*
Y7777D01*
X25262D01*
Y6020D01*
X25145D01*
Y5590D01*
X25605D01*
Y6020D01*
X25486D01*
Y6362D01*
X25576D01*
Y6658D01*
Y6955D01*
X25486D01*
Y7777D01*
X25542D01*
Y8290D01*
D02*
G37*
G36*
X24542Y6915D02*
X24206D01*
Y6402D01*
X24237D01*
Y6020D01*
X24145D01*
Y5590D01*
X24605D01*
Y6020D01*
X24512D01*
Y6402D01*
X24542D01*
Y6915D01*
D02*
G37*
G36*
X23542Y8290D02*
X23206D01*
Y7777D01*
X23262D01*
Y6020D01*
X23145D01*
Y5590D01*
X23605D01*
Y6020D01*
X23486D01*
Y6362D01*
X23576D01*
Y6658D01*
Y6955D01*
X23486D01*
Y7777D01*
X23542D01*
Y8290D01*
D02*
G37*
G36*
X22542Y6915D02*
X22206D01*
Y6402D01*
X22262D01*
Y6020D01*
X22145D01*
Y5590D01*
X22605D01*
Y6020D01*
X22486D01*
Y6402D01*
X22542D01*
Y6915D01*
D02*
G37*
G36*
X21542Y8290D02*
X21206D01*
Y7777D01*
X21262D01*
Y6020D01*
X21145D01*
Y5590D01*
X21605D01*
Y6020D01*
X21486D01*
Y6362D01*
X21576D01*
Y6658D01*
Y6955D01*
X21486D01*
Y7777D01*
X21542D01*
Y8290D01*
D02*
G37*
G36*
X20542Y6915D02*
X20206D01*
Y6402D01*
X20262D01*
Y6020D01*
X20145D01*
Y5590D01*
X20605D01*
Y6020D01*
X20486D01*
Y6402D01*
X20542D01*
Y6915D01*
D02*
G37*
G36*
X19542Y8290D02*
X19206D01*
Y7777D01*
X19237D01*
Y6020D01*
X19145D01*
Y5590D01*
X19605D01*
Y6020D01*
X19512D01*
Y6362D01*
X19576D01*
Y6658D01*
Y6955D01*
X19512D01*
Y7777D01*
X19542D01*
Y8290D01*
D02*
G37*
G36*
X18542Y6915D02*
X18206D01*
Y6402D01*
X18237D01*
Y6020D01*
X18145D01*
Y5590D01*
X18605D01*
Y6020D01*
X18512D01*
Y6402D01*
X18542D01*
Y6915D01*
D02*
G37*
G36*
X17542Y8290D02*
X17206D01*
Y7777D01*
X17262D01*
Y6020D01*
X17145D01*
Y5590D01*
X17605D01*
Y6020D01*
X17486D01*
Y6362D01*
X17576D01*
Y6658D01*
Y6955D01*
X17486D01*
Y7777D01*
X17542D01*
Y8290D01*
D02*
G37*
G36*
X16542Y6915D02*
X16206D01*
Y6402D01*
X16262D01*
Y6020D01*
X16145D01*
Y5590D01*
X16605D01*
Y6020D01*
X16486D01*
Y6402D01*
X16542D01*
Y6915D01*
D02*
G37*
G36*
X15542Y8290D02*
X15206D01*
Y7777D01*
X15262D01*
Y6020D01*
X15145D01*
Y5590D01*
X15605D01*
Y6020D01*
X15486D01*
Y6362D01*
X15576D01*
Y6658D01*
Y6955D01*
X15486D01*
Y7777D01*
X15542D01*
Y8290D01*
D02*
G37*
G36*
X14542Y6915D02*
X14206D01*
Y6402D01*
X14262D01*
Y6020D01*
X14145D01*
Y5590D01*
X14605D01*
Y6020D01*
X14486D01*
Y6402D01*
X14542D01*
Y6915D01*
D02*
G37*
G36*
X13542Y8290D02*
X13206D01*
Y7777D01*
X13262D01*
Y6020D01*
X13145D01*
Y5590D01*
X13605D01*
Y6020D01*
X13486D01*
Y6362D01*
X13576D01*
Y6658D01*
Y6955D01*
X13486D01*
Y7777D01*
X13542D01*
Y8290D01*
D02*
G37*
G36*
X12542Y6915D02*
X12206D01*
Y6402D01*
X12262D01*
Y6020D01*
X12145D01*
Y5590D01*
X12605D01*
Y6020D01*
X12486D01*
Y6402D01*
X12542D01*
Y6915D01*
D02*
G37*
G36*
X11542Y8290D02*
X11206D01*
Y7777D01*
X11262D01*
Y6020D01*
X11145D01*
Y5590D01*
X11605D01*
Y6020D01*
X11486D01*
Y6362D01*
X11576D01*
Y6658D01*
Y6955D01*
X11486D01*
Y7777D01*
X11542D01*
Y8290D01*
D02*
G37*
G36*
X10542Y6915D02*
X10206D01*
Y6402D01*
X10262D01*
Y6020D01*
X10145D01*
Y5590D01*
X10605D01*
Y6020D01*
X10486D01*
Y6402D01*
X10542D01*
Y6915D01*
D02*
G37*
G36*
X9542Y8290D02*
X9206D01*
Y7777D01*
X9262D01*
Y6020D01*
X9145D01*
Y5590D01*
X9605D01*
Y6020D01*
X9486D01*
Y6362D01*
X9576D01*
Y6658D01*
Y6955D01*
X9486D01*
Y7777D01*
X9542D01*
Y8290D01*
D02*
G37*
G36*
X8542Y6915D02*
X8206D01*
Y6402D01*
X8262D01*
Y6020D01*
X8145D01*
Y5590D01*
X8605D01*
Y6020D01*
X8486D01*
Y6402D01*
X8542D01*
Y6915D01*
D02*
G37*
G36*
X7542Y8290D02*
X7206D01*
Y7777D01*
X7262D01*
Y6020D01*
X7145D01*
Y5590D01*
X7605D01*
Y6020D01*
X7486D01*
Y6362D01*
X7576D01*
Y6658D01*
Y6955D01*
X7486D01*
Y7777D01*
X7542D01*
Y8290D01*
D02*
G37*
G36*
X6542Y6915D02*
X6206D01*
Y6402D01*
X6262D01*
Y6020D01*
X6145D01*
Y5590D01*
X6605D01*
Y6020D01*
X6486D01*
Y6402D01*
X6542D01*
Y6915D01*
D02*
G37*
G36*
X5542Y8290D02*
X5206D01*
Y7777D01*
X5262D01*
Y6020D01*
X5145D01*
Y5590D01*
X5605D01*
Y6020D01*
X5486D01*
Y6362D01*
X5576D01*
Y6658D01*
Y6955D01*
X5486D01*
Y7777D01*
X5542D01*
Y8290D01*
D02*
G37*
G36*
X4542Y6915D02*
X4206D01*
Y6402D01*
X4262D01*
Y6020D01*
X4145D01*
Y5590D01*
X4605D01*
Y6020D01*
X4486D01*
Y6402D01*
X4542D01*
Y6915D01*
D02*
G37*
G36*
X3542Y8290D02*
X3206D01*
Y7777D01*
X3262D01*
Y6020D01*
X3145D01*
Y5590D01*
X3605D01*
Y6020D01*
X3486D01*
Y6362D01*
X3576D01*
Y6658D01*
Y6955D01*
X3486D01*
Y7777D01*
X3542D01*
Y8290D01*
D02*
G37*
G36*
X2542Y6915D02*
X2206D01*
Y6402D01*
X2262D01*
Y6020D01*
X2145D01*
Y5590D01*
X2605D01*
Y6020D01*
X2486D01*
Y6402D01*
X2542D01*
Y6915D01*
D02*
G37*
G36*
X23605Y5410D02*
X23145D01*
Y5307D01*
X23070D01*
X23070Y5307D01*
X23027Y5299D01*
X22991Y5274D01*
X22991Y5274D01*
X22796Y5079D01*
X22771Y5043D01*
X22763Y5000D01*
X22763Y5000D01*
Y3905D01*
X22680D01*
Y3185D01*
X23070D01*
Y3905D01*
X22987D01*
Y4954D01*
X23095Y5061D01*
X23145Y5041D01*
Y4980D01*
X23605D01*
Y5410D01*
D02*
G37*
G36*
X15605D02*
X15145D01*
Y5307D01*
X15070D01*
X15070Y5307D01*
X15027Y5299D01*
X14991Y5274D01*
X14991Y5274D01*
X14796Y5079D01*
X14771Y5043D01*
X14763Y5000D01*
X14763Y5000D01*
Y3905D01*
X14680D01*
Y3185D01*
X15070D01*
Y3905D01*
X14987D01*
Y4954D01*
X15095Y5061D01*
X15145Y5041D01*
Y4980D01*
X15605D01*
Y5410D01*
D02*
G37*
G36*
X7605D02*
X7145D01*
Y5307D01*
X7070D01*
X7070Y5307D01*
X7027Y5299D01*
X6991Y5274D01*
X6991Y5274D01*
X6796Y5079D01*
X6771Y5043D01*
X6763Y5000D01*
X6763Y5000D01*
Y3905D01*
X6680D01*
Y3185D01*
X7070D01*
Y3905D01*
X6987D01*
Y4954D01*
X7095Y5061D01*
X7145Y5041D01*
Y4980D01*
X7605D01*
Y5410D01*
D02*
G37*
G36*
X25605D02*
X25145D01*
Y5307D01*
X25070D01*
X25027Y5299D01*
X24991Y5274D01*
X24991Y5274D01*
X23796Y4079D01*
X23771Y4043D01*
X23763Y4000D01*
X23763Y4000D01*
Y3905D01*
X23680D01*
Y3185D01*
X24070D01*
Y3905D01*
X23991D01*
X23989Y3955D01*
X25095Y5061D01*
X25145Y5041D01*
Y4980D01*
X25605D01*
Y5410D01*
D02*
G37*
G36*
X24605D02*
X24145D01*
Y5307D01*
X24070D01*
X24027Y5299D01*
X23991Y5274D01*
X23991Y5274D01*
X23296Y4579D01*
X23271Y4543D01*
X23263Y4500D01*
X23263Y4500D01*
Y3905D01*
X23180D01*
Y3185D01*
X23570D01*
Y3905D01*
X23487D01*
Y4454D01*
X24095Y5061D01*
X24145Y5041D01*
Y4980D01*
X24605D01*
Y5410D01*
D02*
G37*
G36*
X17605D02*
X17145D01*
Y5307D01*
X17070D01*
X17027Y5299D01*
X16991Y5274D01*
X16991Y5274D01*
X15796Y4079D01*
X15771Y4043D01*
X15763Y4000D01*
X15763Y4000D01*
Y3905D01*
X15680D01*
Y3185D01*
X16070D01*
Y3905D01*
X15991D01*
X15989Y3955D01*
X17095Y5061D01*
X17145Y5041D01*
Y4980D01*
X17605D01*
Y5410D01*
D02*
G37*
G36*
X16605D02*
X16145D01*
Y5307D01*
X16070D01*
X16027Y5299D01*
X15991Y5274D01*
X15991Y5274D01*
X15296Y4579D01*
X15271Y4543D01*
X15263Y4500D01*
X15263Y4500D01*
Y3905D01*
X15180D01*
Y3185D01*
X15570D01*
Y3905D01*
X15487D01*
Y4454D01*
X16095Y5061D01*
X16145Y5041D01*
Y4980D01*
X16605D01*
Y5410D01*
D02*
G37*
G36*
X9605D02*
X9145D01*
Y5307D01*
X9070D01*
X9027Y5299D01*
X8991Y5274D01*
X8991Y5274D01*
X7796Y4079D01*
X7771Y4043D01*
X7763Y4000D01*
X7763Y4000D01*
Y3905D01*
X7680D01*
Y3185D01*
X8070D01*
Y3905D01*
X7991D01*
X7989Y3955D01*
X9095Y5061D01*
X9145Y5041D01*
Y4980D01*
X9605D01*
Y5410D01*
D02*
G37*
G36*
X8605D02*
X8145D01*
Y5307D01*
X8070D01*
X8027Y5299D01*
X7991Y5274D01*
X7991Y5274D01*
X7296Y4579D01*
X7271Y4543D01*
X7263Y4500D01*
X7263Y4500D01*
Y3905D01*
X7180D01*
Y3185D01*
X7570D01*
Y3905D01*
X7487D01*
Y4454D01*
X8095Y5061D01*
X8145Y5041D01*
Y4980D01*
X8605D01*
Y5410D01*
D02*
G37*
G36*
X32610Y3945D02*
X32425D01*
Y3595D01*
X32610D01*
Y3945D01*
D02*
G37*
G36*
X24610D02*
X24425D01*
Y3595D01*
X24610D01*
Y3945D01*
D02*
G37*
G36*
X16610D02*
X16425D01*
Y3595D01*
X16610D01*
Y3945D01*
D02*
G37*
G36*
X8610D02*
X8425D01*
Y3595D01*
X8610D01*
Y3945D01*
D02*
G37*
G36*
X32325D02*
X32140D01*
Y3595D01*
X32325D01*
Y3945D01*
D02*
G37*
G36*
X24325D02*
X24140D01*
Y3595D01*
X24325D01*
Y3945D01*
D02*
G37*
G36*
X16325D02*
X16140D01*
Y3595D01*
X16325D01*
Y3945D01*
D02*
G37*
G36*
X8325D02*
X8140D01*
Y3595D01*
X8325D01*
Y3945D01*
D02*
G37*
G36*
X32070Y3905D02*
X31680D01*
Y3185D01*
X32070D01*
Y3905D01*
D02*
G37*
G36*
X31570D02*
X31180D01*
Y3185D01*
X31570D01*
Y3905D01*
D02*
G37*
G36*
X31070D02*
X30680D01*
Y3185D01*
X31070D01*
Y3905D01*
D02*
G37*
G36*
X30605Y5410D02*
X30145D01*
Y4980D01*
X30263D01*
Y3905D01*
X30180D01*
Y3185D01*
X30570D01*
Y3905D01*
X30487D01*
Y4980D01*
X30605D01*
Y5410D01*
D02*
G37*
G36*
X29605D02*
X29145D01*
Y4980D01*
X29605D01*
Y5041D01*
X29655Y5061D01*
X29763Y4954D01*
Y3905D01*
X29680D01*
Y3185D01*
X30070D01*
Y3905D01*
X29987D01*
Y5000D01*
X29987Y5000D01*
X29979Y5043D01*
X29954Y5079D01*
X29954Y5079D01*
X29759Y5274D01*
X29723Y5299D01*
X29680Y5307D01*
X29680Y5307D01*
X29605D01*
Y5410D01*
D02*
G37*
G36*
X28605D02*
X28145D01*
Y4980D01*
X28605D01*
Y5041D01*
X28655Y5061D01*
X29263Y4454D01*
Y3905D01*
X29180D01*
Y3185D01*
X29570D01*
Y3905D01*
X29487D01*
Y4500D01*
X29479Y4543D01*
X29454Y4579D01*
X29454Y4579D01*
X28759Y5274D01*
X28723Y5299D01*
X28680Y5307D01*
X28680Y5307D01*
X28605D01*
Y5410D01*
D02*
G37*
G36*
X27605D02*
X27145D01*
Y4980D01*
X27605D01*
Y5041D01*
X27655Y5061D01*
X28761Y3955D01*
X28759Y3905D01*
X28680D01*
Y3185D01*
X29070D01*
Y3905D01*
X28987D01*
Y4000D01*
X28979Y4043D01*
X28954Y4079D01*
X28954Y4079D01*
X27759Y5274D01*
X27723Y5299D01*
X27680Y5307D01*
X27680Y5307D01*
X27605D01*
Y5410D01*
D02*
G37*
G36*
X22605D02*
X22145D01*
Y4980D01*
X22263D01*
Y3905D01*
X22180D01*
Y3185D01*
X22570D01*
Y3905D01*
X22487D01*
Y4980D01*
X22605D01*
Y5410D01*
D02*
G37*
G36*
X21605D02*
X21145D01*
Y4980D01*
X21605D01*
Y5041D01*
X21655Y5061D01*
X21763Y4954D01*
Y3905D01*
X21680D01*
Y3185D01*
X22070D01*
Y3905D01*
X21987D01*
Y5000D01*
X21987Y5000D01*
X21979Y5043D01*
X21954Y5079D01*
X21954Y5079D01*
X21759Y5274D01*
X21723Y5299D01*
X21680Y5307D01*
X21680Y5307D01*
X21605D01*
Y5410D01*
D02*
G37*
G36*
X20605D02*
X20145D01*
Y4980D01*
X20605D01*
Y5041D01*
X20655Y5061D01*
X21263Y4454D01*
Y3905D01*
X21180D01*
Y3185D01*
X21570D01*
Y3905D01*
X21487D01*
Y4500D01*
X21479Y4543D01*
X21454Y4579D01*
X21454Y4579D01*
X20759Y5274D01*
X20723Y5299D01*
X20680Y5307D01*
X20680Y5307D01*
X20605D01*
Y5410D01*
D02*
G37*
G36*
X14605D02*
X14145D01*
Y4980D01*
X14263D01*
Y3905D01*
X14180D01*
Y3185D01*
X14570D01*
Y3905D01*
X14487D01*
Y4980D01*
X14605D01*
Y5410D01*
D02*
G37*
G36*
X13605D02*
X13145D01*
Y4980D01*
X13605D01*
Y5041D01*
X13655Y5061D01*
X13763Y4954D01*
Y3905D01*
X13680D01*
Y3185D01*
X14070D01*
Y3905D01*
X13987D01*
Y5000D01*
X13987Y5000D01*
X13979Y5043D01*
X13954Y5079D01*
X13954Y5079D01*
X13759Y5274D01*
X13723Y5299D01*
X13680Y5307D01*
X13680Y5307D01*
X13605D01*
Y5410D01*
D02*
G37*
G36*
X12605D02*
X12145D01*
Y4980D01*
X12605D01*
Y5041D01*
X12655Y5061D01*
X13263Y4454D01*
Y3905D01*
X13180D01*
Y3185D01*
X13570D01*
Y3905D01*
X13487D01*
Y4500D01*
X13479Y4543D01*
X13454Y4579D01*
X13454Y4579D01*
X12759Y5274D01*
X12723Y5299D01*
X12680Y5307D01*
X12680Y5307D01*
X12605D01*
Y5410D01*
D02*
G37*
G36*
X11605D02*
X11145D01*
Y4980D01*
X11605D01*
Y5041D01*
X11655Y5061D01*
X12761Y3955D01*
X12759Y3905D01*
X12680D01*
Y3185D01*
X13070D01*
Y3905D01*
X12987D01*
Y4000D01*
X12979Y4043D01*
X12954Y4079D01*
X12954Y4079D01*
X11759Y5274D01*
X11723Y5299D01*
X11680Y5307D01*
X11680Y5307D01*
X11605D01*
Y5410D01*
D02*
G37*
G36*
X6605D02*
X6145D01*
Y4980D01*
X6263D01*
Y3905D01*
X6180D01*
Y3185D01*
X6570D01*
Y3905D01*
X6487D01*
Y4980D01*
X6605D01*
Y5410D01*
D02*
G37*
G36*
X5605D02*
X5145D01*
Y4980D01*
X5605D01*
Y5041D01*
X5655Y5061D01*
X5763Y4954D01*
Y3905D01*
X5680D01*
Y3185D01*
X6070D01*
Y3905D01*
X5987D01*
Y5000D01*
X5987Y5000D01*
X5979Y5043D01*
X5954Y5079D01*
X5954Y5079D01*
X5759Y5274D01*
X5723Y5299D01*
X5680Y5307D01*
X5680Y5307D01*
X5605D01*
Y5410D01*
D02*
G37*
G36*
X4605D02*
X4145D01*
Y4980D01*
X4605D01*
Y5041D01*
X4655Y5061D01*
X5263Y4454D01*
Y3905D01*
X5180D01*
Y3185D01*
X5570D01*
Y3905D01*
X5487D01*
Y4500D01*
X5479Y4543D01*
X5454Y4579D01*
X5454Y4579D01*
X4759Y5274D01*
X4723Y5299D01*
X4680Y5307D01*
X4680Y5307D01*
X4605D01*
Y5410D01*
D02*
G37*
G36*
X3605D02*
X3145D01*
Y4980D01*
X3605D01*
Y5041D01*
X3655Y5061D01*
X4761Y3955D01*
X4759Y3905D01*
X4680D01*
Y3185D01*
X5070D01*
Y3905D01*
X4987D01*
Y4000D01*
X4979Y4043D01*
X4954Y4079D01*
X4954Y4079D01*
X3759Y5274D01*
X3723Y5299D01*
X3680Y5307D01*
X3680Y5307D01*
X3605D01*
Y5410D01*
D02*
G37*
G36*
X32610Y3495D02*
X32425D01*
Y3145D01*
X32610D01*
Y3495D01*
D02*
G37*
G36*
X32325D02*
X32140D01*
Y3145D01*
X32325D01*
Y3495D01*
D02*
G37*
G36*
X24610D02*
X24425D01*
Y3145D01*
X24610D01*
Y3495D01*
D02*
G37*
G36*
X24325D02*
X24140D01*
Y3145D01*
X24325D01*
Y3495D01*
D02*
G37*
G36*
X16610D02*
X16425D01*
Y3145D01*
X16610D01*
Y3495D01*
D02*
G37*
G36*
X16325D02*
X16140D01*
Y3145D01*
X16325D01*
Y3495D01*
D02*
G37*
G36*
X8610D02*
X8425D01*
Y3145D01*
X8610D01*
Y3495D01*
D02*
G37*
G36*
X8325D02*
X8140D01*
Y3145D01*
X8325D01*
Y3495D01*
D02*
G37*
G36*
X20125Y3163D02*
X20063Y3151D01*
X20010Y3115D01*
X20008Y3112D01*
X17250D01*
X17250Y3112D01*
X17207Y3104D01*
X17171Y3079D01*
X17171Y3079D01*
X16296Y2204D01*
X16271Y2168D01*
X16263Y2125D01*
X16263Y2125D01*
Y2065D01*
X16180D01*
Y1345D01*
X16570D01*
Y2065D01*
X16544D01*
X16524Y2115D01*
X17296Y2888D01*
X20008D01*
X20010Y2885D01*
X20063Y2849D01*
X20125Y2837D01*
X20187Y2849D01*
X20240Y2885D01*
X20276Y2938D01*
X20288Y3000D01*
X20276Y3062D01*
X20240Y3115D01*
X20187Y3151D01*
X20125Y3163D01*
D02*
G37*
G36*
X28750Y2538D02*
X28688Y2526D01*
X28635Y2490D01*
X28633Y2487D01*
X25375D01*
X25375Y2487D01*
X25332Y2479D01*
X25296Y2454D01*
X25296Y2454D01*
X24659Y1817D01*
X24570D01*
Y2065D01*
X24180D01*
Y1345D01*
X24570D01*
Y1593D01*
X24705D01*
X24705Y1593D01*
X24748Y1601D01*
X24784Y1626D01*
X25421Y2263D01*
X28633D01*
X28635Y2260D01*
X28688Y2224D01*
X28750Y2212D01*
X28812Y2224D01*
X28865Y2260D01*
X28901Y2313D01*
X28913Y2375D01*
X28901Y2437D01*
X28865Y2490D01*
X28812Y2526D01*
X28750Y2538D01*
D02*
G37*
G36*
X19425Y2197D02*
Y1800D01*
X19822D01*
X19813Y1867D01*
X19768Y1977D01*
X19696Y2071D01*
X19602Y2143D01*
X19492Y2188D01*
X19425Y2197D01*
D02*
G37*
G36*
X19325D02*
X19258Y2188D01*
X19148Y2143D01*
X19054Y2071D01*
X18982Y1977D01*
X18937Y1867D01*
X18928Y1800D01*
X19325D01*
Y2197D01*
D02*
G37*
G36*
X27675Y2097D02*
Y1675D01*
X28028D01*
Y1700D01*
X28015Y1804D01*
X27974Y1902D01*
X27910Y1985D01*
X27827Y2049D01*
X27729Y2090D01*
X27675Y2097D01*
D02*
G37*
G36*
X27575D02*
X27521Y2090D01*
X27423Y2049D01*
X27340Y1985D01*
X27276Y1902D01*
X27235Y1804D01*
X27222Y1700D01*
Y1675D01*
X27575D01*
Y2097D01*
D02*
G37*
G36*
X32570Y2065D02*
X32180D01*
Y1345D01*
X32570D01*
Y2065D01*
D02*
G37*
G36*
X29875Y2538D02*
X29813Y2526D01*
X29760Y2490D01*
X29724Y2437D01*
X29712Y2375D01*
X29724Y2313D01*
X29760Y2260D01*
X29763Y2258D01*
Y2065D01*
X29680D01*
Y1345D01*
X30070D01*
Y2065D01*
X29987D01*
Y2258D01*
X29990Y2260D01*
X30026Y2313D01*
X30038Y2375D01*
X30026Y2437D01*
X29990Y2490D01*
X29937Y2526D01*
X29875Y2538D01*
D02*
G37*
G36*
X26605Y5410D02*
X26145D01*
Y4980D01*
X26263D01*
Y3875D01*
X26263Y3875D01*
X26271Y3832D01*
X26296Y3796D01*
X27421Y2671D01*
X27421Y2671D01*
X27457Y2646D01*
X27500Y2638D01*
X28954D01*
X29263Y2329D01*
Y2065D01*
X29180D01*
Y1345D01*
X29570D01*
Y2065D01*
X29487D01*
Y2375D01*
X29487Y2375D01*
X29479Y2418D01*
X29454Y2454D01*
X29079Y2829D01*
X29043Y2854D01*
X29000Y2862D01*
X29000Y2862D01*
X27546D01*
X26487Y3921D01*
Y4980D01*
X26605D01*
Y5410D01*
D02*
G37*
G36*
X19605D02*
X19145D01*
Y4980D01*
X19605D01*
Y5041D01*
X19655Y5061D01*
X20761Y3955D01*
X20759Y3905D01*
X20680D01*
Y3185D01*
X20774D01*
X20789Y3135D01*
X20760Y3115D01*
X20724Y3062D01*
X20712Y3000D01*
X20724Y2938D01*
X20760Y2885D01*
X20813Y2849D01*
X20875Y2837D01*
X20937Y2849D01*
X20990Y2885D01*
X20992Y2888D01*
X21454D01*
X21763Y2579D01*
Y2065D01*
X21680D01*
Y1345D01*
X22070D01*
Y2065D01*
X21987D01*
Y2625D01*
X21987Y2625D01*
X21979Y2668D01*
X21954Y2704D01*
X21579Y3079D01*
X21543Y3104D01*
X21500Y3112D01*
X21500Y3112D01*
X21002D01*
X20981Y3135D01*
X21003Y3185D01*
X21070D01*
Y3905D01*
X20987D01*
Y4000D01*
X20979Y4043D01*
X20954Y4079D01*
X20954Y4079D01*
X19759Y5274D01*
X19723Y5299D01*
X19680Y5307D01*
X19680Y5307D01*
X19605D01*
Y5410D01*
D02*
G37*
G36*
X18605D02*
X18145D01*
Y4980D01*
X18263D01*
Y4875D01*
X18263Y4875D01*
X18271Y4832D01*
X18296Y4796D01*
X18421Y4671D01*
X18421Y4671D01*
X18457Y4646D01*
X18500Y4638D01*
X18500Y4638D01*
X19579D01*
X20388Y3829D01*
Y2375D01*
X20388Y2375D01*
X20396Y2332D01*
X20421Y2296D01*
X20546Y2171D01*
X20546Y2171D01*
X20582Y2146D01*
X20625Y2138D01*
X20625Y2138D01*
X21184D01*
X21201Y2115D01*
X21180Y2065D01*
X21180D01*
Y1345D01*
X21570D01*
Y2065D01*
X21487D01*
Y2125D01*
X21487Y2125D01*
X21479Y2168D01*
X21454Y2204D01*
X21454Y2204D01*
X21329Y2329D01*
X21293Y2354D01*
X21250Y2362D01*
X21250Y2362D01*
X20671D01*
X20612Y2421D01*
Y3875D01*
X20612Y3875D01*
X20604Y3918D01*
X20579Y3954D01*
X20579Y3954D01*
X19704Y4829D01*
X19668Y4854D01*
X19625Y4862D01*
X19625Y4862D01*
X18546D01*
X18487Y4921D01*
Y4980D01*
X18605D01*
Y5410D01*
D02*
G37*
G36*
X13875Y2913D02*
X13813Y2901D01*
X13760Y2865D01*
X13724Y2812D01*
X13712Y2750D01*
X13724Y2688D01*
X13760Y2635D01*
X13763Y2633D01*
Y2065D01*
X13680D01*
Y1345D01*
X14070D01*
Y2065D01*
X13987D01*
Y2633D01*
X13990Y2635D01*
X14026Y2688D01*
X14038Y2750D01*
X14026Y2812D01*
X13990Y2865D01*
X13937Y2901D01*
X13875Y2913D01*
D02*
G37*
G36*
X10605Y5410D02*
X10145D01*
Y4980D01*
X10605D01*
Y5041D01*
X10655Y5061D01*
X10888Y4829D01*
Y3500D01*
X10888Y3500D01*
X10896Y3457D01*
X10921Y3421D01*
X11671Y2671D01*
X11671Y2671D01*
X11707Y2646D01*
X11750Y2638D01*
X13079D01*
X13263Y2454D01*
Y2065D01*
X13180D01*
Y1345D01*
X13570D01*
Y2065D01*
X13487D01*
Y2500D01*
X13479Y2543D01*
X13454Y2579D01*
X13454Y2579D01*
X13204Y2829D01*
X13168Y2854D01*
X13125Y2862D01*
X13125Y2862D01*
X11796D01*
X11112Y3546D01*
Y4875D01*
X11104Y4918D01*
X11079Y4954D01*
X11079Y4954D01*
X10759Y5274D01*
X10723Y5299D01*
X10680Y5307D01*
X10680Y5307D01*
X10605D01*
Y5410D01*
D02*
G37*
G36*
X8375Y2913D02*
X8313Y2901D01*
X8260Y2865D01*
X8224Y2812D01*
X8212Y2750D01*
X8224Y2688D01*
X8260Y2635D01*
X8263Y2633D01*
Y2065D01*
X8180D01*
Y1345D01*
X8570D01*
Y2065D01*
X8487D01*
Y2633D01*
X8490Y2635D01*
X8526Y2688D01*
X8538Y2750D01*
X8526Y2812D01*
X8490Y2865D01*
X8437Y2901D01*
X8375Y2913D01*
D02*
G37*
G36*
X2605Y5410D02*
X2145D01*
Y4980D01*
X2263D01*
Y3375D01*
X2263Y3375D01*
X2271Y3332D01*
X2296Y3296D01*
X2921Y2671D01*
X2921Y2671D01*
X2957Y2646D01*
X3000Y2638D01*
X5079D01*
X5263Y2454D01*
Y2065D01*
X5180D01*
Y1345D01*
X5570D01*
Y2065D01*
X5487D01*
Y2500D01*
X5479Y2543D01*
X5454Y2579D01*
X5454Y2579D01*
X5204Y2829D01*
X5168Y2854D01*
X5125Y2862D01*
X5125Y2862D01*
X3046D01*
X2487Y3421D01*
Y4980D01*
X2605D01*
Y5410D01*
D02*
G37*
G36*
X17875Y2164D02*
X17768Y2149D01*
X17668Y2108D01*
X17583Y2042D01*
X17517Y1957D01*
X17476Y1857D01*
X17461Y1750D01*
X17476Y1643D01*
X17517Y1543D01*
X17583Y1458D01*
X17668Y1392D01*
X17768Y1351D01*
X17875Y1336D01*
X17982Y1351D01*
X18082Y1392D01*
X18167Y1458D01*
X18233Y1543D01*
X18274Y1643D01*
X18289Y1750D01*
X18274Y1857D01*
X18233Y1957D01*
X18167Y2042D01*
X18082Y2108D01*
X17982Y2149D01*
X17875Y2164D01*
D02*
G37*
G36*
X19822Y1700D02*
X19425D01*
Y1303D01*
X19492Y1312D01*
X19602Y1357D01*
X19696Y1429D01*
X19768Y1523D01*
X19813Y1633D01*
X19822Y1700D01*
D02*
G37*
G36*
X19325D02*
X18928D01*
X18937Y1633D01*
X18982Y1523D01*
X19054Y1429D01*
X19148Y1357D01*
X19258Y1312D01*
X19325Y1303D01*
Y1700D01*
D02*
G37*
G36*
X25641Y2063D02*
X25547Y2051D01*
X25459Y2014D01*
X25384Y1957D01*
X25326Y1882D01*
X25290Y1794D01*
X25278Y1700D01*
Y1550D01*
X25290Y1456D01*
X25326Y1368D01*
X25384Y1293D01*
X25459Y1236D01*
X25547Y1199D01*
X25641Y1187D01*
X25735Y1199D01*
X25822Y1236D01*
X25898Y1293D01*
X25955Y1368D01*
X25991Y1456D01*
X26004Y1550D01*
Y1700D01*
X25991Y1794D01*
X25955Y1882D01*
X25898Y1957D01*
X25822Y2014D01*
X25735Y2051D01*
X25641Y2063D01*
D02*
G37*
G36*
X28520Y1270D02*
X28315D01*
Y1050D01*
X28520D01*
Y1270D01*
D02*
G37*
G36*
X28215D02*
X28010D01*
Y1050D01*
X28215D01*
Y1270D01*
D02*
G37*
G36*
X20520D02*
X20315D01*
Y1050D01*
X20520D01*
Y1270D01*
D02*
G37*
G36*
X20215D02*
X20010D01*
Y1050D01*
X20215D01*
Y1270D01*
D02*
G37*
G36*
X12520D02*
X12315D01*
Y1050D01*
X12520D01*
Y1270D01*
D02*
G37*
G36*
X12215D02*
X12010D01*
Y1050D01*
X12215D01*
Y1270D01*
D02*
G37*
G36*
X4520D02*
X4315D01*
Y1050D01*
X4520D01*
Y1270D01*
D02*
G37*
G36*
X4215D02*
X4010D01*
Y1050D01*
X4215D01*
Y1270D01*
D02*
G37*
G36*
X28028Y1575D02*
X27222D01*
Y1550D01*
X27235Y1446D01*
X27276Y1348D01*
X27301Y1315D01*
X27279Y1270D01*
X27175D01*
Y1050D01*
X27430D01*
X27685D01*
Y1154D01*
X27729Y1160D01*
X27827Y1201D01*
X27910Y1265D01*
X27974Y1348D01*
X28015Y1446D01*
X28028Y1550D01*
Y1575D01*
D02*
G37*
G36*
X6070Y2065D02*
X5680D01*
Y1345D01*
X5763D01*
Y1242D01*
X5760Y1240D01*
X5724Y1187D01*
X5712Y1125D01*
X5724Y1063D01*
X5760Y1010D01*
X5813Y974D01*
X5875Y962D01*
X5937Y974D01*
X5990Y1010D01*
X6026Y1063D01*
X6038Y1125D01*
X6026Y1187D01*
X5990Y1240D01*
X5987Y1242D01*
Y1345D01*
X6070D01*
Y2065D01*
D02*
G37*
G36*
X26625Y2063D02*
X26531Y2051D01*
X26443Y2014D01*
X26368Y1957D01*
X26311Y1882D01*
X26274Y1794D01*
X26262Y1700D01*
Y1550D01*
X26274Y1456D01*
X26311Y1368D01*
X26368Y1293D01*
X26443Y1236D01*
X26531Y1199D01*
X26605Y1190D01*
Y770D01*
X27035D01*
Y1230D01*
X26919D01*
X26899Y1259D01*
X26893Y1308D01*
X26939Y1368D01*
X26976Y1456D01*
X26988Y1550D01*
Y1700D01*
X26976Y1794D01*
X26939Y1882D01*
X26882Y1957D01*
X26807Y2014D01*
X26719Y2051D01*
X26625Y2063D01*
D02*
G37*
G36*
X28520Y950D02*
X28315D01*
Y730D01*
X28520D01*
Y950D01*
D02*
G37*
G36*
X28215D02*
X28010D01*
Y730D01*
X28215D01*
Y950D01*
D02*
G37*
G36*
X27685D02*
X27480D01*
Y730D01*
X27685D01*
Y950D01*
D02*
G37*
G36*
X27380D02*
X27175D01*
Y730D01*
X27380D01*
Y950D01*
D02*
G37*
G36*
X20520D02*
X20315D01*
Y730D01*
X20520D01*
Y950D01*
D02*
G37*
G36*
X20215D02*
X20010D01*
Y730D01*
X20215D01*
Y950D01*
D02*
G37*
G36*
X12520D02*
X12315D01*
Y730D01*
X12520D01*
Y950D01*
D02*
G37*
G36*
X12215D02*
X12010D01*
Y730D01*
X12215D01*
Y950D01*
D02*
G37*
G36*
X4520D02*
X4315D01*
Y730D01*
X4520D01*
Y950D01*
D02*
G37*
G36*
X4215D02*
X4010D01*
Y730D01*
X4215D01*
Y950D01*
D02*
G37*
G36*
X30570Y2065D02*
X30180D01*
Y1345D01*
X30263D01*
Y992D01*
X30260Y990D01*
X30224Y937D01*
X30212Y875D01*
X30224Y813D01*
X30260Y760D01*
X30313Y724D01*
X30375Y712D01*
X30437Y724D01*
X30490Y760D01*
X30526Y813D01*
X30538Y875D01*
X30526Y937D01*
X30490Y990D01*
X30487Y992D01*
Y1345D01*
X30570D01*
Y2065D01*
D02*
G37*
G36*
X22375Y2788D02*
X22313Y2776D01*
X22260Y2740D01*
X22224Y2687D01*
X22212Y2625D01*
X22224Y2563D01*
X22260Y2510D01*
X22263Y2508D01*
Y2065D01*
X22180D01*
Y1345D01*
X22263D01*
Y1000D01*
X22264Y993D01*
X22260Y990D01*
X22224Y937D01*
X22212Y875D01*
X22224Y813D01*
X22260Y760D01*
X22313Y724D01*
X22375Y712D01*
X22437Y724D01*
X22490Y760D01*
X22526Y813D01*
X22538Y875D01*
X22526Y937D01*
X22490Y990D01*
X22486Y993D01*
X22487Y1000D01*
Y1345D01*
X22570D01*
Y2065D01*
X22487D01*
Y2508D01*
X22490Y2510D01*
X22526Y2563D01*
X22538Y2625D01*
X22526Y2687D01*
X22490Y2740D01*
X22437Y2776D01*
X22375Y2788D01*
D02*
G37*
G36*
X14570Y2065D02*
X14180D01*
Y1345D01*
X14263D01*
Y992D01*
X14260Y990D01*
X14224Y937D01*
X14212Y875D01*
X14224Y813D01*
X14260Y760D01*
X14313Y724D01*
X14375Y712D01*
X14437Y724D01*
X14490Y760D01*
X14526Y813D01*
X14538Y875D01*
X14526Y937D01*
X14490Y990D01*
X14487Y992D01*
Y1345D01*
X14570D01*
Y2065D01*
D02*
G37*
G36*
X6570D02*
X6180D01*
Y1345D01*
X6263D01*
Y1000D01*
X6264Y993D01*
X6260Y990D01*
X6224Y937D01*
X6212Y875D01*
X6224Y813D01*
X6260Y760D01*
X6313Y724D01*
X6375Y712D01*
X6437Y724D01*
X6490Y760D01*
X6526Y813D01*
X6538Y875D01*
X6526Y937D01*
X6490Y990D01*
X6486Y993D01*
X6487Y1000D01*
Y1345D01*
X6570D01*
Y2065D01*
D02*
G37*
G36*
X31070D02*
X30680D01*
Y1345D01*
X30763D01*
Y742D01*
X30760Y740D01*
X30724Y687D01*
X30712Y625D01*
X30724Y563D01*
X30760Y510D01*
X30813Y474D01*
X30875Y462D01*
X30937Y474D01*
X30990Y510D01*
X31026Y563D01*
X31038Y625D01*
X31026Y687D01*
X30990Y740D01*
X30987Y742D01*
Y1345D01*
X31070D01*
Y2065D01*
D02*
G37*
G36*
X15070D02*
X14680D01*
Y1345D01*
X14763D01*
Y750D01*
X14764Y743D01*
X14760Y740D01*
X14724Y687D01*
X14712Y625D01*
X14724Y563D01*
X14760Y510D01*
X14813Y474D01*
X14875Y462D01*
X14937Y474D01*
X14990Y510D01*
X15026Y563D01*
X15038Y625D01*
X15026Y687D01*
X14990Y740D01*
X14986Y743D01*
X14987Y750D01*
Y1345D01*
X15070D01*
Y2065D01*
D02*
G37*
G36*
X7070D02*
X6680D01*
Y1345D01*
X6763D01*
Y750D01*
X6764Y743D01*
X6760Y740D01*
X6724Y687D01*
X6712Y625D01*
X6724Y563D01*
X6760Y510D01*
X6813Y474D01*
X6875Y462D01*
X6937Y474D01*
X6990Y510D01*
X7026Y563D01*
X7038Y625D01*
X7026Y687D01*
X6990Y740D01*
X6986Y743D01*
X6987Y750D01*
Y1345D01*
X7070D01*
Y2065D01*
D02*
G37*
%LPD*%
D15*
X24001Y7592D02*
Y10000D01*
X6000Y7592D02*
Y10000D01*
X20500Y2375D02*
X20625Y2250D01*
X21250D01*
X20875Y3000D02*
X21500D01*
X21875Y1705D02*
Y2625D01*
X21500Y3000D02*
X21875Y2625D01*
X17250Y3000D02*
X20125D01*
X21250Y2250D02*
X21375Y2125D01*
Y1705D02*
Y2125D01*
X20500Y2375D02*
Y3875D01*
X19625Y4750D02*
X20500Y3875D01*
X18500Y4750D02*
X19625D01*
X18375Y4875D02*
X18500Y4750D01*
X15875Y1705D02*
Y2500D01*
X16375Y2125D02*
X17250Y3000D01*
X16375Y1705D02*
Y2125D01*
X31875Y375D02*
Y1705D01*
X29875D02*
Y2375D01*
X25375D02*
X28750D01*
X24705Y1705D02*
X25375Y2375D01*
X24375Y1705D02*
X24705D01*
X8375D02*
Y2750D01*
X13875Y1705D02*
Y2750D01*
X19750Y1250D02*
X20125Y1625D01*
X19750Y375D02*
Y1250D01*
X22375Y1705D02*
Y2625D01*
X5875Y1125D02*
Y1705D01*
X14375Y875D02*
Y1705D01*
X15375Y375D02*
Y1705D01*
X22875Y1125D02*
Y1705D01*
Y625D02*
Y1125D01*
X30375Y875D02*
Y1705D01*
X21875Y375D02*
X23125D01*
X23375Y625D01*
X26625Y1375D02*
Y1625D01*
Y1375D02*
X26820Y1180D01*
Y1000D02*
Y1180D01*
X22375Y1000D02*
Y1705D01*
X6375Y1000D02*
Y1705D01*
X7375Y500D02*
Y1705D01*
X23375Y625D02*
Y1705D01*
X23875Y140D02*
Y1705D01*
X6875Y750D02*
Y1705D01*
X14875Y750D02*
Y1705D01*
X30875Y625D02*
Y1705D01*
X19000Y8967D02*
X19001Y8967D01*
Y10000D01*
X19001Y10000D01*
X26625Y1625D02*
Y1750D01*
X26375Y3875D02*
Y5195D01*
Y3875D02*
X27500Y2750D01*
X31375Y375D02*
Y1705D01*
X20875Y140D02*
Y1000D01*
X15875Y140D02*
Y1705D01*
X12875Y140D02*
Y1000D01*
X7875Y140D02*
Y1705D01*
X28875Y140D02*
Y1000D01*
X5375Y1705D02*
Y2500D01*
X5125Y2750D02*
X5375Y2500D01*
X3000Y2750D02*
X5125D01*
X4875Y1000D02*
Y1705D01*
X12875Y1000D02*
Y1705D01*
X13375D02*
Y2500D01*
X13125Y2750D02*
X13375Y2500D01*
X11750Y2750D02*
X13125D01*
X27500D02*
X29000D01*
X29375Y1705D02*
Y2375D01*
X29000Y2750D02*
X29375Y2375D01*
X28875Y1000D02*
Y1705D01*
X2375Y3375D02*
X3000Y2750D01*
X11000Y3500D02*
X11750Y2750D01*
X11000Y3500D02*
Y4875D01*
X10375Y5195D02*
X10680D01*
X11000Y4875D01*
X12875Y3545D02*
Y4000D01*
X11680Y5195D02*
X12875Y4000D01*
X11375Y5195D02*
X11680D01*
X13375Y3545D02*
Y4500D01*
X12680Y5195D02*
X13375Y4500D01*
X12375Y5195D02*
X12680D01*
X13875Y3545D02*
Y5000D01*
X13375Y5195D02*
X13680D01*
X13875Y5000D01*
X20875Y1000D02*
Y1705D01*
X3680Y5195D02*
X4875Y4000D01*
Y3545D02*
Y4000D01*
X3375Y5195D02*
X3680D01*
X4680D02*
X5375Y4500D01*
Y3545D02*
Y4500D01*
X4375Y5195D02*
X4680D01*
X7875Y3545D02*
Y4000D01*
X9070Y5195D02*
X9375D01*
X7875Y4000D02*
X9070Y5195D01*
X7375Y3545D02*
Y4500D01*
X8070Y5195D02*
X8375D01*
X7375Y4500D02*
X8070Y5195D01*
X6875Y3545D02*
Y5000D01*
X7070Y5195D02*
X7375D01*
X6875Y5000D02*
X7070Y5195D01*
X5875Y3545D02*
Y5000D01*
X5375Y5195D02*
X5680D01*
X5875Y5000D01*
X2375Y3375D02*
Y5195D01*
X15875Y3545D02*
Y4000D01*
X17070Y5195D02*
X17375D01*
X15875Y4000D02*
X17070Y5195D01*
X15375Y3545D02*
Y4500D01*
X16070Y5195D02*
X16375D01*
X15375Y4500D02*
X16070Y5195D01*
X14875Y3545D02*
Y5000D01*
X15070Y5195D02*
X15375D01*
X14875Y5000D02*
X15070Y5195D01*
X18375Y4875D02*
Y5195D01*
X20875Y3545D02*
Y4000D01*
X19680Y5195D02*
X20875Y4000D01*
X19375Y5195D02*
X19680D01*
X21375Y3545D02*
Y4500D01*
X20680Y5195D02*
X21375Y4500D01*
X20375Y5195D02*
X20680D01*
X21875Y3545D02*
Y5000D01*
X21680Y5195D02*
X21875Y5000D01*
X21375Y5195D02*
X21680D01*
X23875Y3545D02*
Y4000D01*
X25070Y5195D01*
X25375D01*
X23375Y3545D02*
Y4500D01*
X24070Y5195D02*
X24375D01*
X23375Y4500D02*
X24070Y5195D01*
X22875Y3545D02*
Y5000D01*
X23070Y5195D02*
X23375D01*
X22875Y5000D02*
X23070Y5195D01*
X27680D02*
X28875Y4000D01*
Y3545D02*
Y4000D01*
X27375Y5195D02*
X27680D01*
X29375Y3545D02*
Y4500D01*
X28680Y5195D02*
X29375Y4500D01*
X28375Y5195D02*
X28680D01*
X29375D02*
X29680D01*
X29875Y5000D01*
Y3545D02*
Y5000D01*
X30375Y3545D02*
Y5195D01*
X22375Y3545D02*
Y5195D01*
X14375Y3545D02*
Y5195D01*
X6375Y3545D02*
Y5195D01*
X29000Y8967D02*
X29001Y8967D01*
Y10000D01*
X29001Y10000D01*
X30001Y7592D02*
Y10000D01*
X28000Y7592D02*
X28001Y7592D01*
Y10000D01*
X28001Y10000D01*
X28625Y8034D02*
X28626Y8033D01*
X28374Y5806D02*
X28375Y5805D01*
X28374Y5806D02*
Y6658D01*
X27000Y8967D02*
X27001Y8967D01*
Y10000D01*
X27001Y10000D01*
X26000Y7592D02*
X26001Y7592D01*
Y10000D01*
X26001Y10000D01*
X25000Y8967D02*
X25001Y8967D01*
Y10000D01*
X25001Y10000D01*
X23000Y8967D02*
X23001Y8967D01*
Y10000D01*
X23001Y10000D01*
X21000Y8967D02*
X21001Y8967D01*
Y10000D01*
X21001Y10000D01*
X24000Y7592D02*
X24001Y7592D01*
Y10000D02*
X24001Y10000D01*
X22000Y7592D02*
X22001Y7592D01*
Y10000D01*
X22001Y10000D01*
X20000Y7592D02*
X20001Y7592D01*
Y10000D01*
X20001Y10000D01*
X6625Y8034D02*
X6626Y8033D01*
X4000Y7592D02*
Y10000D01*
X2000Y7592D02*
Y10000D01*
X5000Y8967D02*
Y10000D01*
X26625Y8034D02*
X26626Y8033D01*
X24625Y8034D02*
X24626Y8033D01*
X29374Y5806D02*
X29375Y5805D01*
X29374Y5806D02*
Y8033D01*
X27374Y5806D02*
X27375Y5805D01*
X27374Y5806D02*
Y8033D01*
X26374Y5806D02*
X26375Y5805D01*
X26374Y5806D02*
Y6658D01*
X25374Y5806D02*
X25375Y5805D01*
X25374Y5806D02*
Y8033D01*
X23374Y5806D02*
X23375Y5805D01*
X23374Y5806D02*
Y8033D01*
X22374Y5806D02*
X22375Y5805D01*
X22374Y5806D02*
Y6658D01*
X21374Y5806D02*
X21375Y5805D01*
X21374Y5806D02*
Y8033D01*
X20374Y5806D02*
X20375Y5805D01*
X20374Y5806D02*
Y6658D01*
X17374Y5806D02*
X17375Y5805D01*
X17374Y5806D02*
Y8033D01*
X16374Y5806D02*
X16375Y5805D01*
X16374Y5806D02*
Y6658D01*
X15374Y5806D02*
X15375Y5805D01*
X15374Y5806D02*
Y8033D01*
X14374Y5806D02*
X14375Y5805D01*
X14374Y5806D02*
Y6658D01*
X13374Y5806D02*
X13375Y5805D01*
X13374Y5806D02*
Y8033D01*
X12374Y5806D02*
X12375Y5805D01*
X12374Y5806D02*
Y6658D01*
X11374Y5806D02*
X11375Y5805D01*
X11374Y5806D02*
Y8033D01*
X10374Y5806D02*
X10375Y5805D01*
X10374Y5806D02*
Y6658D01*
X9374Y5806D02*
X9375Y5805D01*
X9374Y5806D02*
Y8033D01*
X8374Y5806D02*
X8375Y5805D01*
X8374Y5806D02*
Y6658D01*
X7374Y5806D02*
X7375Y5805D01*
X7374Y5806D02*
Y8033D01*
X6374Y5806D02*
X6375Y5805D01*
X6374Y5806D02*
Y6658D01*
X5374Y5806D02*
X5375Y5805D01*
X5374Y5806D02*
Y8033D01*
X4374Y5806D02*
X4375Y5805D01*
X4374Y5806D02*
Y6658D01*
X3374Y5806D02*
X3375Y5805D01*
X3374Y5806D02*
Y8033D01*
X2374Y5806D02*
X2375Y5805D01*
X2374Y5806D02*
Y6658D01*
X18000Y7592D02*
X18001Y7592D01*
Y10000D01*
X18001Y10000D01*
X17000Y8967D02*
X17001Y8967D01*
Y10000D01*
X17001Y10000D01*
X16000Y7592D02*
Y10000D01*
X15000Y8967D02*
Y10000D01*
X14000Y7592D02*
Y10000D01*
X13000Y8967D02*
Y10000D01*
X12000Y7592D02*
Y10000D01*
X11000Y8967D02*
Y10000D01*
X10000Y7592D02*
Y10000D01*
X9000Y8967D02*
Y10000D01*
X8000Y7592D02*
Y10000D01*
X7000Y8967D02*
Y10000D01*
X3000Y8967D02*
Y10000D01*
D42*
X26820Y1000D02*
D03*
X27430D02*
D03*
X12875D02*
D03*
X12265D02*
D03*
X28265D02*
D03*
X28875D02*
D03*
X20265D02*
D03*
X20875D02*
D03*
X4265D02*
D03*
X4875D02*
D03*
D56*
X30375Y5195D02*
D03*
Y5805D02*
D03*
X29375D02*
D03*
Y5195D02*
D03*
X28375D02*
D03*
Y5805D02*
D03*
X27375Y5195D02*
D03*
Y5805D02*
D03*
X26375Y5195D02*
D03*
Y5805D02*
D03*
X25375Y5195D02*
D03*
Y5805D02*
D03*
X24375D02*
D03*
Y5195D02*
D03*
X23375D02*
D03*
Y5805D02*
D03*
X22375Y5195D02*
D03*
Y5805D02*
D03*
X21375Y5195D02*
D03*
Y5805D02*
D03*
X20375Y5195D02*
D03*
Y5805D02*
D03*
X19375D02*
D03*
Y5195D02*
D03*
X18375D02*
D03*
Y5805D02*
D03*
X17375Y5195D02*
D03*
Y5805D02*
D03*
X16375Y5195D02*
D03*
Y5805D02*
D03*
X15375Y5195D02*
D03*
Y5805D02*
D03*
X14375D02*
D03*
Y5195D02*
D03*
X13375D02*
D03*
Y5805D02*
D03*
X12375Y5195D02*
D03*
Y5805D02*
D03*
X11375Y5195D02*
D03*
Y5805D02*
D03*
X10375Y5195D02*
D03*
Y5805D02*
D03*
X9375D02*
D03*
Y5195D02*
D03*
X8375D02*
D03*
Y5805D02*
D03*
X7375Y5195D02*
D03*
Y5805D02*
D03*
X6375Y5195D02*
D03*
Y5805D02*
D03*
X5375Y5195D02*
D03*
Y5805D02*
D03*
X4375Y5195D02*
D03*
Y5805D02*
D03*
X3375Y5195D02*
D03*
Y5805D02*
D03*
X2375Y5195D02*
D03*
Y5805D02*
D03*
D59*
X31875Y375D02*
X33625D01*
D60*
X35925Y9000D02*
Y9200D01*
Y8500D02*
Y9000D01*
X35125Y10000D02*
X35925Y9200D01*
X31001Y10000D02*
X35125D01*
D61*
X4875Y500D02*
Y1000D01*
Y375D02*
Y500D01*
Y375D02*
X5110Y140D01*
X31640D02*
X31875Y375D01*
X15875Y140D02*
X20875D01*
X5110D02*
X7875D01*
X20875D02*
X23875D01*
X28875D02*
X31640D01*
X23875D02*
X28875D01*
X12875D02*
X15875D01*
X7875D02*
X12875D01*
X30000Y7592D02*
X30001Y7592D01*
Y10000D02*
X30001Y10000D01*
X30375Y5805D02*
X30375Y5805D01*
X30375Y5805D02*
Y6658D01*
X30374Y6658D02*
X30375Y6658D01*
X24375Y5805D02*
X24375Y5805D01*
X24375Y5805D02*
Y6658D01*
X24374Y6658D02*
X24375Y6658D01*
X19375Y5805D02*
X19375Y5805D01*
X19375Y5805D02*
Y8033D01*
X19374Y8033D02*
X19375Y8033D01*
X18375Y5805D02*
X18375Y5805D01*
X18375Y5805D02*
Y6658D01*
X18374Y6658D02*
X18375Y6658D01*
D62*
X9000Y10000D02*
D03*
X8000D02*
D03*
X7000D02*
D03*
X6000D02*
D03*
X5000D02*
D03*
X4000D02*
D03*
X3000D02*
D03*
X11000D02*
D03*
X10000D02*
D03*
X12000D02*
D03*
X13000D02*
D03*
X14000D02*
D03*
X15000D02*
D03*
X16000D02*
D03*
X24001Y10000D02*
D03*
X23001D02*
D03*
X22001D02*
D03*
X21001D02*
D03*
X20001D02*
D03*
X19001D02*
D03*
X17001Y10000D02*
D03*
X26001Y10000D02*
D03*
X25001D02*
D03*
X27001D02*
D03*
X28001D02*
D03*
X29001D02*
D03*
X30001D02*
D03*
X31001D02*
D03*
X18001D02*
D03*
D63*
X2000Y10000D02*
D03*
D65*
X17875Y1750D02*
D03*
X19375D02*
D03*
D66*
X25641Y1625D02*
D03*
X26625D02*
D03*
X27625D02*
D03*
D67*
X38780Y591D02*
D03*
X591D02*
D03*
Y10039D02*
D03*
X38780D02*
D03*
D68*
X31000Y4125D02*
D03*
X31875D02*
D03*
X33000Y3500D02*
D03*
X34250Y4000D02*
D03*
X35625Y10125D02*
D03*
X36125D02*
D03*
X34125Y8750D02*
D03*
X34625D02*
D03*
X38375Y9000D02*
D03*
X37750Y1125D02*
D03*
Y1625D02*
D03*
X38500D02*
D03*
X39000Y2000D02*
D03*
Y2625D02*
D03*
Y3250D02*
D03*
Y3875D02*
D03*
Y4500D02*
D03*
Y5125D02*
D03*
Y5750D02*
D03*
Y6375D02*
D03*
Y7000D02*
D03*
Y7625D02*
D03*
Y8250D02*
D03*
Y9000D02*
D03*
X37125Y375D02*
D03*
X37750D02*
D03*
X36500D02*
D03*
X35750D02*
D03*
X35125D02*
D03*
X34500D02*
D03*
X30500Y8625D02*
D03*
Y8000D02*
D03*
X32875Y6750D02*
D03*
X31875D02*
D03*
Y5000D02*
D03*
Y5875D02*
D03*
X31000Y5000D02*
D03*
Y5875D02*
D03*
Y6750D02*
D03*
X32875Y5875D02*
D03*
X34500Y5750D02*
D03*
X34750Y5000D02*
D03*
X33625D02*
D03*
X28875D02*
D03*
X33000Y7250D02*
D03*
X30500D02*
D03*
X25875Y3750D02*
D03*
X25375D02*
D03*
X24875D02*
D03*
X27875Y4500D02*
D03*
X2875Y5500D02*
D03*
X3875D02*
D03*
X4875D02*
D03*
X6875D02*
D03*
X10000D02*
D03*
X10875D02*
D03*
X11875D02*
D03*
X12875D02*
D03*
X13875D02*
D03*
X14875D02*
D03*
X17875D02*
D03*
X18875D02*
D03*
X19875D02*
D03*
X20875D02*
D03*
X22000Y6000D02*
D03*
X26875Y5500D02*
D03*
X25875D02*
D03*
X24875D02*
D03*
X23875D02*
D03*
X23063D02*
D03*
X26125Y4500D02*
D03*
X25500D02*
D03*
X24875D02*
D03*
X20875Y6375D02*
D03*
X21125Y4125D02*
D03*
X17500Y3875D02*
D03*
X18250Y3250D02*
D03*
X19000D02*
D03*
X19500Y4000D02*
D03*
X2500Y9125D02*
D03*
X3500D02*
D03*
X4500D02*
D03*
X5500D02*
D03*
X6500D02*
D03*
X7625D02*
D03*
X8500D02*
D03*
X9500D02*
D03*
X10500D02*
D03*
X11500D02*
D03*
X12500D02*
D03*
X13500D02*
D03*
X3000Y7250D02*
D03*
X4375D02*
D03*
X9000D02*
D03*
X11000D02*
D03*
X13000D02*
D03*
X15000D02*
D03*
X17000D02*
D03*
X18625D02*
D03*
X20500D02*
D03*
X3375Y1000D02*
D03*
Y1625D02*
D03*
Y2250D02*
D03*
Y3375D02*
D03*
Y4000D02*
D03*
X27875Y5625D02*
D03*
X16875Y3750D02*
D03*
X11750Y1750D02*
D03*
X11125D02*
D03*
X12250Y3750D02*
D03*
X11500D02*
D03*
X15250Y2750D02*
D03*
X14500D02*
D03*
X6375D02*
D03*
X7000D02*
D03*
X7750D02*
D03*
X10500Y1750D02*
D03*
X9875D02*
D03*
X9250D02*
D03*
X10500Y3750D02*
D03*
X9875D02*
D03*
X9250D02*
D03*
X1625Y9000D02*
D03*
X1000D02*
D03*
X1625Y1000D02*
D03*
Y1625D02*
D03*
X1000D02*
D03*
X4000Y375D02*
D03*
X3250D02*
D03*
X2375D02*
D03*
X1625D02*
D03*
X21875D02*
D03*
X31375Y9125D02*
D03*
X30500D02*
D03*
X14500D02*
D03*
X28500D02*
D03*
X29500D02*
D03*
X27500D02*
D03*
X26500D02*
D03*
X25500D02*
D03*
X23500D02*
D03*
X21500D02*
D03*
X15500D02*
D03*
X16500D02*
D03*
X17500D02*
D03*
X18500D02*
D03*
X19500D02*
D03*
X20500D02*
D03*
X22500D02*
D03*
X24375D02*
D03*
X28750Y7250D02*
D03*
X23200Y4800D02*
D03*
X23125Y4210D02*
D03*
X26750Y7250D02*
D03*
X375Y1625D02*
D03*
Y2250D02*
D03*
Y2875D02*
D03*
Y3500D02*
D03*
Y4125D02*
D03*
Y4750D02*
D03*
Y5375D02*
D03*
Y6000D02*
D03*
Y6625D02*
D03*
Y7250D02*
D03*
Y7875D02*
D03*
Y8500D02*
D03*
Y9000D02*
D03*
X20875Y3000D02*
D03*
X20125D02*
D03*
X15875Y2500D02*
D03*
X4875Y500D02*
D03*
X33625Y375D02*
D03*
X29875Y2375D02*
D03*
X28750D02*
D03*
X8375Y2750D02*
D03*
X13875D02*
D03*
X20125Y1625D02*
D03*
X22375Y2625D02*
D03*
X5875Y1125D02*
D03*
X19750Y375D02*
D03*
X14875Y625D02*
D03*
X7375Y375D02*
D03*
X15375D02*
D03*
X14375Y875D02*
D03*
X22375D02*
D03*
X22875Y1125D02*
D03*
X30375Y875D02*
D03*
X22875Y625D02*
D03*
X6375Y875D02*
D03*
X6875Y625D02*
D03*
X31375Y375D02*
D03*
X30875Y625D02*
D03*
D69*
X35925Y9000D02*
D03*
Y8500D02*
D03*
D70*
X4875Y1705D02*
D03*
X5375D02*
D03*
X5875D02*
D03*
X6375D02*
D03*
X6875D02*
D03*
X7375D02*
D03*
X7875D02*
D03*
X8375D02*
D03*
Y3545D02*
D03*
X7875D02*
D03*
X7375D02*
D03*
X6875D02*
D03*
X6375D02*
D03*
X5875D02*
D03*
X5375D02*
D03*
X4875D02*
D03*
X12875Y1705D02*
D03*
X13375D02*
D03*
X13875D02*
D03*
X14375D02*
D03*
X14875D02*
D03*
X15375D02*
D03*
X15875D02*
D03*
X16375D02*
D03*
Y3545D02*
D03*
X15875D02*
D03*
X15375D02*
D03*
X14875D02*
D03*
X14375D02*
D03*
X13875D02*
D03*
X13375D02*
D03*
X12875D02*
D03*
X20875Y1705D02*
D03*
X21375D02*
D03*
X21875D02*
D03*
X22375D02*
D03*
X22875D02*
D03*
X23375D02*
D03*
X23875D02*
D03*
X24375D02*
D03*
Y3545D02*
D03*
X23875D02*
D03*
X23375D02*
D03*
X22875D02*
D03*
X22375D02*
D03*
X21875D02*
D03*
X21375D02*
D03*
X20875D02*
D03*
X28875Y1705D02*
D03*
X29375D02*
D03*
X29875D02*
D03*
X30375D02*
D03*
X30875D02*
D03*
X31375D02*
D03*
X31875D02*
D03*
X32375D02*
D03*
Y3545D02*
D03*
X31875D02*
D03*
X31375D02*
D03*
X30875D02*
D03*
X30375D02*
D03*
X29875D02*
D03*
X29375D02*
D03*
X28875D02*
D03*
D71*
X30374Y6658D02*
D03*
X29626D02*
D03*
X30000Y7592D02*
D03*
X29374Y8033D02*
D03*
X28626D02*
D03*
X29000Y8967D02*
D03*
X28374Y6658D02*
D03*
X27626D02*
D03*
X28000Y7592D02*
D03*
X27374Y8033D02*
D03*
X26626D02*
D03*
X27000Y8967D02*
D03*
X26374Y6658D02*
D03*
X25626D02*
D03*
X26000Y7592D02*
D03*
X25374Y8033D02*
D03*
X24626D02*
D03*
X25000Y8967D02*
D03*
X24374Y6658D02*
D03*
X23626D02*
D03*
X24000Y7592D02*
D03*
X23374Y8033D02*
D03*
X22626D02*
D03*
X23000Y8967D02*
D03*
X22374Y6658D02*
D03*
X21626D02*
D03*
X22000Y7592D02*
D03*
X21374Y8033D02*
D03*
X20626D02*
D03*
X21000Y8967D02*
D03*
X20374Y6658D02*
D03*
X19626D02*
D03*
X20000Y7592D02*
D03*
X19374Y8033D02*
D03*
X18626D02*
D03*
X19000Y8967D02*
D03*
X18374Y6658D02*
D03*
X17626D02*
D03*
X18000Y7592D02*
D03*
X17374Y8033D02*
D03*
X16626D02*
D03*
X17000Y8967D02*
D03*
X16374Y6658D02*
D03*
X15626D02*
D03*
X16000Y7592D02*
D03*
X15374Y8033D02*
D03*
X14626D02*
D03*
X15000Y8967D02*
D03*
X14374Y6658D02*
D03*
X13626D02*
D03*
X14000Y7592D02*
D03*
X13374Y8033D02*
D03*
X12626D02*
D03*
X13000Y8967D02*
D03*
X12374Y6658D02*
D03*
X11626D02*
D03*
X12000Y7592D02*
D03*
X11374Y8033D02*
D03*
X10626D02*
D03*
X11000Y8967D02*
D03*
X10374Y6658D02*
D03*
X9626D02*
D03*
X10000Y7592D02*
D03*
X9374Y8033D02*
D03*
X8626D02*
D03*
X9000Y8967D02*
D03*
X7374Y8033D02*
D03*
X6626D02*
D03*
X7000Y8967D02*
D03*
X8374Y6658D02*
D03*
X7626D02*
D03*
X8000Y7592D02*
D03*
X6374Y6658D02*
D03*
X5626D02*
D03*
X6000Y7592D02*
D03*
X5374Y8033D02*
D03*
X4626D02*
D03*
X5000Y8967D02*
D03*
X4374Y6658D02*
D03*
X3626D02*
D03*
X4000Y7592D02*
D03*
X3374Y8033D02*
D03*
X2626D02*
D03*
X3000Y8967D02*
D03*
X2374Y6658D02*
D03*
X1626D02*
D03*
X2000Y7592D02*
D03*
D72*
X32975Y8125D02*
D03*
X36875D02*
D03*
M02*
