G04*
G04 #@! TF.GenerationSoftware,Altium Limited,Altium Designer,20.0.2 (26)*
G04*
G04 Layer_Color=16711935*
%FSLAX24Y24*%
%MOIN*%
G70*
G01*
G75*
%ADD19R,0.0390X0.0420*%
%ADD33R,0.0420X0.0390*%
%ADD36O,0.0630X0.0780*%
%ADD37R,0.0630X0.0780*%
%ADD39C,0.0780*%
%ADD40O,0.0680X0.0830*%
%ADD41C,0.1064*%
%ADD73R,0.0309X0.0639*%
%ADD74R,0.0297X0.0474*%
%ADD75C,0.1080*%
D19*
X26820Y1000D02*
D03*
X27430D02*
D03*
X12875D02*
D03*
X12265D02*
D03*
X28265D02*
D03*
X28875D02*
D03*
X20265D02*
D03*
X20875D02*
D03*
X4265D02*
D03*
X4875D02*
D03*
D33*
X30375Y5195D02*
D03*
Y5805D02*
D03*
X29375D02*
D03*
Y5195D02*
D03*
X28375D02*
D03*
Y5805D02*
D03*
X27375Y5195D02*
D03*
Y5805D02*
D03*
X26375Y5195D02*
D03*
Y5805D02*
D03*
X25375Y5195D02*
D03*
Y5805D02*
D03*
X24375D02*
D03*
Y5195D02*
D03*
X23375D02*
D03*
Y5805D02*
D03*
X22375Y5195D02*
D03*
Y5805D02*
D03*
X21375Y5195D02*
D03*
Y5805D02*
D03*
X20375Y5195D02*
D03*
Y5805D02*
D03*
X19375D02*
D03*
Y5195D02*
D03*
X18375D02*
D03*
Y5805D02*
D03*
X17375Y5195D02*
D03*
Y5805D02*
D03*
X16375Y5195D02*
D03*
Y5805D02*
D03*
X15375Y5195D02*
D03*
Y5805D02*
D03*
X14375D02*
D03*
Y5195D02*
D03*
X13375D02*
D03*
Y5805D02*
D03*
X12375Y5195D02*
D03*
Y5805D02*
D03*
X11375Y5195D02*
D03*
Y5805D02*
D03*
X10375Y5195D02*
D03*
Y5805D02*
D03*
X9375D02*
D03*
Y5195D02*
D03*
X8375D02*
D03*
Y5805D02*
D03*
X7375Y5195D02*
D03*
Y5805D02*
D03*
X6375Y5195D02*
D03*
Y5805D02*
D03*
X5375Y5195D02*
D03*
Y5805D02*
D03*
X4375Y5195D02*
D03*
Y5805D02*
D03*
X3375Y5195D02*
D03*
Y5805D02*
D03*
X2375Y5195D02*
D03*
Y5805D02*
D03*
D36*
X9000Y10000D02*
D03*
X8000D02*
D03*
X7000D02*
D03*
X6000D02*
D03*
X5000D02*
D03*
X4000D02*
D03*
X3000D02*
D03*
X11000D02*
D03*
X10000D02*
D03*
X12000D02*
D03*
X13000D02*
D03*
X14000D02*
D03*
X15000D02*
D03*
X16000D02*
D03*
X24001Y10000D02*
D03*
X23001D02*
D03*
X22001D02*
D03*
X21001D02*
D03*
X20001D02*
D03*
X19001D02*
D03*
X17001Y10000D02*
D03*
X26001Y10000D02*
D03*
X25001D02*
D03*
X27001D02*
D03*
X28001D02*
D03*
X29001D02*
D03*
X30001D02*
D03*
X31001D02*
D03*
X18001D02*
D03*
D37*
X2000Y10000D02*
D03*
D39*
X17875Y1750D02*
D03*
X19375D02*
D03*
D40*
X25641Y1625D02*
D03*
X26625D02*
D03*
X27625D02*
D03*
D41*
X38780Y591D02*
D03*
X591D02*
D03*
Y10039D02*
D03*
X38780D02*
D03*
D73*
X4875Y1705D02*
D03*
X5375D02*
D03*
X5875D02*
D03*
X6375D02*
D03*
X6875D02*
D03*
X7375D02*
D03*
X7875D02*
D03*
X8375D02*
D03*
Y3545D02*
D03*
X7875D02*
D03*
X7375D02*
D03*
X6875D02*
D03*
X6375D02*
D03*
X5875D02*
D03*
X5375D02*
D03*
X4875D02*
D03*
X12875Y1705D02*
D03*
X13375D02*
D03*
X13875D02*
D03*
X14375D02*
D03*
X14875D02*
D03*
X15375D02*
D03*
X15875D02*
D03*
X16375D02*
D03*
Y3545D02*
D03*
X15875D02*
D03*
X15375D02*
D03*
X14875D02*
D03*
X14375D02*
D03*
X13875D02*
D03*
X13375D02*
D03*
X12875D02*
D03*
X20875Y1705D02*
D03*
X21375D02*
D03*
X21875D02*
D03*
X22375D02*
D03*
X22875D02*
D03*
X23375D02*
D03*
X23875D02*
D03*
X24375D02*
D03*
Y3545D02*
D03*
X23875D02*
D03*
X23375D02*
D03*
X22875D02*
D03*
X22375D02*
D03*
X21875D02*
D03*
X21375D02*
D03*
X20875D02*
D03*
X28875Y1705D02*
D03*
X29375D02*
D03*
X29875D02*
D03*
X30375D02*
D03*
X30875D02*
D03*
X31375D02*
D03*
X31875D02*
D03*
X32375D02*
D03*
Y3545D02*
D03*
X31875D02*
D03*
X31375D02*
D03*
X30875D02*
D03*
X30375D02*
D03*
X29875D02*
D03*
X29375D02*
D03*
X28875D02*
D03*
D74*
X30374Y6658D02*
D03*
X29626D02*
D03*
X30000Y7592D02*
D03*
X29374Y8033D02*
D03*
X28626D02*
D03*
X29000Y8967D02*
D03*
X28374Y6658D02*
D03*
X27626D02*
D03*
X28000Y7592D02*
D03*
X27374Y8033D02*
D03*
X26626D02*
D03*
X27000Y8967D02*
D03*
X26374Y6658D02*
D03*
X25626D02*
D03*
X26000Y7592D02*
D03*
X25374Y8033D02*
D03*
X24626D02*
D03*
X25000Y8967D02*
D03*
X24374Y6658D02*
D03*
X23626D02*
D03*
X24000Y7592D02*
D03*
X23374Y8033D02*
D03*
X22626D02*
D03*
X23000Y8967D02*
D03*
X22374Y6658D02*
D03*
X21626D02*
D03*
X22000Y7592D02*
D03*
X21374Y8033D02*
D03*
X20626D02*
D03*
X21000Y8967D02*
D03*
X20374Y6658D02*
D03*
X19626D02*
D03*
X20000Y7592D02*
D03*
X19374Y8033D02*
D03*
X18626D02*
D03*
X19000Y8967D02*
D03*
X18374Y6658D02*
D03*
X17626D02*
D03*
X18000Y7592D02*
D03*
X17374Y8033D02*
D03*
X16626D02*
D03*
X17000Y8967D02*
D03*
X16374Y6658D02*
D03*
X15626D02*
D03*
X16000Y7592D02*
D03*
X15374Y8033D02*
D03*
X14626D02*
D03*
X15000Y8967D02*
D03*
X14374Y6658D02*
D03*
X13626D02*
D03*
X14000Y7592D02*
D03*
X13374Y8033D02*
D03*
X12626D02*
D03*
X13000Y8967D02*
D03*
X12374Y6658D02*
D03*
X11626D02*
D03*
X12000Y7592D02*
D03*
X11374Y8033D02*
D03*
X10626D02*
D03*
X11000Y8967D02*
D03*
X10374Y6658D02*
D03*
X9626D02*
D03*
X10000Y7592D02*
D03*
X9374Y8033D02*
D03*
X8626D02*
D03*
X9000Y8967D02*
D03*
X7374Y8033D02*
D03*
X6626D02*
D03*
X7000Y8967D02*
D03*
X8374Y6658D02*
D03*
X7626D02*
D03*
X8000Y7592D02*
D03*
X6374Y6658D02*
D03*
X5626D02*
D03*
X6000Y7592D02*
D03*
X5374Y8033D02*
D03*
X4626D02*
D03*
X5000Y8967D02*
D03*
X4374Y6658D02*
D03*
X3626D02*
D03*
X4000Y7592D02*
D03*
X3374Y8033D02*
D03*
X2626D02*
D03*
X3000Y8967D02*
D03*
X2374Y6658D02*
D03*
X1626D02*
D03*
X2000Y7592D02*
D03*
D75*
X32975Y8125D02*
D03*
X36875D02*
D03*
M02*
