M48
;Layer_Color=9474304
;FILE_FORMAT=2:4
INCH,TZ
;TYPE=PLATED
T1F00S00C0.0100
T2F00S00C0.0120
T3F00S00C0.0150
T4F00S00C0.0320
T5F00S00C0.0354
T6F00S00C0.0472
T7F00S00C0.0787
%
T01
X4875Y500
X5875Y1125
X6375Y875
X6875Y625
X7375Y375
X8375Y2750
X13875
X15875Y2500
X15375Y375
X14875Y625
X14375Y875
X19750Y375
X20125Y1625
Y3000
X20875
X22375Y2625
Y875
X22875Y1125
Y625
X21875Y375
X28750Y2375
X29875
X30375Y875
X30875Y625
X31375Y375
X33625
T02
X1625Y375
Y1000
Y1625
X1000
X375
Y2250
Y2875
Y3500
Y4125
Y4750
Y5375
Y6000
Y6625
Y7250
Y7875
Y8500
Y9000
X1000
X1625
X2375Y375
X3250
X3375Y1000
Y1625
Y2250
Y3375
Y4000
X2875Y5500
X3875
X4875
X6875
X7000Y2750
X6375
X7750
X9250Y1750
X9875
X10500
X11125
X11750
X11500Y3750
X12250
X10500
X9875
X9250
X10000Y5500
X10875
X11875
X12875
X13875
X14875
X15000Y7250
X13000
X11000
X9000
X8500Y9125
X7625
X6500
X5500
X4500
X3500
X2500
X3000Y7250
X4375
X9500Y9125
X10500
X11500
X12500
X13500
X14500
X15500
X16500
X17500
X17000Y7250
X17875Y5500
X17500Y3875
X16875Y3750
X15250Y2750
X14500
X4000Y375
X18250Y3250
X19000
X19500Y4000
X21125Y4125
X20875Y5500
Y6375
X20500Y7250
X18625
X18875Y5500
X19875
X22000Y6000
X23063Y5500
X23875
X24875
X25875
X26875
X27875Y5625
Y4500
X28875Y5000
X31000
Y4125
X31875
Y5000
Y5875
Y6750
X31000
Y5875
X32875
Y6750
X33000Y7250
X30500
Y8000
Y8625
Y9125
X31375
X29500
X28500
X27500
X26500
X25500
X24375
X23500
X22500
X21500
X20500
X19500
X18500
X23200Y4800
X23125Y4210
X24875Y4500
X25500
X26125
X25875Y3750
X25375
X24875
X26750Y7250
X28750
X33625Y5000
X33000Y3500
X34250Y4000
X34750Y5000
X34500Y5750
X34625Y8750
X34125
X38375Y9000
X39000
Y8250
Y7625
Y7000
Y6375
Y5750
Y5125
Y4500
Y3875
Y3250
Y2625
Y2000
X38500Y1625
X37750
Y1125
Y375
X37125
X36500
X35750
X35125
X34500
X35625Y10125
X36125
T03
X35925Y8500
Y9000
T04
X17875Y1750
X19375
X19001Y10000
X20001
X21001
X22001
X23001
X24001
X25001
X26001
X27001
X28001
X29001
X30001
X31001
X18001
X17001Y10000
X16000Y10000
X15000
X14000
X13000
X12000
X11000
X10000
X9000
X8000
X7000
X6000
X5000
X4000
X3000
X2000
T05
X25641Y1625
X26625
X27625
T06
X32975Y8125
X36875
T07
X591Y591
X38780
Y10039
X591
M30
